<mxfile host="65bd71144e">
    <diagram id="zOsBUlOQxNhnEtaMxW5K" name="ページ1">
        <mxGraphModel dx="3240" dy="3120" grid="1" gridSize="10" guides="1" tooltips="1" connect="1" arrows="1" fold="1" page="1" pageScale="1" pageWidth="827" pageHeight="1169" math="0" shadow="0">
            <root>
                <mxCell id="0"/>
                <mxCell id="1" parent="0"/>
                <mxCell id="3" value="" style="shape=image;verticalLabelPosition=bottom;labelBackgroundColor=#ffffff;verticalAlign=top;aspect=fixed;imageAspect=0;image=data:image/png,iVBORw0KGgoAAAANSUhEUgAABLAAAASwCAYAAADrIbPPAAAAOXRFWHRTb2Z0d2FyZQBNYXRwbG90bGliIHZlcnNpb24zLjMuNCwgaHR0cHM6Ly9tYXRwbG90bGliLm9yZy8QVMy6AAAACXBIWXMAAA9hAAAPYQGoP6dpAADcH0lEQVR4nOzdd3hUVf7H8feh9yYICEoXARVQsffee13L6lp311XX7trW8mPtXdeyKvaKir33DqIiVZSi0nuv4fz+mCEMIZOEZEJu4P16nnly79xz7zmZhCH55JzvDTFGJEmSJEmSpKSqUtEDkCRJkiRJkopigCVJkiRJkqREM8CSJEmSJElSohlgSZIkSZIkKdEMsCRJkiRJkpRoBliSJEmSJElKNAMsSZIkSZIkJZoBliRJkiRJkhLNAEuSJEmSJEmJZoAlSZIkSZKkRDPAkiRJkiRJUqIZYEmSJEmSJCnRDLAkSZIkSZKUaAZYkiRJkiRJSrRqFT0ASZIkSZKUXLV7nh0regxryoLv7wkVPQYVzhlYkiRJkiRJSjQDLEmSJEmSJCWaAZYkSZIkSZISzQBLkiRJkiRJiWYRd0mSJEmSlF1w7osqnt+FkiRJkiRJSjQDLEmSJEmSJCWaAZYkSZIkSZISzQBLkiRJkiRJiWYRd0mSJEmSlF0IFT0CyRlYkiRJkiRJSjYDLEmSJEmSJCWaAZYkSZIkSZISzRpYkiRJkiQpu+DcF1U8vwslSZIkSZKUaAZYkiRJkiRJSjQDLEmSJEmSJCWaAZYkSZIkSZISzSLukiRJkiQpuxAqegSSM7AkSZIkSZKUbAZYkiRJkiRJSjQDLEmSJEmSJCWaNbAkSZIkSVJ2wbkvqnh+F0qSJEmSJCnRDLAkSZIkSZKUaAZYkiRJkiRJSjQDLEmSJEmSJCWaRdwlSZIkSVJ2IVT0CCRnYEmSJEmSJCnZDLAkSZIkSZKUaAZYkiRJkiRJpRRCqBpC2DSEcHII4e4QwlchhPkhhJh+9MlBH7uFEJZlXHPMapxbM4Tw1xDChyGECSGERSGEP0IIb4QQTgghVIpsyBpYkiRJkiQpu8qRb1Sk54HDy+viIYQ6wP+A1S5GFkLYBOgLdC1wqFX6sT9wZgjhyBjjpLKOtTz5XShJkiRJklR6VQvsTwdG5vD6/wHaA/NW56QQQkvgHVaEV4OAC4DjgMuBUenndwTeCCHUzcloy4kBliRJkiRJUul9C9wAHAW0jzGuB/TOxYVDCNsDZ6d3r1jN028DNkpvPwtsGWO8Lcb4bIyxN9Ad+CR9fEvg0rKOtzwZYEmSJEmSJJVSjLF3jPGyGOOLMcbRubpuCKEW8Aip7KYv8MpqnNsVOCa9OwE4Pca4NLNNjHEucDywMP3U+SGERmUbdfkxwJIkSZIkSUqea4DOwExWzMIqqWNYUTPrwXRYtYoY4zhSNbwA6gCHrP4w1wwDLEmSJEmSlF0I684jIUIIW5GqVwVwcYxx4mpeYr+M7TeLaZt5fL+srSqYAZYkSZIkSVJChBCqk1o6WBX4mNQdCFfn/AB0S+/mAd8Xc0r/jO3NVqevNckAS5IkSZIkKTmuIBUkLQTOiDHG1Tx/Q1LLAQH+iDEuKab976SCLoBO6QAscQywJEmSJEmSEiCE0B24LL17bYxxZCku0yhje2pxjdMB1+z0bnWgbin6LHfVKnoAkiRJkiRJSRBCqAnULPD0ohjjojXQdzVSSwerAz8CN5fyUvUythdmbbWyBUDj9HZ9oNCi7xXJGViSJEmSJCm7UGXdeaRmP80q8LisiFcnly4GtiC1nO+0GOPSNdRvpeAMLEmSJEmSpJT/ALcVeG5NzL7qAlyV3r0rxjigDJfLnD1Vq4Tn1M7YnlOGvsuNAZYkSZIkSRKQXipY7oFVphBCFVJLB2sCY4Ary3jJmRnbTUvQfzWgQXp3CTCvjP2XCwMsSZIkSZKkirMZsG16ewjwzyw3AmyUsd0whHBFxv7NGXW6fgfmk7oTYesQQvVi7kS4EVA1vT2yFHc9XCMMsCRJkiRJUnaFhynKncwX+ID0oziNgOsy9u8hPXMsxhhDCEOAXqSCqZ7At0Vcq1fG9uAS9F0hLOIuSZIkSZK0dnk7Y3u/Ytrun7H9ZjmMJScMsCRJkiRJkipIjPGHGGMo7gG0yzhtbIHjMwtc9rmM7TNDCHUL6zuE0Ao4Or27AOiXq88r1wywJEmSJEmS1iIxxiHA8+ndlsBD6WLt+UII9YCnWHGnwtsKCcISwxpYkiRJkiRJpRRCaAecWuDpzTO2e4YQri9w/MMY44flOzLOB7YHWgPHAd1CCH2A8UB74LT0R4AfgBvKeTxlYoAlSZIkSZKyCy7eKkYb4PIijm/OyoEWwFKgXAOsGOO4EMI+QF9gk/QYbiuk6ZfAETHGueU5nrLyu1CSJEmSJGktFGMcSuouhGcDnwCTgMWkZmG9DZwE7BRjnFhhgywhZ2BJkiRJkiSVUozxYyCsgX7GlKafGONC4N70o9JyBpYkSZIkSZISzRlYkiRJkiQpu1Duk4ukYjkDS5IkSZIkSYlmgCVJkiRJkqREM8CSJEmSJElSohlgSZIkSZIkKdEs4i5JkiRJkrILzn1RxfO7UJIkSZIkSYlmgCVJkiRJkqREM8CSJEmSJElSolkDS5IkSZIkZWcNLCWA34WSJEmSJElKNAMsSZIkSZIkJZoBliRJkiRJkhLNAEuSJEmSJEmJZhF3SZIkSZKUXZVQ0SOQnIElSZIkSZKkZDPAkiRJkiRJUqIZYEmSJEmSJCnRDLAkSZIkSZKUaBZxlyRJkiRJ2QXnvqji+V0oSZIkSZKkRDPAkiRJkiRJUqIZYEmSJEmSJCnRrIElSZIkSZKyC6GiRyA5A0uSJEmSJEnJZoAlSZIkSZKkRDPAkiRJkiRJUqIZYEmSJEmSJCnRLOIuSZIkSZKyC859UcXzu1CSJEmSJEmJZoAlSZIkSZKkRDPAkiRJkiRJUqJZA0uSJEmSJGUXQkWPQHIGliRJkiRJkpLNAEuSJEmSJEmJZoAlSZIkSZKkRDPAkiRJkiRJUqJZxF2SJEmSJGUXnPuiiud3oSRJkiRJkhLNAEuSJEmSJEmJZoAlSZIkSZKkRLMGliRJkiRJyi6Eih6B5AwsSZIkSZIkJZsBliRJkiRJkhLNAEuSJEmSJEmJZoAlSZIkSZKkRLOIuyRJkiRJyi4490UVz+9CSZIkSZIkJZoBliRJkiRJkhLNAEuSJEmSJEmJZoAlSZIkSZKkRLOIuyRJkiRJyi6Eih6B5AwsSZIkSZIkJZsBliRJkiRJkhLNAEuSJEmSJEmJZg0sSZIkSZKUXXDuiyqe34WSJEmSJElKNAMsSZIkSZIkJZoBliRJkiRJkhLNAEuSJEmSJEmJZhF3SZIkSZKUXQgVPQLJGViSJEmSJElKNgMsSZIkSZIkJZoBliRJkiRJkhLNGliSJEmSJCm74NwXVTy/CyVJkiRJkpRoBliSJEmSJElKNAMsSZIkSZIkJZoBliRJkiRJkhLNIu6SJEmSJCk7i7grAfwulCRJkiRJUqIZYEmSJEmSJCnRDLAkSZIkSZKUaNbAkiRJkiRJ2YVQ0SOQnIElSZIkSZKkZDPAkiRJkiRJUqIZYEmSJEmSJCnRDLAkSZIkSZKUaBZxlyRJkiRJ2QXnvqji+V0oSZIkSZKkRDPAkiRJkiRJUqIZYEmSJEmSJCnRDLAkSZIkSZKUaBZxlyRJkiRJ2YVQ0SOQnIElSZIkSZKkZDPAkiRJkiRJUqIZYEmSJEmSJCnRrIElSZIkSZKyC859UcXzu1CSJEmSJEmJZoAlSZIkSZKkRDPAkiRJkiRJUqIZYEmSJEmSJCnRLOIuSZIkSZKyC6GiRyA5A0uSJEmSJEnJZoAlSZIkSZKkRDPAkiRJkiRJUqJZA0uSJEmSJGUVrIGlBHAGliRJkiRJkhLNAEuSJEmSJEmJZoAlSZIkSZKkRDPAkiRJkiRJUqJZxF2SJEmSJGVlEXclgTOwJEmSJEmSlGgGWJIkSZIkSUo0AyxJkiRJkiQlmjWwJEmSJElSdpbAUgI4A0uSJEmSJEmJZoAlSZIkSZKkRDPAkiRJkiRJUqIZYEmSJEmSJCnRLOIuSZIkSZKyCsEq7qp4zsCSJEmSJElSohlgSZIkSZIkKdEMsCRJkiRJkpRoBliSJEmSJElKNIu4S5IkSZKkrCziriRwBpYkSZIkSZISzQBLkiRJkiRJiWaAJUmSJEmSpESzBpYkSZIkScrKGlhKAmdgSZIkSZIkKdEMsCRJkiRJkpRoBliSJEmSJElKNAMsSZIkSZIkJZpF3CVJkiRJUlYWcVcSOANLkiRJkiRJiWaAJUmSJEmSpEQzwJIkSZIkSVKiWQNLkiRJkiRlZwksJYAzsCRJkiRJkpRoBliSJEmSJElKNAMsSZIkSZIkJZoBliRJkiRJkhLNIu6SJEmSJCmrEKzirornDCxJkiRJkiQlmgGWJEmSJEmSEs0AS5IkSZIkSYlmDSxJkiRJkpSVNbCUBM7AkiRJkiRJKqUQQtUQwqYhhJNDCHeHEL4KIcwPIcT0o08JrxNCCNuGEK4IIbwRQhgTQlgQQlgYQhgfQng7hHBuCKHRao6vZgjhryGED0MIE0IIi0IIf6T7OCGEUCmyIWdgSaX02IDfY0WPQVIyHNNjw4oegqQEGTZuTkUPQVKC9GxT3+lLa7/ngcPLcoEQwsbAB0DrLE1aph/7AFeGEM6MMfYtwXU3AfoCXQscapV+7A+cGUI4MsY4qbTjXxMMsCRJkiRJkkqvaoH96cA0oNNqXKMJK8KrRcBHwBfAb+n9jsDxQBdgPeD5EMJxMcbns10whNASeAfYKP3UIOAxYDzQHjg1/XFH4I0Qwi4xxnmrMeY1ygBLkiRJkiSp9L4FhgHfAd/FGEeHEE4GHl3N6/wO3Aw8GWOcUfBgCOFG4A7g76RKQv03hPBujHFmluvdxorw6lngxBjj0ozr3QW8DuwCbAlcCly5mmNeYwywJEmSJElSVhZxL1qMsXcOLvMT0DHGuLiIfpaGEP4BbAdsQWrW1qFAn4JtQwhdgWPSuxOA0zPDq/T15oYQjgd+AWoB54cQbi0iEKtQlaJQlyRJkiRJ0toqxjivqPAqo10EXsh4avMsTY8BliePD8YY52a53jhSNbwA6gCHlGzEa54BliRJkiRJUuUxO2O7dpY2+2Vsv1nM9TKP75e1VQUzwJIkSZIkSao8NsvYHlvwYEit+eyW3s0Dvi/mev2zXDtRDLAkSZIkSZIqgRBCY1bUtgJ4o5BmG5JaDgjwR4xxSTGX/Z1U0AXQKSS06JlF3CVJkiRJUlYJzTPWVbcCjdPbr8YYfyqkTaOM7anFXTDGuCSEMDt93epAXaDQmlkVyQBLkiRJkiQJCCHUBGoWeHpRjHFRRYwnUwjhLOCU9O5M4NwsTetlbC8s4eUXsCIYq08CAyyXEEqSJEmSJKVcBswq8LisQkcEhBAOAO5O7y4DTokxjqm4Ea15zsCSJEmSJElK+Q9wW4HnKnT2VQhhT+BFUhlOBM6IMb5SxCmZs6dqlbCbzLsZzlmtAa4hBliSJEmSJCm7dagEVnqpYIUvF1wuhLA78CqpICoCf40xPlzMaTMztpuWoI9qQIP07hJg3uqPtPy5hFCSJEmSJClh0uHVa6yYHfX3GOMDJTj1d2B+ert1CKF6Me03Aqqmt0fGGONqD3YNMMCSJEmSJElKkIzwqk76qX/EGP9bknPTAdSQ9G5VoGcxp/TK2B68OuNckwywJEmSJEmSEqKQ8OrcGOM9q3mZtzO29yum7f4Z22+uZj9rjAGWJEmSJElSAoQQdmXl8Oq8GONdpbjUcxnbZ4YQ6mbprxVwdHp3AdCvFH2tEQZYkiRJkiQpqxDCOvOo4Nd5F+ANVg6v7izNtWKMQ4Dn07stgYfSxdoz+6sHPMWKOxXeFmOcWZr+1gTvQihJkiRJklRKIYR2wKkFnt48Y7tnCOH6Asc/jDF+mHGNHqwcXr0DjA0hHFpM91NjjJ9nOXY+sD3QGjgO6BZC6AOMB9oDp6U/AvwA3FBMXxXKAEuSJEmSJKn02gCXF3F8c1YOtACWAh9m7PcAMpf57ZN+FOcTYNfCDsQYx4UQ9gH6Apukx3BbIU2/BI6IMc4tQX8VxiWEkiRJkiRJa6EY41BSdyE8m1TYNQlYTGoW1tvAScBOMcaJFTbIEnIGliRJkiRJyqqia0MlXYzxY6BML1KMsQ/QJwfDKezaC4F7049KyxlYkiRJkiRJSjQDLEmSJEmSJCWaAZYkSZIkSZISzQBLkiRJkiRJiWYRd0mSJEmSlJVF3JUEzsCSJEmSJElSohlgSZIkSZIkKdEMsCRJkiRJkpRo1sCSJEmSJEnZWQJLCeAMLEmSJEmSJCWaAZYkSZIkSZISzQBLkiRJkiRJiWaAJUmSJEmSpESziLskSZIkScoqBKu4q+I5A0uSJEmSJEmJZoAlSZIkSZKkRDPAkiRJkiRJUqIZYEmSJEmSJCnRLOIuSZIkSZKysoi7ksAZWJIkSZIkSUo0AyxJkiRJkiQlmgGWJEmSJEmSEs0aWJIkSZIkKStrYCkJnIElSZIkSZKkRDPAkiRJkiRJUqIZYEmSJEmSJCnRDLAkSZIkSZKUaBZxlyRJkiRJWVnEXUngDCxJkiRJkiQlmgGWJEmSJEmSEs0AS5IkSZIkSYlmDSxJkiRJkpSdJbCUAM7AkiRJkiRJUqIZYEmSJEmSJCnRDLAkSZIkSZKUaAZYkiRJkiRJSjSLuEuSJEmSpKxCsIq7Kp4zsCRJkiRJkpRoBliSJEmSJElKNAMsSZIkSZIkJZo1sCRJkiRJUlbWwFISOANLkiRJkiRJiWaAJUmSJEmSpEQzwJIkSZIkSVKiGWBJkiRJkiQp0SziLkmSJEmSsrKIu5LAGViSJEmSJElKNAMsSZIkSZIkJZoBliRJkiRJkhLNAEuSJEmSJEmJZhF3SZIkSZKUnTXclQDOwJIkSZIkSVKiGWBJkiRJkiQp0QywJEmSJEmSlGjWwJIkSZIkSVmFYBEsVTxnYEmSJEmSJCnRDLAkSZIkSZKUaAZYkiRJkiRJSjQDLEmSJEmSJCWaRdwlSZIkSVJWFnFXEjgDS5IkSZIkSYlmgCVJkiRJkqREM8CSJEmSJElSolkDS5IkSZIkZWUNLCWBM7AkSZIkSZKUaAZYkiRJkiRJSjQDLEmSJEmSJCWaAZYkSZIkSZISzSLukiRJkiQpK4u4KwmcgSVJkiRJkqREM8CSJEmSJElSohlgSZIkSZIkKdGsgSVJkiRJkrKzBJYSwBlYkiRJkiRJSjQDLEmSJEmSJCWaAZYkSZIkSZISzQBLkiRJkiRJiWYRd0mSJEmSlFUIVnFXxXMGliRJkiRJkhLNAEuSJEmSJEmJZoAlSZIkSZKkRDPAkiRJkiRJUqJZxF2SJEmSJGVlEXclgTOwJEmSJEmSlGgGWJIkSZIkSUo0AyxJkiRJkiQlmjWwJEmSJElSVpbAUhI4A0uSJEmSJEmJZoAlSZIkSZKkRDPAkiRJkiRJUqIZYEmSJEmSJCnRLOIuSZIkSZKyClZxVwI4A0uSJEmSJEmJZoAlSZIkSZKkRDPAkiRJkiRJUqJZA0tSvievP5/fhg0qcfu/3fEkjZq1WK0+xgz5gaf/cxHECEDDps35+51PrdY1spk7YxoTRv/MhNE/M3HUz0wYM5J5M6fnH//XU+/npJ9cyuWYZ0+bwqifBvDbsB+Z/NsoZk2dxJJFC6lRqw6N1m/Jhp03pfsu+7L+Ru1zMvbV/X5ZbsfDT2TnI/6ckzGocvr4ww94/bV+DBk8mKlTp1C3Xj022qgNu++xJ0cefSz16tUrl36HDRvKW2+8xtdffcXkSROZO3cujRo3plmzZmy2eQ969dqa3ffci6pVq5ZL/yWRl5fHqFG/MnTwYIYOHcLQIYP5ecRwFi5cCMDBhxzGdb1vKLf+K+pro8rh1xFD+GXEEH4dMZQ/xo5i9qwZzJk1k7y8pdStW58NNmpLt+5bscveB9GsecsSXXPGtKm8/0ZfBn79GVMmTWDx4oU0atKUTTbtyW77HEyXzbfI6eewbNky+n/xEV99+j6jRw5j5vRpLF2ymNp16tGi1YZ02awnu+5zCK02apvTfktr/ry5jP5lOKNHDmfUz0MZNXI4k8b/Tkz/HHXlzffTrftWJbrWsrw8xv02ml9HDmP0yGGM+nkYY0f9zOJFiwDYea8D+dtF/y6Xz2Pcb2N47/UXGTroO6ZNnsjiRYto2LgJbTpszPa77s12u+xNlSrOrUgyS2ApCQywJK0xSxYt5M3/3ZofXuXSyIFf8cKtV+b8uuUpl2Pue8c1jBjweaGv7cJ5c5g4eg4TR/9M/7dfosfuB7D3SX+nWvUaOel7dTVev2S/1GjtM3/ePC675EI+/ujDlZ5fPH06M6ZP58cfvueZp57k5tvuYPPuPXLW79y5c7nxP//Ha/1ezv+lb7kpkyczZfJkhg4ZwnPPPMVnX/WnQYMGOet7dV10/nl88P67a7zfivraqHK59qKzWLRwQaHHZs2czqyZ0xk2aCD9nu3DESeczqHHnVLk9QZ8+TH/vfVa5s2ZvdLzkyeMY/KEcXz63uvsecDh/OXsS6iSg2B5yqQJ3H7txYwaOWyVY3PnzOKX4bP4Zfhg3uj7NAcddSLH/uXvFVq4ev68uZx6+G6rvG+V1h3/dynffv5RTq5VUsvy8ni2z3289vzjq3weUydPZOrkiXz31ae8++oLnHvFDTRZr9kaHZ+kysUAS+UmhHAy8Gh695QYY5+KG82qQgj/Bq5O7+4WY/y44kaTPEf885pi29Rt0Gi1rvnRcw8zc/IEqtesxZJFC0s5ssItW7Zspf0qVavRbMO2TBrzS077yaVcjnnKH2Pyw6v1N2rPRl2606x1W2rVrcf8ObMY/dNARn73JTEu44cP32DujGkcdcF1ZfrBfJejTmF+gV86CjN13Fg+ef4RAGrWrsMmW+9c6j5VeeXl5XHh+efyxeefAbDeek05/Mij6NChI7NmzeKtN1/nh+8HMnHiBP5+1hk89uQztO/Qocz9zpo5k7+ecSpDhgwGYP3mzdljz73ZuHNn6terz7z58/ht7Fi+/vILhg4dUub+ymrZsryV9hs2bETDRo34beyYcuuzor42qpwaNmpCh87daNO+E81abECduvXIy1vKlIkT+P7bzxkx5EeWLFnMs4/eS17eUo444fRCrzPkhwHc8X+XsXTJEgB6brMjW267M7Vq1Wb0L8P56O1+zJ83l/ffeAlC4LRzLivTuBfMn8d1F53F5InjAKhdpy677HUgrdu0p1adukybMpEBX37CyGE/sWxZHv2e60OVKlU45pS/lanfsogxrhT6hBBovsGGzJk9c5XQrySW5a38c0e9+g2p16AhE8f9VuaxZvPIvTfx/ut9AahSpSrb7bIX3XpsRe06dZk8cRyff/AWv4/5lRFDfqT3pX/nmtsfpm69+uU2HkmVmwHWWiSE0AM4Cdge6AA0BPKAmcAYYAjQH3g/xvhrhQxSlUbnrXbI6fX++HkI373bD0gFH+8/+d+cXr9ug0b02G1/WrTbmJbtOrH+Ru2pWq06vY/fM6f9LLd8+dxGXTbnhCtuK9U1cjnmatWr02P3A9hqr0MKXSK45Z4HM3rwQF687SqWLFrIL99/zeDP32OznfYu1dgBNuy8WYnajR36Q/52l+12o3rNWqXuU5XXS31fyA9I2nfoyP8eeYz1mjbNP37sn47n1ptv5PE+jzB79iyuu+YqHn287MuLL734gvzw6qST/8LZ55xHzZo1V2l3znnnM3nyJOrUqVOqfsaN+4P9994DgGuv/w+HHHZ4qa6z6Wab0659B7p27UaXbt1o3XpD+r38ElddUbZf3otSUV8bVT7X3/kordt2yPrHj0OPO4VP33ud/95yDTFGXnrqf+y236GrzKpZsngx9996bX54dfLfL2LfQ47JP77jHvuxxwGHc+2FZzBz+jTef70v2+60J5v27FXqsb/18jP54VWb9htzxU33Ub/AH+IOOeZk3n+9L/+76z8AvPrC4+x/xJ9WaVcSLzz+AH2ffAiAZ98dUKoxV61ale133Zt2nbrQvlMX2nXahDp163HNhWcwbNDA1b5eh0260WqjdrTrtAntO3Vh/Zat+Pjd17j/luL/aFkag777Oj+8qlmrNpf1vptNNu2xUpuDjjyR/911Ax++9TJ/jB3Fs4/cy6nnXFou45FU+RlgrQVCCHWB+4ETCjlcHWiRfmwLnJo+Z/8Y41trbJBapy1dvJjXH7yFGJfRuddObLzVDjkPsFpv3I3WG3fL6TXLWy7HfPzlt1C7XtHLntptugW7HP0X3n/iPgB+/OTtMgVYJZG3dAlDvvggf7/HrvuVa39Kpry8PB647578/d433LRSQLLceedfyDdff8WI4cMY+N0Avvzic7bfYcdS99vv5Zf48ovPATj6mOO44KJLimy//vrNS91Xrpx2xllrtL+K+tqoctqwXcdi2+y814F889kHfPf1Z+Tl5fFj/y/Zbd9DVmrz0TuvMmXSeAC23HanlcKr5TZo3Ya/nH0Jt117MQDPPfbfMgVYPw74Kn/72L/8LWsoteeBR/Dh2/0Y9fNQ8pYu5eehP7HltjuVut+yqFW7Duf8q3fOrnfYcX/J2bVK4s2Xns7fPubkv64SXgFUqVqVU8+5hOE/DWT8H2P54M2XOejok1i/xQZrcKSSKgsr5VVyIYRqwFusCK+WAq8AFwDHAccCZwMPAJkL/su9Qm2MsU+MMaQffcq7PyXXp30fY/qE36lVpx77nPyPih7OWqm48Gq5rtvumr89+bfR5TSaFUYM+IIFc1PLHJq1bssGHTYp9z6VPN8N6M+UKVMA2KrX1nTpWnhwW7VqVf50won5+2+9+UaZ+n30kdTshzp16nDu+ReW6Vprq4r62mjt1rrNiiWmM2dMW+X4Vx+vqPO2/xHHZ73OVtvvSrPmqSBj5NBBTJk0odRjmjVzRv52i1YbFdm2RasN87cXLZhf6j7XZcuWLWPooO+A1NLHnfc8IGvbqlWrseMe+6XPy1vp+0PJEUJYZx5KLgOsyu+vwPI/C40BNo8xHhZjvC3G+GyM8bkY470xxrNijF2BjYGbSC0rlMrdhFEj+ObNFwDY7bjTqdeoSQWPaN1Ws/aK5VFLFy8q9/4GffJ2/nZ3Z1+ts7747NP87R13KroG2o47rjieed7q+n7gd4weNQqAXXffw7vnZVERXxut/SaO/z1/u1Hj9VY6tmD+PIYP+QFI1aHqsmnPrNepUqUK3Xttl7//Q/8vSj2mho0a529P+KPomk8TM463bmu9t9KYO3tW/t0NGzRsTL0GDYtsv8GGbfO3v/va9xdJhXMJYeV3Ysb2X2OMq95WJUOMcSRQ9BoKCXj+5suZOPYX5s+eRY2atajXeD1ad+pK1+33oG23HiW6Rt7Spamlg8uWsVGX7vTYbf/yHbSKNfn3FbOuGjQt3+VSs6dNZvRPqRodVatVZ9Mdy6cemZJv5Mif87e7bVp07bSmzZrRokVLJk6cwLRpU5k+fTpNmqx+8P3dgP7525tt3h2A9997l5f7vsCwoUOZPXsWjRo1YpMuXdlz73048KBDqFZt3fuxqCK+Nlq7fffVp/T/4mMAqteoSc9tVl5q+sfY0cT0TUzaduhc7N0FO2zclfdJ1VH6fXTpS7hutf2ujBjyIwDPPXofnbpsWugywvdf75t/l8LNt9yWjUqwbFKrKsudE38fY6leSYVb935SW/tkrsf5pKwXCyGMAdoAY2OMbUMItYAzSS1F7AjUA8YB7wK3pwOxbNc6mWLuQhhCWP6/2ycxxl1DCI3S/R0GtAeaAp/GGHfNOKc+cACwG7AFqYL19YF5wHjgC+ChGOO3q/0CKN8vP3yTv71w/lwWzp/L1HFj+eHjt2jTrSeH/PVS6hX4q2pBX7zyFFN+H0216jXY/7R/VqopuSMGFP1X3uV335s/Z3axbdtvtmViCpcPfP+1/O2OPbYp174GffouMaZ+Sem05XbUqV/0X1+19hozZkVw2qp162Lbt2rdmokTU0uFxoweVaqQZHnhdoD11luP88/9Bx+8v/KylClTpjBlyid89uknPPl4H+64+z5at96w4KUAmDB+PMOGDc3a3/RpK5ZJDRs2lPoNsi/rbdSoEVtsuVVJP5VyVRFfG60dhg0ayNz0/4VLly5h2pRJDPruawZ99zWQWnZ62jmXrTIDa8IfY/K3m5WgztH6LVrlb4//Y2ypx7vPIUfz7RcfMXLoIMaO+plzTjokdRfCth2oXacO06ZMov+XnzBy6CAAum+1Hf+49Pqs1xs++AfmzJqZ9fj438fkby8P9LJp12kTmq7fYnU+ncSr16ABVatVI2/pUmbPmsHcObOpVz/7++KEjK/tgvnzmD51Mk2arr8mhiqpEjHAqvwyv4bNSS0jzIkQQmvgdaB7gUMdSC1dPCWEcFaM8bEc9deTVP2urIUJQgg1gMlAYWlAw/SjC3BaCOEB4OwY49JcjG9dUatufdptugUt229M/cZNCVWqMGfGNMYMGcivP/aHGBk75Hse+/c5/Pmau7MuCZw09le+fPUZAHY87ASatCj+F6Mk6Xv71SVqN/WPMcW2/dsdT9KoWcX/YDp26A/89Pl7AFSrUZNt9j+y3PqKMTLo03fy9y3evm6bM3tO/nbjjGU82TRs1GjFuXPmZG9YhKnpuk4A991zF2NGj6Z69eocdPCh9NxiS6pVq8aIEcN5ue+LzJo1k5E//8zpp/yZZ194aaX+l/v2m69LfCfAZ556gmeeeiLr8a16bc3DfbIfX5Mq4mujtcNT/7uLX4YPXuX5EAJdNt+Co048ky6bb7HK8Xlz5+Zv12/YqNh+MpeezZ9b+u+5GjVqcuVN/+XJB+7g43dfZcH8ebzd77lV2rXv1IUjTjidntvsSJUq2autPNfnvhLfCfDWa4quwXfWhVez694HlehalUXVqtXYuMvmDPtpIDFGPnv/TfY77NhC2y7Ly+OzD1a+t9S8uXMMsBKmEv0dWmsxA6zK7xdg+Zz/89KPXKgOvEAqvPoBeAr4jVRIdiSwM6kQ6ZEQwswYY78y9rce0A/YEHgPeA2YROruiZn/e1VJ9zsJ+AD4kdSsqwVAY2Ar4Oj09pnAbODiMo5tnbHrMafRsl0nqlarvsqxbfY/kgmjRtD3jmuYPW0ys6ZO4o0Hb+GYi1e9O86yvDzeePAWluUtZf2NOrDtgaveXUhr1qwpk3j57ushPaV/12NOpX6TVe80litjh/7IzMmpWRoN1mtGu023LLe+lHzz568oglyjZs1i29fKaDN/3rxS9Tl79qz87TGjR9OgQUMefKQPXbp0zX9+/wMP4sSTTub0U09m1K+/MH78OO668zauvPraUvVZGVXE10Zrt8brrc9mW2yTtVD6woUZ33PVaxR7vczvywULyvY9V6NGTY488QwaNm7CS0/9j7y8vFXajBo5jFee60PNWrXLdNdDwR77H8awdCmB5/rcR4fOXdm46+YrtVm2bBmP3nvzSjPWIDULS5IKMsCq/J4G/pPePjeEsDHwMPBRjHF6Ga67QfpxD3BejDHzf/i7QwgXAzeSCpQeDCF8FGOcXYb+NgXygBNijE8V0W4JsD/wTly+Nmll/wshXE4qANsOOD+EcG+MsfRzztchrTt1LfJ4y/adOfaS//Dw5WeRt2QJv/74LeN/Hb7KneW+ev05Jo4ZSahShQNOP7/Y+hZJ9K+n3i/y+JPXn89vwwaxUZfNOeGK29bQqEpnwdzZPHfL5cyfPROAzr12ZOt9Dy/XPn/8ZMVfUjfbeR9CEX/FlsrDsmUr1185/6KLVwqvlmvarBk33HQrRx9xCACvvvIy/7zg4lWKvh9y2OEcclj2fzfjxv3B/nvvAcC11/+nyLbS2uD6u/rkby9csIBJ439nwFef8kbfJ3nu0ft4s+9TnPOv3my2RfkuV18dn3/wFg/ecT2LFy2i5zY7csDhx9N+4y7UqFmLaVMmMuDLT3jp6YcZOXQQ//nX2Zx+3uXsus/BhV7r6lseLLKvFx5/gL5Ppu6E+uy7A3L+uVQG2++2D5998CY/DviKhQvmc80Fp7PdLnvTrcdW1K5Tl8kTx/H5h2/z26iRNGjYmCVLFucHVyH4c4OkVfnOUPndAXyZsb8f8CIwLYQwKoTwYgjhohDC1mH1CxANAM4tEF4BEGO8CXg5vbs+cPJqj3xV9xQTXhFjzIsxvpUlvFreZhpwUnq3KnBCWQcWQqgZQmiQ+ViyBu7glkRNW7Vhsx1WFOP+5ftvVjo+ddxYPn85tTSm1z6H0bJ95zU6Pq1s4fy5PHPDpUxN1xxpt+mWHPL3f5V7nyP6f57aCYHuO+9Trv0p+erUWXH3y+V3pSrKwow2derWLVWfdTPOq127DgceWPgvoQCdN9mEzbv3SI1v8WJ++P67UvVZGVXE10Zrn1q1a9Omw8YcccJp3HDfUzRerxlzZs/ixivP47fRv6zctlbG99ySxcVeO/P7snbt0n/PffR2P+658UoWL1rEPocczSXX3cGmPXtRp249qlWrRvOWrTngiOO57s5HqVu/AXl5eTx0Z28LipdBlSpVOO+KG+i1w24A5OXl8fmHb/HAbddxx/WX8vT/7ua3USNp3KQpl1x/x0pLNuvWr19Rw5aUYAZYlVyMcSGwB3ALML/A4XbAEcBNwDfA6BDCuSGEVdeHFe6WooKi9HWXy0UxnbtycA0AYoy/ABPTu9vm4JKXAbMyH6/3uTcHl62c2nTtkb89dfyKyW1x2TLeePAW8pYsoWGzFux85MlrfnDKt3D+XJ694VImjk7dZaxNt54cecG1VCvBko2yGPrlRyxNB7xtu/ag0foty7U/JV/9Bit+EZkxc0ax7WfNnLni3FL+EtMgo4h6p403pnqNor/vu3bbNH/7999+L1WflVFFfG20dlu/ZSuOO/VsAJYuWcLLTz+80vG6GbMbiyqCvtzcjOXAdeqV7ntu8eJFPP3w3en+6/OnU8/J2naD1m048IjjgdTdlN999YVS9amU2nXqcsHVN3P5Dfey4+77sX6LVtSoWZNateuwUbuOHHHC6dz84HO06dCZBeklzSGEVYr/SxK4hHCtkA6xLgoh9AYOBfYiFdq0K9C0DakZW8eFEA5Iz1QqStFrqFKh2BxSdwDcMoRQpZjAqyjjY4yjSto4hLABcCKp8K4rqZpXdbI0z0X18P8AK60TO/Dkv8/K0natVyfjttOLMmqgTP59NON+Sd16ulmrNnz7Vt9Cz1+UUddg0fx5fP7yk/n72x54dLkHLOuC5eHV+F+HA6nQ8egLrqN6jeJr3JRV5vLB7hZvF9C2bTvG/fEHAOP++INWrYp+W17eFqBtu/al67Nde775+iuAVZYDFqZ+Rpt58+YW0XLtUhFfG639evTaIX97aIFC5y1bt83fnjJxfLHXmjxxXP72Bq3blGo8I4f9lB+WbdytOzVrFX1n4M233Jbn+vwXoNBC9Vp9m22xTZHLSX8b/QvLlqUWfbRstRF16hb/vq01q0oVq7ir4hlgrUVijDOAR9MPQgjLi5rvBhzPirv7bUOqdlZR63pmFBdwxRhjCOFXoAep8KgRUNq6W38U3yQlhHAmqTApW2BVUPZ79pZQjHERsNLaiscGrDt/oS9o/pwV2V3NzCUkcUXNmV9++IZfflh5eWFhFs6fy6cv9snf32rvQw2wyqhgeLVRl805+sLrqV6z6B/Yc2Hy76OZMCo146tW3fp03mrHcu9Tydep08Z88flnAAwZ/BNbb5N9Yuy0qVOZODF1A4Am661HkyaF3+m0OJ07r6jNN3du8YHUnIw29Uo5y6MyqoivjdZ+tWuv+BFt3tyVS6S2btOOUKUKcdkyxvw6gmV5eUXWyvz156Erzm3boVTjmTFtav52nTrFByOZM70yi86r/Az9cUWdsE02W/XulZIELiFcq8UYZ8QY34sx/gvoCNyXcXjvEMIOWU4FKOmtPzLbleUn/gUlaRRCOAq4nxXh1VfADaTuOHgscFjGY/k91CtfBfGEGzv0h/zt9VpuWHED0SoKhlcbdt6Moy/8vzUSXgH8+PGK2VfddtidasUs29K6Yfsdd8rf/vyzT4ts+9lnn+Rv77jTLqXuc8eddmZ56ceRP//MksVF19oZOmTFLIu27QpOYF57VcTXRmu/ieN+y99u0LDxSsdq16lL567dgdSd5oYP+SHrdZYtW8agAV/n7/fotX2pxpMZqE2bMqnY9lMnTcjfrpcx61zlI8bIx+++lr+/+36HVOBoJCWZM7DWETHGJSGEc4FdSS25g9RSwy+ynFLSKpmZ7eaUbnSrpXf6Yx5wWIzxtWwNQwgPrYHxrHOmTfiDwZ+vWF3aseeKv9Y3b9ux2Lv3AcycMpH7zkvV1m/YtDl/v7PI2v2JlMQ7Dy6aP2+V8OqYi3tTo1btNdJ/3tIlDP7ig/z9Hru4fFApW/XamqZNmzF16hQG9P+WYUOH0KVrt1Xa5eXl8fSTT+Tv77vf/qXus3mLFmy5VS8G9P+WBQvm8/rrr3LY4YWXaxwxfDiDfvwBSBV/79Fz9f/636pVa34cMqLU460oFfG10drvvTdWlBDYuFv3VY5vv+veDB/8PQBvvPgkXTffstDrDPjy4/wlhJ26bMb6LTYo1Xg2zJi5NXLYICZPGMf6LVtlbf/ZByv+GNOx86r/HkriqJPO5KiTzizVueua99/oy5hfUu+fXTbfgo6bbFrMGZLWVc7AWofEGJcCH2c8VVRl5cYhhCLXBqTvari8AMZ8YGZZxlecEEI7UjPJAF4pJrxqALi2YTX0f/tl/vh5SJFtJo4ZybM3XsrS9F2D2m22Ja06din3sfU+fs/8x8wpE4s/YR20aMF8nr3pspyFV6/df1P+a/5p38dKdM7P333FgvTy0hZtO9G8bcdiztC6omrVqpz517/l719+2SVMm7bqKvU7b7+FEcNTdfR69NyCHTJmB2Xq9/JLdO/Wme7dOnPqySdm7fec887P377t5psYNmzoKm2mTZ3KZZdcmL//p+NPpFYx9XEqi5K8Trn+2mjt9d7rLzLkhwHEjHIBBS3Ly6Pfs31477UX85/b+6BVg+Nd9z2Ypuu3AOC7rz/jnVefX6XNhHG/8cg9N+bvH/3ns7L2e/aJB3Hs3ltx7N5bMSRjKdpy67dsRaeumwOpMPaO/7uM2VluWvD+63359L3XgVQx8Z33PCBrv+uyj999Lf81v+bCM7K2Gznsp6wzYGOMvP/GS/S592YAataqzZnnX1Uu45W0dnAG1rpnScZ2cUVB9gKeK+L41qyoLzWgDAXcS6pFxvYvWVul7IMB7WoZO/R73nviXho334C23bag2YZtqV2vAaFKFebOmMaYId/z6w/fsvzL3LBpcw4886IKHvXKvnnjBRbMyz4R8OPnH1lpv3bd+mxzwFGFth0xINvkxNXXfrMtsy7hy9WYn7vpMsaNTP1yXqtufXrufgCjBw9cpd3qjG11Dfrk7fzt7rvum5Nrau1x+JFH88EH7/P1l1/w6y8jOfrwQzj8yKNo36Ejs2fN5K033+D7gd8BUL9BA67897Vl7rN7j56ccurpPPrwQ8yePYsTjzuagw85jJ5bbEm1atUYPnwYL/d9kVnp4s7dum3K6Wf9rdBrTRg/vtAArDQaNWrEFltuVeixP/74nVf6vrjScz//vGJm1/BhQ7nnzttXOt5rm23ZZtvtSj2eivjaqPIZOWwwD991A+s1a85mW2zDRu060qBRE6pVq8b8eXP5fcyvDPjyE6ZMWlGY/ZBjTyl0dlWNGjU58/wrueGKc8lbupRH77mJH/t/xZbb7UzNWrUZ/ctwPnrrFeanb6iw+36HFVkAvCRO/tuFXHPB6SxetIhRPw/ln6cewU577E/7TptQo2Ytpk2ZRP8vPs6fGQaw76HH0q7TJoVeb/jgH0p0F8WSaNdpk/xAr6BvP/+Q0SOHr/RcZvH7j97ux+CB3650/MCjTqRuIbX8Jk8Yx0dv91vpud9Gj8zfHvPrCJ579L6Vjnfr0YtNe/Yq2SdSiJeefpifh/xI917b02HjrjRpuj5Llyxh0oQ/+PaLj/htVKr/GjVr8s8rb6TFBrm495LKQ7CGuxLAAKuSCyE0jzEWv5g/1bY6kLmm56diTjk/hPB8zP6ntgsztl/M0iaXMuttZZ3aEUKoAVxR/sNZO82YNJ4Zk4q+K1D7zbfigDMupH7jpmtoVCUz4N1XmDU1+z+HL/s9vdJ+w6bNswZYfW+/Omfj+tsdT9KoWeE/mOZqzJmz5xbOm8Or/72hzGNbHXOmT2XUoNRfvatVr0G37fco8zW1dqlWrRq33XEXl150IZ9+8hFTp07hwfvvW6Vd8xYtuOmW2+nYsVNO+j3v/AupWrUqjz78EEuWLKHvi8/T98VVZ3tsv8OO3HjzbdSsWfidOr/95muuuuKynIxpq15b83CfJwo9NmH8eB568P6s5/7884iVAi2AqtWqlSnAqqivjSqnaVMm8fE7rxbZpk7dehz7l7MLnX213GZbbMO5//oPD9x2LfPmzmHgN58x8JvPVmm3+36Hcdo5l5Z53B027sol19/JvTdezfSpk5g3ZzZvv/JsoW1DlSoceOQJHPeXs7Ne77k+9zFsUPF/KCqJsy68ml33PqjQYwO++jR/RlhhPs9Y7rjcbvsdWmiANWXyBF5+5pFVnl/ut1Ej8wOl5apUrVqmAAtg3tw5fPnRO3z50TuFHm/dpj2nn3c5nQtZbipJmQywKr8BIYQPgAdijF9laxRCqEeq+PnG6admAUX/9JGaYXV7COH8grOrQgjnA8t/KpkMlGyNUdkMJzVrrB5wcAhhu4Kfcwihdnosm6+B8axV9jj+LDpusR3jfxnG5N9GMW/2TBbMmcXSJUuoWacujZo1p1XHrnTbYY81smxQlcugT9/Jn53XudeO1PL21ypE3br1uPu++/now/d5rV8/hgz+ienTp1G3bl1ab7gRe+y5F0cefSz16+f2LoD/OPef7L3Pfrz80ot8/dUXTJ40iaVLl9KkyXp079GTgw45ZJ0vSl5RXxtVHif/7UK22m4Xhv00kDG/jmDS+HHMmT2TvKVLqVW7Ng0bN2Gjdp3ovtV2bLvzntQpwf8DW++4G526bMZ7r7/IwK8/ZcqkCSxevJjGTZrSedPu7LbvIVnrY5VGt+5bcdvDL/Llx+8w8OvPGDPqZ+bMnMHSpUuoU7cezTfYkC6b9WS3fQ9hgw3b5qzfddnRfz6Ljp27MXTQQKZMHM+sGdMgBBo2bkL7Tl3otcOubLvznlSt6q+lkooXilrHruQLIUwEmqd3xwKfAD+QCpUWAesBPYHDgWbpdhE4Ocb4eCHXGwO0AcYDvwHbAt8DTwG/A+uTCq52ybjWYTHGfoVc62Tg0fTuKTHGPoW0Wf4N+EmMcdcSfL43Ahend5cAfYBvSc3O6gr8GdgQ+ADoDLQGxsYY2xZyrX8Dy6fZ7BZj/Li4/jM9NuB3//FIAuCYHt6NU9IKw8atifvaSKoserapX+kX4HW7/N115nefIf+3d6X/eq2tjLorvx9J1aoKpIKnk9KPbCYC/4gxFrfkbwmpoOoNUgFYz0LaLALOKiy8KkdXkppdtS9QHTg9/cj0CXAM8N0aHJckSZIkrZWCRbCUAAZYlVyMcZ8QwgbA3sAOwKZAO6ARUJXUkrtxwCDgTeDlGOO8wq+2yrXHhRC2Bc4EjgU6kVq+Nw54F7gtxjiyiEvkXIxxcQjhAOBkUrOtugO1gSmkano9AzwZY1zmm6wkSZIkSWsHlxBqJRlLCAtddqcVXEIoaTmXEErK5BJCSZnWhiWEm17x3jrzu8/g6/eq9F+vtVWVih6AJEmSJEmSVBQDLEmSJEmSJCWaNbAkSZIkSVJWlhdWEjgDS5IkSZIkSYlmgCVJkiRJkqREcwmhVuKdByVJkiRJUtIYYEmSJEmSpKyCRbCUAC4hlCRJkiRJUqIZYEmSJEmSJCnRDLAkSZIkSZKUaAZYkiRJkiRJSjSLuEuSJEmSpKws4q4kcAaWJEmSJEmSEs0AS5IkSZIkSYlmgCVJkiRJkqREswaWJEmSJEnKyhJYSgJnYEmSJEmSJCnRDLAkSZIkSZKUaAZYkiRJkiRJpRRCqBpC2DSEcHII4e4QwlchhPkhhJh+9CnFNTuGEG4OIQwOIcwKIcwNIYwIIdwbQuixmteqGUL4awjhwxDChBDCohDCHyGEN0IIJ4QQKkU2ZA0sSZIkSZKk0nseODxXFwshnAHcAdQucGjj9OPMEMK1McZrS3CtTYC+QNcCh1qlH/unr3dkjHFSWcdengywJEmSJElSVsEq7sWpWmB/OjAN6LS6FwohnAA8kN5dBjwLfAAsBXYA/gzUBK4JISyKMd5YxLVaAu8AG6WfGgQ8BowH2gOnpj/uCLwRQtglxjhvdce8phhgSZIkSZIkld63wDDgO+C7GOPoEMLJwKOrc5EQQjPg3vTuMuCwGOOrGU0eDyE8SirQqgNcH0J4JcY4Isslb2NFePUscGKMcWlGf3cBrwO7AFsClwJXrs6Y16RKsc5RkiRJkiQpiWKMvWOMl8UYX4wxji7DpS4EGqS37y0QXi3v62tWhEzVgKsLu1AIoStwTHp3AnB6ZniVvtZc4HhgYfqp80MIjcow/nJlgCVJkiRJklTxjsnYvr2Idg8By5f6HRxCKFgra/m1lq/9fDAdVq0ixjiOVA0vSM3qOqTkw12zDLAkSZIkSZIqUHrGVJv07rCiZnLFGOcAn6V365JaAljQfhnbbxbTfebx/bK2qmAGWJIkSZIkKasQ1p1HBdosY7t/Cdpntsk8l5Cqut8tvZsHfF/aayWJAZYkSZIkSVLF6pyxXZI6WpltOhc4tiGp5YAAf8QYlxRzrd9JBV0AnUJCbzvpXQglSZIkSZKAEEJNoGaBpxfFGBeVc9eNMranlqD9tCznrva1YoxLQgizgcZAdVLLEgutmVWRnIElSZIkSZKUchkwq8DjsjXQb72M7YVZW62wIGO7fhmvVdz1EsEZWJIkSZIkKauErigrL/8BbivwXHnPvlIJGGBJkiRJkiQB6aWCFRFYZS7Zq1WC9rUztueU8VrFXS8RXEIoSZIkSZJUsWZmbDctQfv1spy72tcKIVQDGqR3lwDzStD/GmeAJUmSJEmSVLFGZGy3K0H7zDYjChz7HZif3m4dQqhezLU2Aqqmt0fGGGMJ+l/jDLAkSZIkSZIq1k8Z271K0D6zzeDMA+kAakh6tyrQs7TXShIDLEmSJEmSlFUI686josQYhwK/pXe7hBDaZmsbQqgH7JTenQ98UkiztzO29yum+/0ztt8spm2FMcCSJEmSJEmqeM9lbJ9fRLszgLrp7VdjjPMLaZN5rTNDCHULaUMIoRVwdHp3AdCvhGNd4wywJEmSJEmSKt4trLgD4N9DCAcXbBBC2Aa4Lr27FLimsAvFGIcAz6d3WwIPpYu1Z16rHvAUK+5UeFuMcWZZPoHyVK34JpIkSZIkSSpMCKEdcGqBpzfP2O4ZQri+wPEPY4wfZj4RY5wcQvgH0IfUhKOXQwjPAu8BecAOwJ9ZEThdHWMcXsTQzge2B1oDxwHdQgh9gPFAe+C09EeAH4AbivxEK5gBliRJkiRJyipUZHGoyqENcHkRxzdn5UALUrOnPizYMMb4WAihDnAbqaDqT+lHpjzg/2KMvYsaVIxxXAhhH6AvsEl6DLcV0vRL4IgY49yirlfRDLAkSZIkSZISIsb43xDC+8BZwL7AhqRmZI0HPgAejDF+X8JrDQ0h9CQ1Q+woUkFWY2AqMAh4Gngqxrgs559IjhlgSZIkSZIklVKM8WMgp9PUYowjgQvSj7JeayFwb/pRaVnEXZIkSZIkSYlmgCVJkiRJkqREcwmhJEmSJEnKyhruSgJnYEmSJEmSJCnRDLAkSZIkSZKUaAZYkiRJkiRJSjRrYEmSJEmSpKyCRbCUAM7AkiRJkiRJUqIZYEmSJEmSJCnRDLAkSZIkSZKUaAZYkiRJkiRJSjSLuEuSJEmSpKys4a4kcAaWJEmSJEmSEs0AS5IkSZIkSYlmgCVJkiRJkqREM8CSJEmSJElSolnEXZIkSZIkZRWs4q4EcAaWJEmSJEmSEs0AS5IkSZIkSYlmgCVJkiRJkqREswaWJEmSJEnKyhJYSgJnYEmSJEmSJCnRDLAkSZIkSZKUaAZYkiRJkiRJSjQDLEmSJEmSJCWaRdwlSZIkSVJWwSruSgBnYEmSJEmSJCnRDLAkSZIkSZKUaAZYkiRJkiRJSjRrYEmSJEmSpKwsgaUkcAaWJEmSJEmSEs0AS5IkSZIkSYlmgCVJkiRJkqREM8CSJEmSJElSolnEXZIkSZIkZRWs4q4EcAaWJEmSJEmSEs0AS5IkSZIkSYlmgCVJkiRJkqREswaWJEmSJEnKyhpYSgJnYEmSJEmSJCnRDLAkSZIkSZKUaAZYkiRJkiRJSjQDLEmSJEmSJCWaRdwlSZIkSVJW1nBXEjgDS5IkSZIkSYlmgCVJkiRJkqREM8CSJEmSJElSohlgSZIkSZIkKdEs4i5JkiRJkrIKVnFXAjgDS5IkSZIkSYlmgCVJkiRJkqREM8CSJEmSJElSolkDS5IkSZIkZWUJLCWBM7AkSZIkSZKUaAZYkiRJkiRJSjQDLEmSJEmSJCWaAZYkSZIkSZISzSLukiRJkiQpq2AVdyWAM7AkSZIkSZKUaAZYkiRJkiRJSjQDLEmSJEmSJCWaNbAkSZIkSVJWlsBSEjgDS5IkSZIkSYlmgCVJkiRJkqREM8CSJEmSJElSohlgSZIkSZIkKdEs4i5JkiRJkrKqYhV3JYAzsCRJkiRJkpRoBliSJEmSJElKNAMsSZIkSZIkJZo1sCRJkiRJUlaWwFISOANLkiRJkiRJiWaAJUmSJEmSpEQzwJIkSZIkSVKiGWBJkiRJkiQp0SziLkmSJEmSsgpWcVcCGGBJpXRMjw0regiSEmLJ0mUVPQRJCVKvlj9iS5KUay4hlCRJkiRJUqIZYEmSJEmSJCnRDLAkSZIkSZKUaC7QlyRJkiRJWVWxhrsSwBlYkiRJkiRJSjQDLEmSJEmSJCWaAZYkSZIkSZISzRpYkiRJkiQpqxAsgqWK5wwsSZIkSZIkJZoBliRJkiRJkhLNAEuSJEmSJEmJZoAlSZIkSZKkRLOIuyRJkiRJysoa7koCZ2BJkiRJkiQp0QywJEmSJEmSlGgGWJIkSZIkSUo0a2BJkiRJkqSsAhbBUsVzBpYkSZIkSZISzQBLkiRJkiRJiWaAJUmSJEmSpEQzwJIkSZIkSVKiWcRdkiRJkiRlVcUa7koAZ2BJkiRJkiQp0QywJEmSJEmSlGgGWJIkSZIkSUo0a2BJkiRJkqSsQrAIliqeM7AkSZIkSZKUaAZYkiRJkiRJSjQDLEmSJEmSJCWaAZYkSZIkSZISzSLukiRJkiQpK2u4KwmcgSVJkiRJkqREM8CSJEmSJElSohlgSZIkSZIkKdEMsCRJkiRJkpRoFnGXJEmSJElZVbGKuxLAGViSJEmSJElKNAMsSZIkSZIkJZoBliRJkiRJkhLNGliSJEmSJCkrS2ApCZyBJUmSJEmSpEQzwJIkSZIkSVKiGWBJkiRJkiQp0QywJEmSJEmSlGgWcZckSZIkSVkFq7grAZyBJUmSJEmSpEQzwJIkSZIkSVKiGWBJkiRJkiQp0ayBJUmSJEmSsrIElpLAGViSJEmSJElKNAMsSZIkSZIkJZoBliRJkiRJkhLNAEuSJEmSJEmJZhF3SZIkSZKUVRWruCsBnIElSZIkSZKkRDPAkiRJkiRJUqIZYEmSJEmSJCnRrIElSZIkSZKysgKWksAZWJIkSZIkSUq0Us3ACiFcleuBLBdjvLa8ri1JkiRJkqTKp7RLCP8NxByOI5MBliRJkiRJkvKVpQZWeSyDLa9QTJIkSZIkSZVUaQOs3XI6CkmSJEmSlEghWMa9JEIIbYFTSWUmmwANgUXAZOAH4CXguRjjkhJcqyVwJnAQ0BaoDUwAPgMeiTF+mvNPIOFKFWDFGD/J9UAkSZIkSZIqoxDC+UBvoGaBQ9WAdunHYcAVIYQjY4yDi7jWIcCjQOMCh9qnH38OITwA/D3GmJejTyHxyrKEUJIkSZIkaZ0WQjgbuDXjqS+BV4HfgQZAN+BkoB7QGfgohLBZjHFiIdfaDXgeqJF+6o30teYBW5Ca4dWQ1OysCPw1959RMhlgSZIkSZIklUIIoTapmVfLnR5j/F8h7a4FPgA2A5oCFwPnF2hTE3iEFeHVP2KM92Q0eSo98+oToAVwVgjhhRjjh7n6fJKsSnl3EEKoHkLYOISwbQhh5/LuT5IkSZIkaQ3ZAaif3u5fWHgFEGOcAlyW8VRh+chfSNW7AnitQHi1/Do/A3/PeOr61R1wZVVuM7BCCLsDFwC7ArXST8eCfYYQ/gb0AP6IMV5bXuORJEmSJEmrr4o13Iuyfsb2yGLaZh6vV8jxYzO2byviOq8AY0iFXduFENrEGMcW03ell/MZWCGEKiGE/wLvAfuSqpQfMh4FTQFOA64KIbTJ9XgkSZIkSZLKyeSM7Y2LaZt5fEjmgRBCfWDH9O4cUncbLFSMcRnwdsZT+xU/zMqvPJYQ3kGqmFgg9aI/Q+pWkdm8AsxOtz+oHMYjSZIkSZJUHj4Hpqa3twohnFZYoxBCM1bUylrGqjOsurIio/m+BHcX7J+xvVnJh1t55TTACiFsCZxNaqngh0D7GOPxwBPZzokxLgHeJxVg7ZLL8UiSJEmSJJWXGONC4Cxgafqph0IIn4cQLg4hHBdCODOEcDfwK6mgaS7wpxjjFwUu1Tlje3QJus5s0zlrq7VIrmtgnZn+OAk4LMY4p4TnDQQOJ5U4SpIkSZKkhAhh3SmClb4TYM0CTy+KMS7Kdk6MsW8IYU/gXqAbqcLuOxRotgT4P+CBGOPvhVymUcb21EKOFzQty7lrrVwvIdyZ1OyrPqsRXgEs/+K1yvF4JEmSJEmSSuoyYFaBx2VFnpHyKakVad9nOV6d1N0Dzw8h1C7keGZR94Ul6G9Bxnb9rK3WIrkOsJYHUINW87z56Y91cjgWSZIkSZKk1fEfoGGBx3+KOiGE0BT4APiI1J0B/wl0AGqQmh21B/Bmevs84OMQwnrlMPa1Wq6XEC6fV7hsNc9rkP64OrO2JEmSJEmScia9VDDrcsGCQgh1SN0xcBNgBrBNjHFkRpNZpGqEfxhCuIfULKytgbuBP2W0m5uxXasEXWfO4lonspRcz8Cakv7YZjXP657+OD6HY5EkSZIkSSpPfyMVXgHcUiC8KugSYGZ6+5gQQouMYzMztpuWoN/MGVwzszVam+Q6wOpPahbWASU9IYRQDTiSVO2sL3M8HkmSJEmSVAYhrDuPUjgwY/vdohrGGOexIveoAvTKODwiY7tdCfrNbDMia6u1SK4DrFfSH3cKIexfwnOuAzZIb7+Q4/FIkiRJkiSVlw0ytmeVoP3MjO3Mwu1DWVGOqWcIoWox18kMvwaXoN9KL9cB1rOkkr8APBdCOC5bwxBCsxDCf4GLSc2++ibG+H6OxyNJkiRJklReMutPbViC9pkll6Yt34gxzgG+SO/WB3bMdoEQQhVgn4yn3ipBv5VeTgOsGOMy4ChSX8C6wJMhhN+Afy1vE0J4IYTwNTAOOINU2DUTOD6XY5EkSZIkSSpnP2VsF5lrhBA6Atukd5cBAwo0eTZj+4IiLnUoK5YQfh1jHFPsKNcCuZ6BRYxxMLArMJpUONUa2IrULCuAw0lNdauWPj4G2CXGODrXY5EkSZIkSWUTQlhnHqXwdMb2KSGEU7O8hi2A50llIQCvxxinF2j2CPBbevugEMLfC7lOJ+DejKeuLM2gK6NqxTdZfTHG70MImwKnAycBPVg1LBsCPAbcG2NcUB7jkCRJkiRJKi8xxndDCC+SujldAP4XQjgR6Af8AdQmNannRKBR+rRpFDLDKsa4MB2AvQlUB+4JIewLvArMA7YATgMapk95aF0qxVQuARZAOpS6C7grhFCf1FrQRsBcYFyMcVoRp0uSJEmSJFUGJwCzgb+k93dJPwozAjg2xvhLYQdjjO+HEI4hNRurEam7HB5YSNOHgL+WYcyVTrkFWJnSxciGrom+JEmSJEmS1pQY4yLg1BDC3cDJwA5Ae6ABsBiYDHwHvAI8H2NcXMz1Xk7XDv8rcBDQFqgFTAA+Bx6OMX5SHp9Lkq2RAEuSJEmSJGltFmP8ATgvR9eaAFyVfog1EGCFENoCWwMbkLoV5BxgPPBNjHFsefcvSZIkSZJKr0qpaptLuVVuAVYI4WjgYqBnEW0GAjfGGF8sr3FIkiRJkiSpcit4Z8AyCyFUDyG8ADxDKrwKRTy2AJ4LITwfQqiR67FIkiRJkiSp8iuPGVjPAYdm7I8A3gdGkrrtY12gI7AnsEm6zRFA1fRHSZIkSZIkKV9OA6wQwuGkwqsITAVOizG+VkT7A4D/Ac2BQ0MIh8UYX87lmCRJkiRJUumFYBEsVbxcLyH8S/rjImC3osIrgBjjG8AewML0U6fleDySJEmSJEmq5HIdYG1FavbVYzHGoSU5Id2uD6maWFvmeDySJEmSJEmq5HIdYDVMf/xiNc/7ssD5kiRJkiRJEpD7AGtS+mPeap63vP2kIltJkiRJkiRpnZPrAOvb9MctVvO85e2/zuFYJEmSJElSGYV16KHkynWAdT+pr/mpIYSWJTkh3e5UUrWzHsjxeCRJkiRJklTJ5TTAijF+CNwONAI+DCFsVlT7EMKmwAfp9rfGGD/K5XgkSZIkSZJU+VUrzUkhhJ2LONwPaAMcDgwMIbwLvA+MBOYBdYGOwF7pR1XgReD1EMLOMcZPSzMmSZIkSZIkrZ1KFWABH5Na8leUSCqc2jf9KExItzsi/YhlGJMkSZIkSZLWQmUJi0pa36y4dtZJkyRJkiQpoaoEf21XxSttgHVNTkchSZIkSZIkZVGqACvGaIAlSZIkSZKkNSKndyGUJEmSJEmScs2C6ZIkSZIkKStLYCkJnIElSZIkSZKkRDPAkiRJkiRJUqKV2xLCEML2wJ+BbYHWQAOKD8xijNFljZIkSZIkScqX87AohFAHeAQ4avlTue5DkiRJkiRJ647ymO30FHAwqeBqHvATqVlYERgKLADaAk3T7SPwXbqtJEmSJElKkGAVdyVATmtghRD2BA5J774CbBBj3D6jyeUxxq1jjOsD2wBvkwq6agInxxh3y+V4JEmSJEmSVPnluoj7SemPE4A/xRjnZGsYY+wfY9wfuBPYDHglhFAjx+ORJEmSJElSJZfrAGv5UsHnYowLCzle2LzDC4DhwObAX3I8HkmSJEmSJFVyuQ6wWqQ/DirwfEx/rFnwhBjjMuBJUuHW0TkejyRJkiRJKoMQ1p2HkivXAVat9MfZBZ5fXqC9cZbzfkl/7Jzj8UiSJEmSJKmSy3WANTP9sU6B56elP3bMct7yYGu9HI9HkiRJkiRJlVyuA6yR6Y9tCjw/mNQSwT2znLdL+mPBmVuSJEmSJElax1XL8fUGANsBPQs8/zZwALB5COHMGOMDyw+EEA4HjiFVJ2tAjscjKQE+/vADXn+tH0MGD2bq1CnUrVePjTZqw+577MmRRx9LvXr1ctrfuHF/8HLfF+n/7TeMGT2KuXPnUr16DZqs14TOm3Rhjz33Yp9996d69eo57bc0YoyMHTuGoYMHM3ToEIalH/PmpVZeb9Vrax7u88QaG89/772b+++7J3//4EMO47reN6yx/rX2OuPUkxg4oH+J27/65vts0KpVTvr+5OMPefP1Vxk65CemTZ1K3br12HCjjdh19z05/Mhjcv4eVFoV+RpB5XmdlGzz58/j+2+/YtD3/fn152GM/+N35s2dQ42aNVmvaTM6ddmUXffcjy223p5QTLGZ6VOnMHLEUH7JfwxjxvSp+cdf//SHcvkcFi9axGcfvsOXn37IqF9GMHvmDPLyllK3Xn1ab9SO7ltuzV77H0qz5i2Kv9gatmjRQj557y2+/vxjxo4aycwZ06larRqNGjdhg9YbsXnPXmyz46602rDgfIPVt2zZMr769EM+/+hdfvk59bVZsngJderWZYPWG9Gt+xbstf+hbNimXQ4+M0mCEGMsvlVJLxbCwcArwAxg/RhjXvr5RqRmZzVJN/2OVN2rjsCWpGZnReCIGOMrORuQVI4WLiV3/3jWUvPnzeOySy7k448+zNqmRYuW3HzbHWzevUdO+ny8z6PcfedtLF68uMh2bdu145bb76JTp41z0m9p3XLTDTzx2KNZj6/JAOvnEcM57ugjWbp0Sf5zBlgls2TpsooeQuJVRDgzf/48rrjsYj79OPt7UPMWLbnh5tvYbPMeZeorFyoqwKpsr1NlMHHWoooeQoV4+bkneOKhe1i8uPjPv9vmW3DBlf/H+s1bFnr8my8+4brLzi3yGuURYI0aOZwbrr6Y8X/8VmS7GjVqcvJZ53LwkX/K+RhKq/9Xn3Lfbf9hyqQJRbY7+Mg/ccY5F5epr8kTx9P7ygv5ZcTQIttVqVqVw4/9M38+4x/FBpZrs07Na1f6T/6vfYeuM7/7/PeIrpX+67W2yvUMrHeAMUBtUssF3wGIMc4MIZwGvJDuc8v0A1LhFcAjhlfS2iMvL48Lzz+XLz7/DID11mvK4UceRYcOHZk1axZvvfk6P3w/kIkTJ/D3s87gsSefoX2HDmXq85mnnuTWm1eELT169GSX3XanRYuWzJ03l19/+YVXX3mJ+fPnM2b0aE4/5SRefPk1mjZrVqZ+y2JZXt5K+3Xr1qV5i5aM+vWXLGeUj6VLl3L1lf9i6dIl1K5dhwUL5q/R/rVuueX2u4tt06RJk2LbFCUvL49LL/wnX36x4j3o0MOPpF2HjsyeNZN33nqTH38YyKSJEzj372fx8GNP0a592d6DcmlNvEZQ+V8nJcu438fmh1frNVufHltuQ8fOXWnYqAlLFi9i+NCf+PjdN1iwYD5DBg3ksnNO49b7n6BR41W/l5ctW/n/x2rVqtGmXUd+HTm83MY/ZdJE/nXeGcydk6pq0qhxE/bY92BabdiG6jVqMGnCeD794C1+GzOKxYsX8eBdN1GzVi32OfDwchtTSb335ivcfdO1LFu2jBACPXttR48tt2G9ZutDCMyYNoVfRgzju2++KHNf8+fP47JzT2fShHEA1K5Tlz33O5iN2nagdp06TJ08ia8+/4gRQwaxLC+PF596hKpVqnDi6WeXuW9J67acBlgxxkVA+yzH+oUQdgGuJVXzannfPwN3xBjvz+VYkiaEMIZUbbCxMca2hRw/GVg+DeOUGGOf1b1GRQshLE/lP4kx7lqRYymJyjbeyualvi/kh1ftO3Tkf488xnpNm+YfP/ZPx3PrzTfyeJ9HmD17FtddcxWPPv5UqftbuHAhd995W/7+1ddcz+FHHrVKuzP/+nfOOPXPjPz5Z2bMmMGjj/yPiy65rFR9du+WunHqWX87m7/+/R+lukb7Dh054aST6dZtU7p260abtu0Y0P9bTjvlpFJdr7Qee/Rhhg4ZQt26dfnzKady3z13rdH+tW7ZdfdsJTFz55WXXswPZdq378B//9eH9dZb8R509LHHc8etN/Hk448ye/Ysel93NQ89+mSp+ho/bhwH75/6nK6+tjcHHXJYmce/Jl4jWLOvk9Z+y4OTw489ie5bbkOVKiuX291jv4M56vhTuOrCv/HHb2OYNGEcfR64k/MuvWaVazVq1IR9Djqcjht3pWPnLrTtsDHVq1fnwJ17lNv4n+nzQH541bPXdlz+f7dRq1btldocc9JpPPG/e3j+iYcBePzBu9lz34OpWm31f626vfeVfPD2a6zfoiWPPP9Wqcc99Kfv88OrZs1bcvn1t9Kxc9dC2+bl5TFzxrRCj5XUqy88nR9eteu4Mf93+4M0aNhopTZHHn8Kb/V7kXtvvR6Avs/04ZCjT1ilnSStjlwXcS9SjPGrGONepO5SuAHQMMa4SVLDqxBCLOWjUUWPPRdCCP9OP06u6LGocsnLy+OBjDpKvW+4aaXwarnzzr+Qzpt0AWDgdwP48ovPS93nD98PzK8b1W3TzQoNryA1Y+Gc8y7I3x/4XcmX65SHI48+hosuuYz9DzyItu3aV8j0+tGjfs2ve/WPc8+nRYvCl3NIlUVeXh4PPXBv/v61vW9cKZRZ7h/nXcDGnVPvQd8P/I6vvyz7zITKxNdJuXbS6Wdz3a3/pWev7VYJr5Zbv8UGXPzvG/P3P/vwHRYuXLBKuy6b9eAfF13FfoccSadNuq2RupXffbvie/v0f1y4SngFqZDu+L/8jUZNUjdPnzVzBr//Nqbcx5bN0qVLuL33VSxbtozatevQ+44Hs4ZXAFWrVmW9puuXqc+BGa/TSaf/I2solfradU2PcynDhwwqU7+StEYDrOVijEtjjBNjjHMqon+V2NXpx8kVPA5VMt8N6M+UKVOAVA2nLl27FdquatWq/OmEE/P333rzjVL3OX3air8mtmlTdGHSjTKOz5+/bi+VW7ZsGVdfeTmLFy+me4+eHHNccmp5SKX1/XcDmJp+D9piq15s0iX7e9Cxfzohf/+dt0r/HlQZ+Top1+o3aFiidu07dqb1Rm0BWLRwIRPG/V6Ooyq5WTOm529v0HqjrO2qVq1Ki5Yr6s8trMBl91988kH+63foMSfQstWG5d7nzBK+TgWPW56gcgth3XkouXJdA2tttjrrAeaVxwCSuGwwU4zRf+4C4IvPPs3f3nGnnYtsu+OOK45nnre6mqy3Xv722DFjimybebxDh06l7nNt8NQTj/PjD99TvXp1rrrmuqx/MZcqky++WPFessOORb8Hbb/jTvnby5fSrSt8nVSRatepm7+9eFEyit43bNyEaVMmA6l6Xm3adSy0XV5eHhPH/wFA1arV8sO4ivDeGy/nb++294FrpM9GjZvkF7kf/8fYIu9oOO73FcXw27S1fp6ksjHAKiELzEslN3Lkz/nb3TbdrMi2TZs1o0WLlkycOIFp06Yyffr0UhUm7rnFljRu3JgZM2YwZMhgXnrxhUKXEU6fPj2/VlaVKlU48c8nr3Zfa4vff/uNe+6+A4C/nHYGHTuu22Ge1pzzzj6LEcOHMWPGDGrXrk2zZs3YvEdP9t3vQLbaepsyX//XkSPzt7t1K+Y9qGkzmrdoyaT0e9CM6dNpnIPi6GVV3q8RrB2vkyqnJUuWMP6Psfn72e5EuKZtu+NuvPHycwD87+5buLz37assI4wx8uTD9+bPQtpr/0OoV7/BGh8rQN7SpQwb/CMADRo2YoPWGzF96hReffFpvvniEyZPGk/VqtVoun5zum+xNQcefmyRYVNJbbvjbgz96QcAHn/oHjp33bzQZYRv9Xsx/y6FPXttR9t1/I+GksquVAFWCKHouaJlEGMs+p61khJvzJjR+dutWrcutn2r1q2ZODF1y+cxo0eVKsCqWbMmV1x1DZdcdD5Lly7lmquvoN8rL7Frxl0Ifxk5ktf6vcy8efOoU6cOV1/7f/TcYstCrzdjxnS+HziwRH2PHj2KDz94P+vxWrVqsf0OO67251SeYoz8+6rLWbhgAe3bd+D0M86q6CFpHfL5Z5/kb8+Zs4Q5c2YzatSvvPLSi/Taeluu630jTZuVvkbL2Iz3oA1aleA9qFUrJqXfg8aOGb1KMDNxwniGD8t+q/jp01cspxk+bCj169fP2rZRo8b0yPK+k6m8XyPI/eskldQn77/JvLlzAeiwcRcaF1J7rSL86ZSz+L7/V4z/4ze+H/A1px1zAHvudwgbbNiG6tWrM3nieD754G1+G/0rALvvcyBnnHNx1usN/PZLFi1amPX4lEkTgdQyyq8++7DIsXXdrCcNGzVe6bnfxo5i0cLU9Zuu35zv+3/FTddcypzZs1ZuN3ouv43+lTdeeZ6TTjubI48/pci+inPg4cfy5acfMHzIIEb/8jOnHXsge+x7EG3adaB2nbpMmTyRrz/7KL/m1RZbb89FV/2nTH1KEpR+BtYYIBbXqBQizgrLqgR3Mvw3qZpVALvFGD8OIewOnAVsAzQHZgEDgEdijH2z9FPwa7tLIc9Bgbslrs5d/UIIbYHTgN2BDkBjYBEwNj2+14FXY4yLCzm3J7AfsAPQNf15VQWmAz8BbwAPxxjnFjUGlZ85s1eUt2tc4IetwjRs1GjFuXNKXxpvz7334YHGj9L7+mv59ZeR/PD9QH74fuUQqlq16px+xlkcefSxtGiZ/S++v4wcyT/P+XuJ+n3nrTd55603sx7fYINWvPVe0T+YrmnPP/s0A/p/SwiBq6+9nuo1alT0kLQOaNCgIdtsux1dum3K+us3p0qVKkyePJn+337Fl59/RoyR/t9+zSknHcejTzxL06bNStVP5vtIo8aNim3fMGPmwJz0Hcgy9f/2G6656l8l6vu5Z57kuWey36Vvi6168eDDj2c9vqZeI8j96ySVxKyZ0+lz/535+8ecdHoFjmZlDRs15rYHnuS+23rzxcfvM3PGdF58+tFV2vXYahuOPuE0Nt+iV5HXu+eW65icDn2LMmvmDP7v8vOLbNP7zofYvOfK/U2fNnXla1xxPgsXLKBt+07sts8BrN+8JbNmzuCrzz7ix+++YVleHn0euJOq1apx2DEnFuyixGrUrEnvOx7i4Xtv5f23XmX+vLm81veZVdp17NyV404+k17b7WSJAkk5UZawyHpHCRdCuBUo+L/h+sD+wP4hhFeAY2OMa6zwQAihKnA9cAFQ8HYy1YFu6cefgfOAOwucfxWw6r2WU1qkH3sBF4cQDosxfpuzwavEMguj16hZs9j2tTLazJ9XthJyW27Vi8suv5Jbbrqh0BkTS5cu4dlnn2bBggX847zzqVWrVpn6q4wmjB/PnbffCsDRxxxHj55bVPCItC44+5x/0qVrN6pXXzUsPeGkkxk6ZDAXX3AOEydMYML48Vx79eXcde+DpeprpfegGsW/B9XMeB+YV4E3dliTrxFU3tdJldeSJUvofcWF+cvvtt1pN7bfefcKHtXK6tVvwMlnnUvDRo0LDWUABg3sTyBQr3592nfaZA2PcIW5GUHy8tpde+1/KGdfdCVVq1bNP3bg4cfyWt9neODO1N0fH3vgTnbYdc8yLd2sUbMmf/rLWTRqsh7PPvYQeXlLV2nzy4ihvPDkw9SqVZvuW25d6r6UDBVxp2ypoNIGWI/ldBQqD/8ADic14+oR4DtSs5R2IBUO1QQOBZ4Gjihw7vKC9curQg4Briikj5Ktr0oLqXe9Z4DlhYki8BbwHjA+PaaOwK7AjhQektYB8oBvgS+An4GZpD63tsCBpD7HDYC3Qgg9YozJuLWNyt2MGdO56Pzz6P/tNzRo0JCLLrmMXXfbg+YtWrBw4UKGDhnME489ymeffsKTTzzGDz98z733P0ijQmaJ9dp6G34cMqLI/rp36wzAWX87m7/+/R/l8jmVh2uuvpJ58+bRvEULzj3/gooejtYRm3fvWeTxrt025e77HuL4Yw5n8eLFfPn5ZwwZ/FOxdfTWhIMOOYyDDsl+L5fx48Zx8P57AnD1tb2LbFuUyvwaScVZtmwZd95wNUMGpX58bNlqQ867NNvfJCvOS888Rp8H72JZXh677XMg+x9yFG3bd6JatWpMHP8Hn330Li8+9SjfD/ia4Wf/hUuvvZktt9mh0Gs98vxbRfZ1e+8r+eDt11i/Rcti2xYmLlu20n7LVhvytwsuXym8Wu6gI45j0MD+fPXZhyxdupQ3X3mBk888Z7X7XO6jd9/gnpuvY9GihfTabicOPfpEOnbuQs1atZg6eRJff/4Rzz72EMOHDOKqC//G2RddwV77H1rq/iQJShlgxRjLtnBaa8LhwEhg9xjjHxnPPx5CuBv4EGgGHB5CODbG+OzyBssL1mek7FNzVMT+n6wIryYBh8YYvy6sYQihHallhQX1Be6KMY7P0scNIYQTSIWsTUgtqTytTKPWaqtTpw6z0/UXFi9aRLVqRb/VLMy4+1CdunWLaJndggULOOWk4xk9ahQNGjTkyWefp02btvnHq1evzjbbbsc2225H7+uv5blnnmLwT4O44f+u54abby1Vn5XRyy+9yFdffg7Avy6/irp161XwiKQV2rXvwP4HHswrL70IwOefflyqcGal96DFxb8HLa8hA1C3Tp3V7m9NytVrBGv366RkiTFy763X8/F7qeX2zZq35Prb7q+w4ufZPPnwfTz7WGpW41/++k8OP+7PKx3fsG17/nTKWfTYahv+dd4ZLFgwn5uuuYQHn36Vho3WfE24zDs5QqqgfPXqBRc4rLDvIUfm19oaNLD0ixTefeMV7rrx30BqdtdZ51260vEWG7Tm0KNPpNd2O3PBWScyd85s7r3lejbusmnWOztKUkm4GLmEQgixhI8+FT3WtGXA0QXCKwBijINZOdTJXn0yR0IIdYHlBUTyKCK8Aogxjo4xrjLDK8bYv4jwanmbJ0nNLAM4LoSQ/X/yEgoh1AwhNMh8LErILZ+TqH6DFQWMZ8ycUWz7WTNnrji3iOLHRXn+2acZPWoUAH8+5S8rhVcFnXf+hdRvkPqh+Z2332TqlCml6rOymTx5ErfenFo+sPc++7Lr7ntU8IikVW3Va8Ud9kaPHlWqa2S+j8ycMbPY9rNmrWhTP2G/UBcmF68RrP2vk5Ihxsh9t/XmnddeAqBps+b0vuNBmrdsVcEjW9m0qZN58alHAGi9UVsOO/akrG27btaT3fc5EIB5c+fy3pv91sgYCyoYAHbo3LXI9p0yjk8cv8qvCCWyeNGi/BpmdevV5+Szzs3attWGbfJrbS1dujT/Do+SVFoGWGuvd2OMP2Q7GGN8FVi+PqpnCKF9OY9nP2C99Ha/osKrHPk8/bEOsHkOrncZqeWY+Y+bb/RuKtm0bdsuf3vcH8X/gJTZpm270n0rfvrJx/nb221f+FT+5erUqUOPHqmlOsuWLWPw4J9K1Wdl8947bzNndqpeRpP1mvLg/fcV+vjk44/yz/n55xH5z7/04gsVNXStQxo1XjH5dvn36+pqk/EeNH5cCd6Dxo0r9NykysVrBGv/66SKF2Pkv7f35q1+qf8/1mu2Pr3vfIiWrTas4JGt6vv+X7F0aaqOU/cttym23s8WvbbL3/556OByHVs2rTdqu9J+cbOqM4/Pn1e6ex0NHzqI2bNSf5zsulkPatWqXWT7nhmv04gKep2UG1XWoYeSyzv+lVxJC1r8Vq6jKLn3S9imc3p7a6D0f8Yt3k4Z22X6M1W6ltZ+wJHAlsCGQH2yfz+3JlUDrCz+A9yW+cRFl1w2K0vbdV6nThvzxeefATBk8E9svc22WdtOmzqViek79DRZbz2alPK27JMnT87frleCWVyZMw8WrCPFiGNccTPRZ5/Ofpe0TMOHDc0vht+58yYcfuRRxZwhlc3MzBmZDUo3y6dDp058+UX6PWjIT2y19TZZ206bNpVJy9+DmqxH41K+B61JuXiNYO1/nVSxlodXb76SCq+aNG1G7zseYoPWG1XwyAo3feqK2dh16xW/vL5uvYyfIxZUzM8RDRs1pknTZvljn1dMKJV5vE7d0s14z3yd6pSgDEHm67Swgl4nSWsPA8YSijG+UsLHahU2L0cjV7PNBuU1kLTWGdur3hquhEIILYDPgDeAU0jNrmpM0WFsmdc5xBgXxRhnZz5qluDueuuq7XdckVd+/tmnRbb97LNP8rd33GmXUvdZN6N21sQJxd+yevz4FStRGzZqVOp+JeXWd/2/yd8uailwUbbffsV70JfpMD2bLzLeo3bYcedS9bem5eI1grX/dVLFWSW8Wq8Z/7nzf7TasE0Fjyy7zHpSUyZPKrb95EkrftZo0LBhuYypJLbadsf87V9HFP0j9siM4603Kt3XIvN1mlqC12lKxutUv0HFvU6S1g7OwFp7zVvNNqX7M0zJZYZIpZqzHEKoBrwNdE8/NQN4DfgJmAgsIFVfC2B3UndihNQdCrUGbdVra5o2bcbUqVMY0P9bhg0dQpeu3VZpl5eXx9NPPpG/v+9++5e6z06dNmbY0CEAvPnGa2yz7XZZ2/42diyDfxoEQJUqVejWbdNS9VncXQqT5oSTTuaEk04utl2/l1/iqisuA+DgQw7jut43lPPIpJSxY0bz5uuv5u/vtPOupbrOFlv1Yr2mTZk2dSrfDfiW4cOGsEmXwt+DMmcj7r1v6d6DNmjVigE/DivVuasrV68RrPnXSeuO+2//T3541bhJU3rf+VCiwyuANu1XFBfv/+WnzJ83t8gZRssL0gNsvEnpfo7457+u45//uq5U5y63294H8O7rqRuHv/dmPw479s9ZC7m/3e/F/O1sd04sTmYR9uFDBjFx/DhabJC9ntlH776Rv71xl9K9TpK0nDOw1l4luZVbZps55TWQtMwiHaW97dkxrAivPgDaxBj/HGO8Jcb4ZIyx7/KZcKyo76UKULVqVc7869/y9y+/7BKmTZu2Srs7b7+FEcNTv/T16LkFO+y40yptIBWodO/Wme7dOnPqyScW2ma/Aw5cqf1LfQuv1zR1yhQuuuC8/DoXO++y61ozA6v/t9/kv0777bV7RQ9HyvfsU0/w4w/fF9lm+LCh/OOvp7P8BhnbbrcDm27efZV2r/V7ma26d2Gr7l0449TCiyxXrVqV089c8R501eWXMr2Q96B77ryNn0ek3oO699iC7XbYcZU2a0ouXyNYe18nJd/9d9zAG688D6TCq//c9b9VajVVhAN37pH/mDRh3CrHu27Wg2bNWwIwd85sbrrmUhYuWLBKuxgjjz90Nz99PwCAmjVrsePue5fv4IuwWY+t8utMTRj3O/+9rTfLli1bpd1rfZ/NvwNh7Tp12f/Qowu93l+O3i//dRr0ff9VjrfYoBWbdEuVl83LW8qN/76IWTOnF3qtt/q9yAdvvwak7m6++z4Hrf4nKEkZnIG19irJPWoz2xR5Z78cyKwO2xUYUIprZP50cF6MsajQzeqyFezwI4/mgw/e5+svv+DXX0Zy9OGHcPiRR9G+Q0dmz5rJW2++wfcDU6XJ6jdowJX/vrZM/W2/w47stfc+vPfuO8QYueaqK3jjtVfZdbc9aN6iOYsWLmLIkMG8/lq//KLHjRo14oKLLi30ejNmTOf7gblZEVyrVi22z/IL3+zZs3n80YdXem78hBX/HMf98Qf33Hn7Ssc36dqNPfequB+WpdXVv/833HJTb1pvuBFbb7MdHTp2omGjRlStUoUpUybT/5uv+eLzT/N/6Wq5wQZcfW3vMvV56OFH8dEH7/PN118y6tdfOO7oQzns8KNo174Ds2fP4p233uSH79PvQfUb8K8r/531WhMnjM+vBVdWjRo1pscWW67yfEW8RpDb10l64qF7eP2lZ4FUYHHwkX/i97Gj+H1s0WVWO2zchfXT4VGml559nHlzst+o4ImH7llpv279BhxexN0Di1KtWnXOOvcS/u+K81m2bBkDvv6cM44/mN33PpA27TtSrVo1Jo4fx2cfvcOokSv+TnrS6WezXtP1C73mwG+/ZNGihaUaT0FdN+tJw0aNCz329wuu4KK//ZkZ06fy7hsv8/PwIey+9wGs36Ils2fN5MtPP+CHASuWHp97ydVlWs535rmXcOk/TmXRooWMHD6UM48/lN32PoCOnbtSs2ZNpk6ZxFeffsSQQSt+jjroiOPo2LlLqftUxSvuxgbSmmCAtfbaiwJFxwuxZ8b2N4Ucj0BIP8rqU+Cc9PYhwOOluEaLjO1fimm7bymurxyqVq0at91xF5dedCGffvIRU6dO4cH771ulXfMWLbjpltvp2LFTmfvsfeMt1K1Xj1de6gvAgP7fMqD/t4W2bduuHTfefDsbtSl8ScMvI0fyz3P+XuYxAWywQSveeu/DQo/NmTObhx68P+u5EyaMX+X4wYccZoClSumP33/jj9+LvtfJdtvvyFXX/B/N1i/8F8KSqlatGjfddhdXXHohn336MdOmTuV/D/53lXbNm7eg90230aGI96D+337DNVf9q0zjWW6LrXrx4MPZ/wtck68R5PZ1kob8tGIWYYyRxx68q0TnnXfZNey53yGrPP/6S88weWL2upbPPfG/lfbXb9Gy1AEWwDY77srFV9/APbdcz9w5s5k+dQovPv1ooW2r16jByWecwyFHn5D1evfccl2R418dve98iM179ir0WIsNWnHdbfdz49UX8/vYUYz59Wce+e/Pq7SrXbsO51xyNTvuVrafITpt0o2rb7qb266/gqlTJjF3zmxe6/tMoW2rVKnCYcecxJ/PPKfQ45K0Ogyw1l57hRA2jzEOKuxgCOEAYJP07sAY4+hCms0lVRurJMsRi/MWMBVoChwSQtg2xvj1al4js2ZXR6DQe/GGEI4BVi3ioTWubt163H3f/Xz04fu81q8fQwb/xPTp06hbty6tN9yIPfbciyOPPnalOwKWRY0aNbjmut4c96cTefWVl/jh+4H88ccfzJs3l2rVq9OkSRO6dt2U3fbYg3322Y/qNWrkpF9JRfvnBRez0867MmTwIH4eMYIZ06cxc+YMFi9eQr369dhgg1ZstnkP9tv/wKxL4kqjbt263H73f/n4ow9447V+DB0ymBnTp1Gnbl1at96Q3fbYiyOOPKZEdy4tbxX1GkHlep2k8rbjbnvTfctt+PCd1xn47ZeM/vVn5s6ezbJledStV58N27Rns55bsfcBh9GseYviL7iGtG3fkbseeY4P3urH5x+/x29jRjF75gxq1a5Dqw3bsOU2O3DAYUfTsFFu7iC6ec9e3P/kK3zywVv0//JTRv0yglkzZ7B0yVLq1qtHy1Yb0q37Fux9wGGJWEIqae0QMm+rrpWFEPJfnBhjmWYhhRDGAG2AsTHGtoUcPxlY/ieeU2KMfUpxjX8DV2c8NQLYPcY4vkC7rsCHQPP0U8fGGJ8r5Ho/krrL3zygWYxx1UIAK7df/np9EmPctZDj5wHL10JNAg7NFmKFENoATWKM32c8dxmwfL3Eq8DhMca8AuftBrzCykXjs72eRY63OAuX4j8eSQAsWbpqvRFJ666JsxZV9BAkJUin5rUr/fq7c14Zvs787nPXoZtU+q/X2soZWCUUQjh0NZp/E2PMzXzh0usLHAEMCSE8DAwkdTe+7YGTgVrpdi8VFl6lvU8qwKoLvBZCeByYAvnBzU8xxlWrYGZ3J7ADcCSp8OzLEMKbwHvABKAG0B7YJf24EMisaPswcBmpWWEHAz+mxzQWaAzsQ2p54jLgSSD7nG5JkiRJklRpGGCV3Mur0fYwUrOAKtI9wBjggvSjMP2A44u4xq3p482BPdKPTKcAfUo6oBhjDCEcC9wEnEsqUDsg/SjMSlMaYoyT08sDXwTqkFomeGOBc+YDZ6WvbYAlSZIkSWVUxTlJSoAqa6KTEEKNEEKLEMJGa6I/pcQYLyRVqP0F4HdgMakZVG8DR8UYD40xZr01Snrp4RakisEPAuZA2ZbNxRjzYowXkLoT4c2kZoZNB/LS1x8MPEJqJtUqFb9jjG8B3YEHgdHpz2kWMDQ9zh4xxifKMkZJkiRJkpQs5VYDK4SwMalZNvsA7dJPxxhjtQLtjiW1bGxijPGRchnMOqJADazdYowfV9xo1n7WwJK0nDWwJGWyBpakTGtDDazz+q07NbDuOMQaWElVLksIQwiXANeRWsZV3Be/LnA9sDSE8HqMcXJ5jEmSJEmSJEmVU86XEIYQLiV1p7hqpGoYfQV8XsQpzwALSYVdB+d6PJIkSZIkqfSqhHXnoeTKaYAVQuhEauYVpGoZbRpj3IFUMfBCxRjnAx+md3fN5XgkSZIkSZJU+eV6BtbZpGZSzQL2iTGOKOF5A0gtNdwsx+ORJEmSJElSJZfrAGt3UnepezzGOGE1zhud/rhhjscjSZIkSZKkSi7XAdbyAGrAap43J/2xXg7Hss6JMf47xhjSj48rejySJEmSJEm5kOu7ENZMf1y4muctD67m5XAskiRJkiSpjEKwurkqXq5nYE1Jf2y1mud1TX+clMOxSJIkSZIkaS2Q6wDrR1LF2Pcs6QkhFeUeRqp21jc5Ho8kSZIkSZIquVwHWK+lP+4bQuhVwnP+AXRKb/fL8XgkSZIkSZJUyeU6wHoMGJ++7qshhO2zNQwhVA8hXALcSmr21YgY40s5Ho8kSZIkSSqDKmHdeSi5clrEPca4KIRwPPAusD7w2f+3d99xclVlA8d/TxJIg4SE3kMLvYSuSG/SwYoIAi8gCAiIKCpSRVRALHQQaYqoIF2KIFUJLVSBUBNIowRCej/vH/dudrKZmZ3dnWTvbn7ffOazd+aeOffM3Z3JzDPPeU5EPAl82tAmIi4gW61wR2ApsimHU4GD6zkWSZIkSZIkdQ71XoWQlNKjEbE/cCPQH/hcw67858n5z4bY5jjgaymlIfUeiyRJkiRJkjq+ek8hBCCldC+wAfBb4BOyYFXTy2fAZcAGKaUH58c4JEmSJEmS1PHVPQOrQUppDFm21ckRsR4wAFgCmAiMAF5IKc2eX8eXJEmSJElS5zDfAlilUkqvAq8uiGNJkiRJkqT6CYubqwDmyxRCSZIkSZIkqV4MYEmSJEmSJKnQ6jqFMCK2a2sfKaXH6jEWSZIkSZIkdQ71roH1CJDacP/EAqrLJUmSJEmSmtfFIlgqgPkRLPIvW5IkSZIkSXVT7wDW2TW06QosBXwO2Jgs6+oO4MU6j0WSJEmSJEmdQF0DWCmlWgJYc0TEzsD1wC7AZSmlB+s5HkmSJEmSJHV87boKYUrpIWB3YFHgpohYvj3HI0mSJEmSpOJp1wAWQErpf8BfyKYVfredhyNJkiRJkkp0WYguKq6i/H4ey3/u166jkCRJkiRJUuEUJYA1If+5SruOQpIkSZIkSYVTlADW2vnP1K6jkCRJkiRJUuG0ewArIpYCjiELXr3VzsORJEmSJElSwXRrj4NGRDdgRWAX4LR8OwH/aI/xSJIkSZKk8iLaewRSnQNYETGrDXd/C/hNvcYiSZIkSZKkzqHeUwijlZd/AzunlCbVeTySJEmSJEnq4Oo9hfAxaivEPg34FPgfcG9K6bk6j0OSJEmSJEmdRF0DWCmlHerZnyRJkiRJal9dLIKlAmj3VQglSZIkSZKkaupdxP2MfPOdlNKf6tm3JEmSJEmSFk71roF1FlkNrNPr3K8kSZIkSZIWUvWeQvhZ/vOtOvcrSZIkSZKkhVS9M7BGAn2A3nXuV5IkSZIktQNruKsI6p2BdT8QwBfq3K8kSZIkSZIWUvUOYF0OTAW+GRHr17lvSZIkSZIkLYTqGsBKKb0FHJX3+2BE7FPP/iVJkiRJkrTwaXUNrIj4Y775+5TSC/ltZ+S3PQzsCtweEcOB/wAjgCnN9ZtSOqe1Y5IkSZIkSfXVxRpYKoC2FHE/DEjA7cAL+W1n5beR/wxg1fxSKwNYkiRJkiRJmqPeqxBCFrSqdr2a1HwTSZIkSZIkLUzqHcDasc79SZIkSZIkaSFX1wBWSunRevYnSZIkSZIkzY8phJIkSZIkqZPoElZxV/vr0t4DkCRJkiRJkqoxgCVJkiRJkqRCq8cUwnMj4qQ69AOQUko716kvSZIkSZIkdQL1CGCtX4c+AAJIdepLkiRJkiTVgSWwVAT1CGD5pyxJkiRJkqT5ph4BrJ8C/6lDP5IkSZIkSdI86hHAeiWl9Ggd+pEkSZIkSZLm4SqEkiRJkiRJKrR6ZGBJkiRJkqROqouVr1UAZmBJkiRJkiSp0AxgSZIkSZIkqdAMYEmSJEmSJKnQ2hrAciasJEmSJEmS5qu2FHFfLf/5YT0GIkmSJEmSiifMXVEBtDqAlVIaXs+BSJIkSZIkSeVYA0uSJEmSJEmFZgBLkiRJkiRJhdaWGliSJEmSJKmT62IJLBWAGViSJEmSJEkqNANYkiRJkiRJKjQDWJIkSZIkSSo0A1iSJEmSJEkqNIu4S5IkSZKkiiziriIwA0uSJEmSJEmFZgBLkiRJkiRJhWYAS5IkSZIkSYVmDSxJkiRJklRRhEWw1P7MwJIkSZIkSVKhGcCSJEmSJElSoRnAkiRJkiRJUqEZwJIkSZIkSVKhWcRdkiRJkiRV1MUa7ioAM7AkSZIkSZJUaAawJEmSJEmS6iQiBkXEBRHxfER8FBHTImJkRDwbEZdExFciomszfayZ9/FKRHwWERMjYmhEXBoRmyygh1IoTiGUJEmSJElqo4joA/wOOBRoOvFyhfyyGXAc0A8YV6GfbwO/BXo22TUwvxwdEeeklM6p19g7AgNYkiRJkiSporAGVrMioj9wP7B5ftNI4B/Ai8BnwOLAWsCuZEGsSv0cDFyZX50N3Aw8BMwEtiELjnUHzo6IaSmlX9X9wRSUASxJkiRJkqS2uYnG4NWvgZ+mlKaWafeTiFgBmNh0R0QsDVyaX50NHJBSurOkyQ0RcS1ZQKsXcG5E3J5SGlqvB1Fk1sCSJEmSJElqpYg4DNg9v3p5SumUCsErAFJKo1JKM8vsOgXok29f2iR41XDfwcDp+dVuwJmtHngHYwBLkiRJkiSp9U7Nf04EftSGfr5esv2bKu2uBibl2/tGRNNaWZ2SASxJkiRJkqRWiIhtgHXyq3eklMa3sp/1gFXzq6+llN6t1DalNAF4PL/aG9i+NcfsaAxgSZIkSZKkirpELDSXVigNHj0FEBFfioh/RsSYiJgWEaMi4p6IODwiKtUi37Bk+5kajlvaZsOKrToRi7hLkiRJkiS1zuYl2x9ExK3Al5q0WT6/7Al8LyL2K5NhtXbJdsXsqwpt1q7YqhMxgCVJkiRJkgRERHege5Obp6WUplW4y/Il2+eQBZOmAzcATwAzgI2BI4H+ZNlSD0fEpimlT0ruu0TJ9sc1DHVshft2Wk4hlCRJkiRJyvwY+KzJ5cdV2vcr2V4b+BTYOqV0VErp+pTSTSmlU4H1gVfzdqsC5zXpZ7GS7YorGJaYUrK9eA3tOzwDWJIkSZIkSZlfAH2bXH5RpX3TuMopKaXnmzZKKY0BDiq56bCI6NPGsS5UnEIoSZIkSZIq6tKq2uYdUz5VsNJ0wXImlGxPAv5Upe8XI2IwsDXZNMVtgHvz3RNLmvao4bg9K4yh0zIDS5IkSZIkqXU+Ldl+OaU0vZn2z5Zsr1GyPa5ke6kajrtkhft2WgawJEmSJEmSWuf1ku3Pamhf2qZ0CuHQku3VauintM3Qiq06EQNYkiRJkiRJrfNiyXbfGtqXtikNZr1csr1FDf2UtnmlhvYdnjWwJEmSJElSRbEQ1cBqhXuBBASwYUQs2sw0ws1LtudkTqWUXo2I94BVgHUjYkBKaVi5DiJiMWDb/Opk4NE2jL/DMANLkiRJkiSpFVJKI2gMIPUGDq7UNiI2JivgDlnh9f80afLXku2Tqxz22/mxAO5MKU2uecAdmAEsSZIkSZKk1vtJyfaFETGoaYOIWBb4c8lNv08pTWnS7EIaVxQ8LiL2LdPPVsDP8qszgbNbPeoOximEkiRJkiRJrZRSejIifgWcCvQDBkfE9cATwAxgE+BIoH9+l2eBc8v082FEfBe4jizh6LaIuBn4FzAL2AY4FOiR3+XMlNLrTfvprAxgSZIkSZIktUFK6UcRMYssiLUocFR+aep+4BsppakV+rk+InoBF5EFqg7KL6VmAT9PKZ1Xr/F3BAawJEmSJElSRV2winstUkqnRcTfgCOAXYEVgUWAD4H/AjeklO6toZ/LI+JB4Bjgi8DKZBlZo4CHgKtSSs/Pn0dRXAawJEmSJEmS6iCl9CJwQh36eRP4fn4RFnGXJEmSJElSwRnAkiRJkiRJUqE5hVCSJEmSJFUUlsBSAZiBJUmSJEmSpEIzgCVJkiRJkqRCM4AlSZIkSZKkQjOAJUmSJEmSpEKziLskSZIkSaqoi0XcVQBmYEmSJEmSJKnQDGBJkiRJkiSp0AxgSZIkSZIkqdCsgSVJkiRJkirqEhbBUvszA0uSJEmSJEmFZgaW1ErPDxvX3kOQVBAbrNSnvYcgqUA2+uIP2nsIkgpkyvOXtPcQpE7BDCxJkiRJkiQVmgEsSZIkSZIkFZpTCCVJkiRJUkXWcFcRmIElSZIkSZKkQjOAJUmSJEmSpEIzgCVJkiRJkqRCM4AlSZIkSZKkQrOIuyRJkiRJqqiLVdxVAGZgSZIkSZIkqdAMYEmSJEmSJKnQDGBJkiRJkiSp0KyBJUmSJEmSKrIElorADCxJkiRJkiQVmgEsSZIkSZIkFZoBLEmSJEmSJBWaASxJkiRJkiQVmkXcJUmSJElSRWa+qAj8O5QkSZIkSVKhGcCSJEmSJElSoRnAkiRJkiRJUqFZA0uSJEmSJFUUEe09BMkMLEmSJEmSJBWbASxJkiRJkiQVmgEsSZIkSZIkFZoBLEmSJEmSJBWaRdwlSZIkSVJFlnBXEZiBJUmSJEmSpEIzgCVJkiRJkqRCM4AlSZIkSZKkQrMGliRJkiRJqqhLWAVL7c8MLEmSJEmSJBWaASxJkiRJkiQVmgEsSZIkSZIkFZoBLEmSJEmSJBWaRdwlSZIkSVJFlnBXEZiBJUmSJEmSpEIzgCVJkiRJkqRCM4AlSZIkSZKkQjOAJUmSJEmSpEKziLskSZIkSaoorOKuAjADS5IkSZIkSYVmAEuSJEmSJEmFZgBLkiRJkiRJhWYNLEmSJEmSVFFYBEsFYAaWJEmSJEmSCs0AliRJkiRJkgrNAJYkSZIkSZIKzQCWJEmSJEmSCs0i7pIkSZIkqSIzX1QE/h1KkiRJkiSp0AxgSZIkSZIkqdAMYEmSJEmSJKnQrIElSZIkSZIqioj2HoJkBpYkSZIkSZKKzQCWJEmSJEmSCs0AliRJkiRJkgrNAJYkSZIkSZIKzSLukiRJkiSpIku4qwjMwJIkSZIkSVKhGcCSJEmSJElSoRnAkiRJkiRJUqFZA0uSJEmSJFUUYRUstT8zsCRJkiRJklRoBrAkSZIkSZJUaAawJEmSJEmSVGgGsCRJkiRJklRoFnGXJEmSJEkVmfmiIvDvUJIkSZIkSYVmAEuSJEmSJEmFZgBLkiRJkiRJhWYAS5IkSZIkSYVmEXdJkiRJklRRRLT3ECQzsCRJkiRJklRsBrAkSZIkSZJUaAawJEmSJEmSVGjWwJIkSZIkSRVZAUtFYAaWJEmSJEmSCs0AliRJkiRJkgrNAJYkSZIkSZIKzQCWJEmSJEmSCs0i7pIkSZIkqaKwirsKwAwsSZIkSZIkFZoBLEmSJEmSJBWaASxJkiRJkiQVmjWwJEmSJElSRV2wCJbanxlYkiRJkiRJKjQDWJIkSZIkSSo0A1iSJEmSJEkqNANYkiRJkiRJKjSLuEuSJEmSpIrCGu4qADOwJEmSJEmSVGgGsCRJkiRJklRoBrAkSZIkSZJUaNbAkiRJkiRJFQUWwVL7MwNLkiRJkiRJhWYAS5IkSZIkSYVmAEuSJEmSJEmFZgBLkiRJkiRJhWYRd0mSJEmSVFFYw10FYAaWJEmSJEmSCs0AliRJkiRJkgrNAJYkSZIkSZIKzQCWJEmSJEmSCs0i7pIkSZIkqaIuWMVd7c8MLEmSJEmSJBWaASxJkiRJkiQVmgEsSZIkSZIkFZo1sCRJkiRJUkVhCSwVgBlYkiRJkiRJKjQDWJIkSZIkSSo0A1iSJEmSJEkqNANYkiRJkiRJKjSLuEuSJEmSpIos4q4iMANLkiRJkiRJhWYAS5IkSZIkSYVmAEuSJEmSJEmFZg0sSXO888arvPPG/3j3jdcY9d47jP9sHBPHj2PWzJn0Wmwxll95NdbdaDO+sMteLLXM8hX7OWyvrVp1/FN/cRnrbrRZa4c/x7hPPubhe2/jhace5+MPRzNj+jT69luKgetvwna77cPaGwxq8zHq5f133+SVIU/x5msvMXL423w69mNmzZpJ78UWZ4WVV2O9TbZku932YYn+S9Xc5+zZsxn8yP0MfvQB3n/3TSZ8No7ei/dhhZUHsMUXdmbb3fZhkUUWnY+PClJKnP+T43jtpefm3HbESaez7a57z9fjqmM66/Qfc/edt8+5ftQxx3H0d46vS9/D3n2HW/52M889+zRjRo9m2rSp9F9ySQauvS67fXFPdtt9D7p0Kf73efPzHEHnOU9qnS5dgnVWW45N11tlzmXDtVakV8/s/4ob7xzMt8/8U5uOsd3ma3Hvld+d83c0fNRY1tnrzKr3mfL8JTX3X0t/tejZYxE2GrgSm663CoPWXZlN11uFtQcsS7duXQE46owb+dNdT7X5OPW04jJLsMvn12XbzdZkw4Erssry/endozsTJk/l3ZFjefL5t7n+jid55c1RNfW35irLsNl6qzBovZUZtO4qbLLOSvRZrCcAjz37Jrsf9bv5+XDmctrRe/LTY/acc70ef4tqncAiWGp/BrAkzfGrHx/LtKlTyu4bP+5Txo/7lKEvD+Huv13P/gcdwd5fO6xux44Ill5uhTb3M+TJR7nmt+cyaeL4uW7/aMxIPhozkv88dA877HEA3/rOD+jStWubj9dakyZO4JzvHc4Ho94vu7/hfL/+8hDu/tt1fO3/jmeXvb/abL/jPhnLpb/4EW+++tJct3/26Vg++3Qsr730HA/dcwvfPe1XLLfiKnV5LOU8/M9/zBW8kir5zxOPzRWYqZdZs2Zx2cW/5YbrriGlNNe+MaNHM2b0aB575N/8/eab+OUFv2HpZZap+xjqZX6dI+hc50mt9+fzj2D/nTeZb/337LEIl59xUIcIgr5577ksuUTv9h5GzW664Aj222njsue2f9/e9O/bm83WW4Xjv7kjf7jlCb5//i1MnzGzYn+/PPkATjxk5/k55JptsNYK/PCI3dp7GJIKxACWOoyIuA44NL+6WkppWPuNpvPqs0Q/Vhu4PqusthZLLbsCvXr3ZtbMmXz84WhefOY/vPnqS8ycMZ1brr+cWTNnst9BR87Tx3d/en5Nx3rm8QcZ/OgDAKy70eZVs7pq8dqLz3LZL09j5swZAGy8xTYM2mpbFu3Rk+FvD+WxB+5kyqSJPHLvbUQEhx53apuO1xYzpk+fE7zq0qUrA9ffmIHrb8LSy61I9x49GfvhaJ554t+888b/mD5tKn+6/EJmTJvGHl8+uGKfU6dM5qIzT+K9d94AYOnlVmS73fZl6eVWYNwnH/Ofh+7h/XffYuTwd7jw9BM4/dfX0LffknV/bGM/HMPfrs2+Ne/eo2fFoKg0ceJEzvvZWQD07NmLKVMm163v83/xM279+18B6Nq1K7vuvgebb7EVvXv3ZuTIEdx7z128/dabvPjCEI475giuue7PLN6nT92OXy/z8xxB5zlPapuuXebOrBg7bhKffDaJtVatT8DyZ9/dl9VXXpqJk6exWK/uLb7//94axdmX3l21zeSp01s7vLl07Tr3uXhv9Ccs0q0ryy/dty7919t6ayw/J3j10hsjePzZN/nfW6P5bMIUluzXm523Woe9d9iIrl27cORXvsDyS/flKyddWbG/rk0CYeMnTmHEB+NYb422vUdrqa5du3DFWQez6CLdWv13I6nz6VQBrIg4DLg2v3p9Sumw+Xm/hVFEbALsn1+9PaX0QrsNRnV3+q+vYcVVVycqrJO799cO4z8P/ZM//OYcUkrcefMf2W73/ei35NJztdvsc9vXdLzb/3z1nO3tdtun9QMHZsyYzjW/O3dO8OrgY05hl30aM5Y+v+MX2XGPA/jFqcfw2adjefif/2CLL+zMehtv3qrjXX3ROfznoXtYcpnl+fW1t7eqj8X69GW3/b5RcYrgHl8+mLv/dj23XH8ZALfecAWbfm57ll1h5bL93fXXa+cEr9bZcFNOOvPX9OjZa87+Xfb5Glf9+kyefuxBPv5gNDdf83uOPuXsVo29mmsv/gVTp0xmwJrrsPzKA3jy4fvqfgx1Dr+76AI+GDOaZZdbnl123Z0/33hdXfod/OR/5gRlevbsxcWXXcUmm849PfmQQ/+PX/78bG679e+88/ZbXHrxb/jRaa2bfjRq5Ej23XMXAM485zz22e+Atj2AEvPrHMGCP08qrmdeGc7r737A86+9x5BX32f4qLEcvM9WXH3OIW3ue+uNV+OYr2fvC86+9C4u+MFXWtzH2HGTuOuRl5pvWAd3P/Iybwz7gOdfe5/nX3uPseMmcdXZB3PIvlvX/Vil53jtPc/gvdGftLiPaTNm8odbnuCKvz7G/96ad4rg1X9/gh22HMgtvz2a3j27s9f2G3LQ3lty091Pl+3vtXfG8Ps//Zsh/3uPIa+9x5vDP2TbzdbigT+c2OKxtcX3Dt2FzdZbhfETp/CbGx7izGMtQSDJIu5quU2AM/PLJu06EtXdSgPWqBi8arDNznuy8RZfALKpJy8/92SrjjXszdd4/903Aei9WB82/fwOreqnweMP3MXHH4wGYJMtt50reNVguRVX4ZDv/GDO9X/ccEWbjtkWi/Xpy4V/vJ19Dzy8an2rvb92KJvmAcGZM2fw3wrBoIkTPuOBO7IPooss2p2jTzl7ruAVQLdu3fi/E06bc7zBj9zPqPeH1eHRNHr8X3fxypDBdO3alcNPOI0uXdpvmqaK7ZmnBnP7P/4OwI9+cjq9etdvys5Nf7p+zvZ3jj9hnqAMZNlGp/7kDFYdsBoAt936d0aNHFm3MdTD/DxH0HnOk9rugj8+wBkX38ltD77A8FFj69Zv90W7ccWZ36Rr1y7c9uDz3PnwgglCtcVRZ9zIBX98gAeffI2x4ya193Ca9cWjfs93f35z2eBVg0eefoMzL75rzvVD9/tcxbZ//Md/OPXX/+Cv9z3Lm8M/rOtYazVwwLKc9u09ADjzkrsYMebTdhmHpOIxgKUOI6V0WEop8suw9h7PwmzFVVebs/3Zpy3/thDgsQca30htvcPuLLpo21LDn3rsX3O2dz/gGxXbbfq57Vlq2SwN/q3XX+bjD0e36bit1a1bt3kCTJVsue0uc7ZHvPtW2TbPD36MGdOnzWnfb6ny0z569OzF9rvvB2SF1p9+/MGWDLuqcZ98zF+uzgq77n7AN1l1jYF161udy9QpUzj3nDNIKbHr7nuw7fY71q3v2bNn89yzzwBZbb299tmvYttu3bqxx15Z9uesWbN44L5/1m0cbTU/zxF0nvOkYjv9mL1Ye7Xl+HT8ZL73y7+193A6pU/H1zat+JYHGutSbrBW22uOzi8RwZVnfZMe3Rdh8IvvcOXfHm/vISnXJRaei4rLAJakFvtg1Ig523379W/x/adPnzan9hXAdrvt26bxTJk8iTdefRHIAjRrr79JxbZdunRhw80av3l86dnWZZAtSD17NWZdTM+DVE2VPo6Nt/h81f422rxx/0vP/reNo2t0/aW/YvKkCSy7wkrsf9ARdetXnc8lv/8NI0e8T9++fTnl1J/Ute/Pxo1j2tSpAPTr15++fZeo2n7AgMaA/GOPPVzXsbTF/DxH0HnOk4pr0/VW4cRDdgLgtN/ezgdjJ7TziBZu4ydNnbPds/si7TiS6o4/aAe23nh1pk2fwbHn3DTP4hKSFm6dqgaWpPnv+aceZ8iTjwLZVLWNt9imxX08999HmDwpeyO76hprtzlTZ9R775Jmz57TX3OrC6621ro0fPwaMax8RlORjBj29pztJZdZrtk2q621XtX+Vl1zHbp06crs2bMYOfwdUkrNTh1tzuBH7uf5wY8BcOjxP2bR7j3a1J86rxdfeJ6/3fxnAE48+YcsuWTlKbSt0ZYPO2+/+UYdR9J68/scQec4Tyqubt26cMWZ36Rbt648+swbXHtb274sWWvVZXjwmpNYe7Xl6LNYD8ZNmMLwkWN5/Lk3ufa2J3nrvfaZ6taRbLBmY9ZVa2ptLQirrbQUZx6X1bq68Np/8do7Y9p5RJKKxgBWDSKi4V3eoymlHSKiB/Bt4BvAQKAXMBL4F3B+SundGvsdABwJ7ASsAfQDpgHDgWeBu4E7U0oVl1WJiO2Ag4FtgeWBHsBHwNPATcA/UoV3qfnxG8Z6fUrpsIhYATgG2AdYBegPXA88QmOh+wbXRkTT20gpzfVJOCKWyvvbAdgYGAD0BiYA7wGPAleklF6r9Djzfq6jyiqEEbEDzIlLnJ1SOit/PMcD+wGrArOBt4HbgN+klPw6sIKhrzzPxAnjAZg1cwZjP/qA/z3/FK8MeQrI6qIcetyprVrF7rEH7pyz3dbsK4AxI9+bs73Uss2nxS9d0mbMiPfKtnllyGCmTSuf7QTwyUfZm6rp06byXB7Qq2TgehuzeDPZDZXMnDlzrvNVLmA4e/ZsPhzduKJh/6WrrxrVrVs3+i25NGM/GsO0qVP4dOyH9F9q2VaND2D8Z5/y5ysvAmDbXfdpdWF8dX7Tpk3jnDNPY/bs2Wy51dbsu/+X6n6MPn370q3bIsycOYNPP/2E8eM/o0+fyquHDR8+bM72pEmT+PCDD1hm2bmfD2NGj+L1116t2McnnzR+GHz9tVdZfPHFK7ZdYol+ZWtNNVgQ5wjmz3mSGvzoyC+y4cAVmTJ1Osed+5c297f80n3nWgVwmf6Ls0z/xdliwwGceMjOXPm3x/jRRbcxY+asNh+rnjZZZyVWXq5ypvqgdRsXZdnlc+vy0SeV35YOHfYBbwz7oNVjOeqr287Zvu+J/7W6n/np8jMOonfP7rz2zmh+9Yf723s4kgrIAFYLRcRqwB3Ahk12rZFfDomIvVNKj1TpoytwLvB9oGkO7yLA+vnlUOAk4Hdl+lgCuBEotyTHSvnlS8BjEfHllNLHzTw0ImJX4GayoFVdRMTqwFDK/631yy8bA9+NiDNTSj+r47F3A/7CvI9nk/zyzYjYKaVkNdoy/vrHi3ln6LxvcCKCtTcYxAEHf5u1NxjU4n4/+mAUr7+U1WFYZNHubL3D7m0ea0M2F8DiVT6ANVispE3pfUtde/EvGVtDfawJn33Kxef+sGqbU39xGetuVPkDazX3/O06PhiVBadWWX1g2QDWtKmTmTUre9Pea7HF6Nq1+Zf2xfr0ZWwehJs8cWKbAlg3XnYBE8aPo88S/TnwiBNa3Y86vysu+z3Dh71L9x49+Mnp9V8BE7IA7UYbb8yQ554lpcQ/77qTA79ZfiW1WbNmce89d81124QJ4+cJzDzz9FOcfUZt0/j++pc/8de//Kni/k0334Krrrmh4v4FcY5g/pwnCWDDgSvyg//bDYDzrr6Pt9/7qE39DRv5MQ8NHsrLb4zk408nsMgi3Vh9paXYe4eNGLTuynTt2oVjv7EDA1Zciq9+70pmzy7OlLNjv7FDzasXXnp65fqdAOde8U9+fmXr6s9tu9lafHPvLQGYPGU6v7/x363qZ3769le3ZfstBjJ79myOPeemwgUjBYHFoVqrSSIG5MkWNdxvTeBoYA9gZaArWeLMg8DVKaUX6j3WojOA1TJ9gHuAdYEHgLuAD8gynw4FNiXLLLo5ItZNKc2zZEZk83T+AjQskZaAe8myt0YB3YE1ybKVvgDzvlJERB/gP0DDPKE3gb8DrwHTgdXJssM2ArYDHoyIrVNKU5v2VWJN4BZgceBWsifFp2RZWDOBfwMHkGWLfTe/z8X57dUsSvZ39h7wEPAy2TmbDiwNbJ2fi57AORExNqV0WTN91mIT4BSygOB1wBNkGV9rA8cCy5Flz10L7FaH4y00+i25NOsP2oplV1i5+cZlPPGvu+dMXdn88zvSe7HKmQq1mjplypztRWooBl/aZuqU2oqftocXnn6C2/9yDQBdu3XjsO/+mC5d5i1dONfjX2TRmvqu1zl47r+P8MwTDwFw8DGn0HvxPq3uS53b/155mZtuzFa9O/o7x7PSyqvMt2Md8OWvMeS5ZwG47JLfst4GG7DRxnMH3GfPns0FvzyXYe++M9ftkyZNnG/jas6CPEfQcc+Tiqtr12zq4KKLdOPFoSP4zfVtWyhktyN/x+PPvVl233lX3cuBe27B5WccRI/ui7Dndhtw0iE7c1Ebj9nZrLJ8P2781eFz3j+ccfGdjPros3Ye1dxWXq4fPzshy8i/6u9PMPjFmiazSB1CROzB3MGrWu/3beC3ZJ+TSw3ML0dHxDkppXPaPMgOxABWywwiC+Z8NaV0S+mOiLiMLKD1RWBZ4HDgojJ9fI/G4NUHwP4ppcHlDpZne/Urs+tKGoNXZwHnppTm+poiIs4HzifL8toY+Gl+qWQbYBKwa0rpoQpt3sszvxoMSSndXqVPgA+BbVNKT1TYf3lEnAncT/ZEPC8ibkgptfWd8X5kAcHdUkpzpRFFxNXAM2RZartGxKYppSFtPF6nc8ZFf5yzPW3qFD4Y9T7PP/U49912E7fecDn3334T3/nhuaw/aMua+5w9ezZPPHjPnOvb7rZPXcdcT7++9vaq+6++6Bz+89A9LLnM8s22bY1333yNK84/fU5trwOPOJHVB1avbbWgTZownhsuOx+AQVtty5bb7tzOI1JRzZgxnXPOPI1Zs2axzrrr8c1DDpuvx9t9j73459138uR/n2Dy5Mkc9X/fYrfd9mDzLbeid+/ejBw5gvv+eTdvvjGUfv36M336NCZNmgRAl5g3SLzPfgewz34HVDzeqJEj2XfPbLXQM885r2rbShb0OYL6nyfp5EN3YdP1VmHmzFkce85NzJo1u039VQpeNbj5n8+w6CJdufKsgwH4/uG7cvGfHy5M9s63z/wT3z6zckbmwftsxdXnZJmPa+95Rt1rU/Xr04t//P47LLtk9uXS7Q+9wKV/eaSux6iHS08/iD6L9WTEmE85/fd3tPdwpLrJE0+uzK9OIkt2qeV+B5fcbzbZLKmHyGIR25AFxLoDZ0fEtJTSr+o57iLz3UfLndc0eAWQUppJFpxqsEfTNhHRG2iYgzCLKsGrvM93mwZWImIj4MD86jUppbObBq/y+85OKZ1ClqkFcHxENJea8tMqwatWSSl9UiV41dBmGFlWFEBfsuBTPRzcNHiVH28M8POSm+b5XWlu3Xv0ZJXVB7LfN47gnN/fyBJLLs3E8Z/xm7NO5v0WFEF/9YWn50xbW3rZFVo9ra6pHj0bv5iYUWGVvlKlbXr07FWXMdTT++++yYWnnzAnM2rfA/+PXff9WsX2cz3+GRVL5s2lHufgz1ddxGefjqVnr94ccuwPWtWHFg7XXHUFb7/1Jl27duWnZ55D12YWWmirLl268MsLf8uOO2VBpVkzZ3LvP+/iZ2f9lB/94Htc/Ntf8+YbQ1lq6aX57SVX0KVL43gW79M+WYQL+hxBxzxPKq61V1uWn3w7e0t12c2PMuTV8jUm6+2GOwbz5vCsiHv/vr353CarL5DjFl2fxXpw1+XHs35evP3BJ1/j0B9f176DKuNb+23Nrp9fF4CTfvk3Jk5u/n2c1IFcQDb1730aA1JVRcTSwKX51dnAASmlb6aU/phSuiGldDTZbK2GKRTnRsTa9R12cRnAapnZlKlH1SCl9DowIr+6QZkmewANFa/vqBa8qqI0/fD8Gto3FNroC2xVpd0U4A+tGE+9lAa5aisWUN0LKaVq63z/q2S73O9qLhHRPSL6lF6mVynw3ZktvdwKfPWwLN44c+YM7vrrPHX8K3rsX401VLbdbZ82r3zXoFfvxmmIE8Y3nxY/saRN6X2L4P1hb3H+T45nUl5Af++vHcqXDjm66n269+g158Pu5IkTmTVrZrPHmescLLZYi8f54jP/4b//vheArxx6bJtqaKlze2Po61z3x+y/l4MOOZR11l1/gRy3d+/eXPCbi7n0ymvYY899WHHFlejeowe9evVizbUGctTRx/LXW+9k7bXXYfLkLKsoIubLin/Naa9zBB3rPKm4IoIrzzqYHt0XYdjIjzn70rsX6PEfe7YxU2ud1cqv1rsw6bNYD+6+7Hg2Wy+bhvzwU0P56veuYvqM5t8fLEjLL92XX56cLVRx6wNDuOfRl9t5RFL9RMROwFH51WPJytnU4hSy0kUAl6aU7mzaII8jnJ5f7Qac2YahdihOIWyZoSml5nJ7R5BNTSs39W/bku3W5sdul/+cCqwXEc3NKVqxZHs94LEK7Z6vw7S9ivICdN8iG//aZAG1pvN5G6xUh0M+2cz+ESXb5X5XTf2YJi8MN1z5G4484UctHVensNFmn5+z/fpLtc2+nDjhM4Y8mf35RZcufGGXveo2nuVWbKwT8/EHo5pt/1FJm+VWmr81ZlqiIXg1Yfw4APb8yrf4yqHHVr8TWRbFMsuvzOgRw5g9exaffPQhSy9XeTXGmTNn8unYrKhu9x496bdk9VULy3n0/jvm3H/ihM+48+Y/lm03oiRD74WnH+fTsdm35KuvvT4bDKoWU1dncdedtzFz5gy6dOlCt26L8IerLi/b7vm8FlPDdkO7AQNWY5fdvtjq42+19efZauvPV9z/1ptvzFkEYZVVB7BYlRUE55f2PkfQMc6TimuDtVZgq41WA+DVt8fw3YN3LNtuicUbM377LNaTU49sXMjlN9c/1OoAy8efNr6F7bt4pbeXC4c+i/XgrkuPY4sNBwDwyNND+fJJVzB12oz2HVgZX9plEP36ZH8TH34yYa6/h1KbrNNYd3WDtVac0+6DseO57rbm3vKrXur0vfNCISJ6AVeT1bP+a0rp7oiodZnur5ds/6ZKu6uBc8imJe4bET1TSlOqtO8UDGC1TLMr+QENaTnlpuuVBmYqr8dd3YD8Zw/gthbet9rqgiOq7GuTiDgLOI3a/97qMS+h6u8qpTStJPunRw39/YImNc2+dfT3ilUBcwHq0avxDejkibV9mfDkw/czM5/etuGmW9U1Y2eFVVYjunQhzZ7N8LeHMnvWLLpUmX7z7puvzdleadU16jaOtpgTvPosW/vhi1/6Jl87/Lia77/SgDUYPWIYAO+++WrVANbwt15n9uzsg+iKq6zeqky4hkL806ZO4bY/XVXTfZ777yM8999HANh1v68bwFpY5H8rs2fP5to/1JQ9z7PPPMWzzzwFwPY77tzm4Ez1Yz09Z3vTzWp9b1lnBT9H2fEKcJ5UWKX/i+y53QbsuV2zye3069OLs45rrIV5xc2PtTqAteQSjWVlPpvQ6T+/VdQQvNoyDyY+9uybfOnEK5gytXjBK5g7IPKdA7ev6T6D1l2ZQetmAa0Xh44wgKWi+gXZwmqfACfWeqc8OWXV/OprKaWKKxqklCZExONkNbh7A9sD97V6xB1EZ5tCWFoLqiXBuUUq9NFU2ypRzh2YaW220xJtOH615cnmy//2EfEDssylbmTn7yGySPGRZNHlA0ouDepR+KOtv6u5pJSmpZTGl14W7d78aned1Qcj35+zvXjfJWq6z+NzTR/ct67j6dmrN2utuxGQraj3xqsvVmw7e/ZsXnmucfbuhpt/rq5jaY2mwavdDziIA484oUV9bLhZ48zbl579b9W2pfs32qJyxoXU2aWUuOuOf8y5vt8BX2nH0RSX50lFt93ma83ZfmP4B+04kvbTNHj1xJC3OOC7lxc2eCV1VhHxeeD4/OopKaWWvChtWLL9TA3tS9tsWLFVJ9LZMrBKM2Jaktte2nZcfYZS1viS7ZYXnclMJAtifZJSWrKZtu0qInoAZ+RXJwI7p5SertC2phUZVAwP39v4QWat9TZutv2wt17nvXfeAGDxvv0YtNV2zdyj5bbablfe+N8LANz3j5tYZ8NNy7Yb8uSjc6YQrrHOBiy9bOVMpWqOOvkMjjr5jOYbNmPk8HfmDl7t/w2+cWTNX9TMsenW23Pj5RcyY/o0nnrsQb58yDH0W2reqYFTp0yeM/0vIthy211aNe4TT7+gpnYNqzUCHHHS6Wy7696tOp46ru//8Cd8/4c/abbdlZdfwtVXZDVLjzrmOI7+zvHN3KPtbv37Xxn6epaRuenmW7DBhhu1qp8VVlyRZ198rfmGFRT5HEH9zpM6r5feGEnPQc3/Pa6yfH+G/jNb8X34qLGss1fby7YctPeWDByQZXWPmzCZ/wx5u819Lih/uusp/nTXU23uZ/He8wav9j/+MiZPrW1hl/ZyyU2PcMlNjzTbrnS1xhvvHFx1ZUepPeWff/9Ilij0UEqp9mLBmdJi7BWzryq0WSgKuXe2DKwxJdtrtuB+pW3HVGzVdqXT9JqrXdVcH0tERGuDYAvK52gM1F1ZKXiVW20BjEdV/Puf/+C1F5+dMzWsnNmzZnH3367n3/fcOue2nfb6crN9l2ZffX6nPejWrWWx8+8fvj+H7bUVh+21Fa+99FzZNtvutg9LLp0Vbn3h6cd58O6/z9NmzMj3uPHyxsDLlw6uXhx9fhv53jv86ifHzh28OuqkVvW1WJ++7LpPtlLhjOnTuPLCM+esYthg1qyZXPv78xj3STbDduvtd2eFlQeU7e+2P18955xffdE5rRqTND/cdcdtbL7xumy+8bp8+4hvVWz38ksvMH16+Q9vKSX+ccvfuOBX2YK0PXv24oyzzp0v420vnid1dD87YV9WWb5a9Qv46u6bcclpB865/uvrHmTGzPKTKa46+2CmPH8JU56/hNOO3rOuY21Pi/Xqzp2XHjtP8GrSlPYPXm272Vpzzvnr95zd3sORalZuAa+IqGX6zTlkgaQpQGs+aCxRsl1L+aKxFe7baXW2DKwXyWpQdQfWjohla0zZK5103favQSp7DGiYF7QfjSsEtsSjZKvmdQF2B26t3rzuSqfmNVc4p3QZmLcqtsrs0brhqF7efv0Vbrj0V/RfelnW32RLVhqwBn2W6E+3bt2YPGkiI4a/zfODH+PjD0bPuc/eXzu0YqZTg+nTpzH4kQfmXN9ut32qtG69RRftzv+deBoXnfU9Zs2cyZ8uv5CXnxvMoK22pXuPngx/63UefeBOpkzKZu9uv/t+rD9oy4r9vTJkMNPqtNLkwPU2nmeq5Scff8Cvfnwc48dlwatV11ibgRsM4rknH63aV/fu3dlg0/ILde5z4OG8PORJ3n/3LV5/eQinH38w2+++H0svtwLjxn7MEw/dzfvvZk/FJZdejq8f8d22PzipoK656gpefOF5Pv+FbVlv/Q1YZpllmTFjBiNGvM/DD/2LN98YCkD3Hj341a9/y0orV17QYczoUbz+WmtLV85tiSX6scmmm9Wlr3qo53lSx7XqCkty2P5zT6nfYGDjOkAbr7MSZx47dwbtI8+8waPPvDHfxnTkV77AyYfuwrOvDOfJF9/hjWEfMm78ZBbp1pXVVl6KvbffkM3WX3VO+3sff4XfXP9gm4+7/RYD2WGLgXPdtvE6jWVs99t5E9ZYeem59l93+5MMHzWWpjZZZyVWXq56EK5WQ4d9wBvD5v1Yc8clx7L1xqsD8Mlnk7jm1v+w01brNNvfg4NfKzu9sO9iPTnpWzvPdVtpIHHAikvO87fwwuvvc8e/K5dvUOcQzX7061TmWcALOBs4q9IdImIL4OT86pkppdakg5YmqEytoX1pGaCFYnWVThXAygtz30cWHOoKHEfjFLayImJnGrOhxgCDqzRvq3vJIqlLAftFxNb5EpgtcQPZ4wI4IyLuSSnV8sddL6W1u5qb9jepZLtiRlxE9ANOasOYVEeffPTBXBlT5fTsvRhfPfTYmrKvhvz3ESZNzGbPrrHOBqy4yup1GWc56w/akmNP/TnX/PZcJk+awItPP8GLTz8xT7vtd9+PQ487tWpf1178S8Z+OLpqm1qd+ovLWHejuT+wfjBqBOPHNS5qOvztoVx87g+b7WvJZZbn19feXnZfz169Ofns33LJeT/i7ddf4aMxI7nl+svmabfCKqtx/E9+yRL9l2rZA5E6mAkTxnP/vfdw/733lN2/+uprcNqZP2PjTQZV7eeZp5/i7DOan+JXi00334KrrmnN91fzT73OkzquVZbvz4+OqrwQwEYDV2KjgXMvEj1z1uz5GsCCbJXdLTdabU52UTmzZs3m0r88wum/v5NZs9peAvULm65Z9Vzsvf2G7L393KVm/v3U0LIBrGO/sQOH7Fv+S6eWOveKf/LzK/85z+2fH9S4GE3/vr259ueH1tTf2nuewXuj511cve/iPas+/nJ/KzfeOdgAljqbeRbwonGxtnlExKJkUwe7AkPK3Fd10qkCWLlfAvuSZQf9KCJeTSndXK5hRGwEXF9y04UppfmWb5tSmhwRPydbDrMrcHtE7F8piBURqwL9U0rPl/TxdET8HfgqsBFwR0QcnFL6qEIfAXweOCCldEodHkbpPNvqqTfwLJDIfhdHRsTlTSPREdGfbDXF1hUiUt0cfMzJbLr1dgx95XmGv/MGH40ewYTxnzFr5ky69+xJ3yX6s9KANdlws63Z4gs706t3bTNYH//X3XO2t911/mRfldrs8zuwxjob8O97buWFp5/g4w9GM2PGdJbotyRrrb8x2+22b7NZYx1ZvyWX5rQLrubJh+9j8KMP8P6wt5j42Th6LbY4y688gC2/sDPb7b4viyxSbU0HqeM75rgTWH+DDRny3LOMGjmCsWPHEhH0X3JJ1l1vfXbYaRd22XX3Fk9p7mw8Tyqqfb5zKVtvnAWvBg5YlqWW6E3/vtl3p+MmTGHou2N4Ysjb3Hjnk7w3+tN2Hq2kziSlNI0qAasyfko2S2oWcFRKqdrCcNWUJov0qKF9z5Lt2paG7+CiWr2bjioiziBL8WvwJHAPMAyYQTa1bXsaM7UA7gf2TCnN89VNRDScpEdTSjs0c+xH8r5JKc2TZ5kHlP4GNCzhk4B/Av8CRpOtFLh63sf2ZCsX/LZJH4sDjwMN1bMnk00lHAx8RLaq4rJkAa5dgJWAt1NKazbpZwCNAanrU0qHVXts+X26kdXhWpbsXP42P+6cYjsppftK2v8V+Fp+dSLwB7KpnjOBQcChwJLAdUDD8cue54i4Lm8PsFpKaViT/TsAD+dXz04pndXMY6n591rOk2+N63xPHkmtssFKfZpvJGmhscznWraSrKTObcrzl3T4+XePDP1kofnss8Pa/Wv+fUXExmSrAS4CXJBSKjulIiLOonFaYtnPqk3iGLV8nj2cLPML4JqU0pG1jruj6pRfp6WUzomIscD5QC+yYuKfq9B8NnA1cGK54NV8GFuKiAPzsZ1IFkDbK79UGl/TPiZExBeAy4CDyR7jIfmlkhFV9tUspTQzIk4jC0QtAvygTLPSJ/wxZNMHNyWb03tSmfa3AN+hMYAlSZIkSSqILh0+BDffHEb2uXg2MCMiflqhXeky7NuVtBuaUmpYfWpoSZtaFjkrbTO0YqtOpFMGsABSSpdGxM3A4cBOwIZAf7LHPI6sqPjjwLUppQX6y85TCr8fEVcCRwI7AwOAvmSZTMOBp4E7yLKzyvUxEfhWRPyS7EmzPdkfcD9gOlkm1lDgv8C9zawA2NLxXxMRw8mCU1sAy1AhxTGl9GlEbEMWoDoQWJcsy+wDsimGN6aUbgfIktMkSZIkSeoQGj7EdgFqLZi5Y36B7DN/QwDr5ZI2W9TQT2mbV2o8dofWKacQSguCUwglNXAKoaRSTiGUVKozTCF87I2FZwrhdgNbNIXwt2Qzq1rrjpTS/iX9DQcalvydp2xOSbvFyBah602WBLN0SmlyubadSZf2HoAkSZIkSVJHk1I6KaUUzV2Yu0b32SX79m/S5V9Ltk+ucuhvkwWvAO5cGIJXYABLkiRJkiSpCC6kcUXB4yJi36YNImIr4Gf51ZnMHRzr1DptDSxJkiRJktR2QYefBdkhpJQ+jIjvAteRJRzdltf2/hcwC9gGOJTGGtRnppReb4+xtgcDWJIkSZIkSQWQUro+InoBF5EFqg7KL6VmAT9PKZ23oMfXngxgSZIkSZIkFURK6fKIeBA4BvgisDJZRtYo4CHgqpTS8+04xHZhAEuSJEmSJGk+SSmdBZzVwvu8CXw/vwgDWJIkSZIkqYqwBJYKwFUIJUmSJEmSVGgGsCRJkiRJklRoBrAkSZIkSZJUaAawJEmSJEmSVGgWcZckSZIkSRVZw11FYAaWJEmSJEmSCs0AliRJkiRJkgrNAJYkSZIkSZIKzRpYkiRJkiSpoi5hFSy1PzOwJEmSJEmSVGgGsCRJkiRJklRoBrAkSZIkSZJUaAawJEmSJEmSVGgWcZckSZIkSRVZwl1FYAaWJEmSJEmSCs0AliRJkiRJkgrNAJYkSZIkSZIKzQCWJEmSJEmSCs0i7pIkSZIkqTKruKsAzMCSJEmSJElSoRnAkiRJkiRJUqEZwJIkSZIkSVKhWQNLkiRJkiRVFBbBUgGYgSVJkiRJkqRCM4AlSZIkSZKkQjOAJUmSJEmSpEIzgCVJkiRJkqRCs4i7JEmSJEmqKKzhrgIwA0uSJEmSJEmFZgBLkiRJkiRJhWYAS5IkSZIkSYVmDSxJkiRJklSRJbBUBGZgSZIkSZIkqdAMYEmSJEmSJKnQDGBJkiRJkiSp0AxgSZIkSZIkqdAs4i5JkiRJkiqzirsKwAwsSZIkSZIkFZoBLEmSJEmSJBWaASxJkiRJkiQVmjWwJEmSJElSRWERLBWAGViSJEmSJEkqNANYkiRJkiRJKjQDWJIkSZIkSSo0A1iSJEmSJEkqNIu4S5IkSZKkisIa7ioAM7AkSZIkSZJUaAawJEmSJEmSVGgGsCRJkiRJklRoBrAkSZIkSZJUaBZxlyRJkiRJFVnDXUVgBpYkSZIkSZIKzQCWJEmSJEmSCs0AliRJkiRJkgrNGliSJEmSJKkyi2CpAMzAkiRJkiRJUqEZwJIkSZIkSVKhGcCSJEmSJElSoRnAkiRJkiRJUqFZxF2SJEmSJFUUVnFXAZiBJUmSJEmSpEIzgCVJkiRJkqRCM4AlSZIkSZKkQrMGliRJkiRJqigsgaUCMANLkiRJkiRJhWYAS5IkSZIkSYVmAEuSJEmSJEmFZgBLkiRJkiRJhWYRd0mSJEmSVJE13FUEZmBJkiRJkiSp0AxgSZIkSZIkqdAMYEmSJEmSJKnQrIElSZIkSZIqswiWCsAMLEmSJEmSJBWaASxJkiRJkiQVmgEsSZIkSZIkFZoBLEmSJEmSJBWaRdwlSZIkSVJFYRV3FYAZWJIkSZIkSSo0A1iSJEmSJEkqNANYkiRJkiRJKjQDWJIkSZIkSSo0i7hLkiRJkqSKwhruKgAzsCRJkiRJklRoBrAkSZIkSZJUaAawJEmSJEmSVGjWwJIkSZIkSRVZAktFYAaWJEmSJEmSCs0AliRJkiRJkgrNAJYkSZIkSZIKzQCWJEmSJEmSCs0i7pIkSZIkqTKruKsAzMCSJEmSJElSoRnAkiRJkiRJUqEZwJIkSZIkSVKhWQNLkiRJkiRVFBbBUgGYgSVJkiRJkqRCM4AlSZIkSZKkQjOAJUmSJEmSpEIzgCVJkiRJkqRCs4i7JEmSJEmqKKzhrgIwA0uSJEmSJEmFZgBLkiRJkiRJhWYAS5IkSZIkSYVmDSxJkiRJklSRJbBUBGZgSZIkSZIkqdAMYEmSJEmSJKnQDGBJkiRJkiSp0AxgSZIkSZIkqdAs4i5JkiRJkiqzirsKwAwsSZIkSZIkFVqklNp7DJLUIUVEd+DHwC9SStPaezyS2pevCZJK+ZqgzuS10ZMWmsDBusv3Nt+soAxgSVIrRUQf4DOgb0ppfHuPR1L78jVBUilfE9SZGMBSETiFUJIkSZIkSYVmEXdJkiRJklRRWMVdBWAGliRJkiRJkgrNAJYktd404Oz8pyT5miCplK8JklRHFnGXJEmSJEkVvT568kITOFhn+V7Olywoa2BJkiRJkqSKwpCOCsAphJIkSZIkSSo0A1iSJEmSJEkqNANYktQKEXFYRKT8clh7j6epiDirZHw7tPd4pLaKiGH53/OwCvubfU4210d7Kxn/I+09llp0tPFKarmIuK7kuT6gvccjaeFmAEtShxARm0TERRExOCI+iojpETElIkZHxJMR8YeIODoi1mjvsUrKlHzoaellifYeez3kgeSzihjkluqlSfD4uvl9v4VR/h6o4fVkk/YejyS1F4u4Syq0iOgNXAEcXGb3IsBy+WVr4Ij8PnumlO5dYIOUpPLOzH8+ClzXjuOQ1LFtQuPryTDghfYaiBZe1nBXERjAklRYEdENuBfYNr9pJnA38DgwCkjAUsCGwHbAunm7rvN7bCml6/ADqdQSB7Sg7aT5MYCU0oD50W+9pJT8fCCpUFJKhwGHtfMwJAkwgCWp2L5DY/BqGLBnSum1So0jYi3gSGDcfB+ZpBZJKd3e3mOQJElSx2UAS1KRHVKy/Z1qwSuAlNKbwKnzd0iSJEmSpAXNIu6Simydku1H29pZ0xXIIqJHRJyYF4H/KC8K/1ZEXJZnc1Xrq5YVz+ZaoSsiloiIU/NC9B9GxOymq3dFxOIRcWBEXBkRz0TEJxExIyLGRcSrEXF1RGzZ1nMhLYxqWMlwntU7I2KniPhbRAyPiKkR8UFE3BMRX65ynBQRqeSm7SsUqz+s3P1qWdUvIgZExLkR8d98TNMjYkJEvJKvGvaViFi0wn0HRcRP8sfxbkRMjohp+aIYD+Svi4s1NwZpfirzf2iPiDgh/z97bMn/2ZdHxGot6LfVz52SPraLiKsi4rX8/+epEfF+RNwaEV+OiIrTgfPjz1W8PiJWiIhzIuL5/LGlfCyH5a8l15Z0cW2515Myx1kqIg6PiOsj4oV8nDPy9xUvRMTvImLdpvcr00/VVQgjYoeS/WeVPJ7zIuJ/ETExIsbnj+2MiFi8uWOqoGIhuqiwzMCSVGSlr1HLkk0jrIuIWImsntbGTXatQTZ18fCIOCaldH2djjcIuB1YpUqbRYEPgR5ldvfNL+sCR0bElcDxKaWZ9RifpHlFxK+Bk5vcvAywJ7BnRNwOHJhSmrYAx9QVOBf4PtlCFqUWAdbPL4cCJwG/a3L/M4CzK3TfsCjGrsAPI+KAlNLTdRu81Ep5gOoOspqXpdbIL4dExN4ppUeq9NGm507exxLAjcDeZQ6xUn75EvBYRHw5pfRxMw+NiNgVuBno31zbWkXE6sBQyn/W65dfNga+GxFnppR+Vsdj7wb8hXkfzyb55ZsRsVNKaWS9jilp4WEAS1KRvUXjm9WT8ks9LAL8nezN2wvAn4H3yIJkXyErCN8D+GNEjEsp3dHG4y1J9sZ7ZeBfwF3AB2QfFJcpadclP+4HwEPAi2TF6qeQvdncHPhavn00MB74YRvHJqm875J9EP0M+CPwHNkCEduQfcDtDuwP3AQ0zcZqKFh/W/7zf8BPyxxjSEsGlGd1/AX4an5TIlvo4l9krxXdgTWBHYAvUP575F7ALOBp4D/AG2R1A7sCA8g+mG8DrADcGxGbpJTeb8k4pTrrA9xD9gXOAzT+H7o82XNxU6A3cHNErJtS+rRpB/V47kREH7LnzHr5TW+SvZd4DZgOrA58A9iI7H3EgxGxdUppapXHtiZwC7A4cCvwIPAp2ZddM4F/k72e7ET2mgRwcX57NYuSfc57j+z9xMtk52w6sDTZys1fBXoC50TE2JTSZc30WYtNgFPI3mddBzwBTADWBo4le98zkCyjbLc6HE/SQsYAlqQiuwn4Rb59YkQMBK4BHk4pfdKGflfIL5cAJ6WUZpXsuzgifgj8iiygdFVEPJxSGt+G421A9oHx4JTSn6u0m0GW2XF/Sml2mf1/iIjTyN68fw44OSIuTSkNb8PYJJX3JbIPqDullEaU3H5DRDR8gFwa+FJEHJhSurmhQUPB+pJZRB/XqYj992j8AP4BsH9KaXC5hnnGSr8yu24Ffp9SGlXhGL+MiIOB68kyKM4kWxxDai+DyII5X00p3VK6IyIuI/s/8YtkX0IdDlxUpo96PHeupDF4dRZwbpP3D0TE+cD5ZFleG5MFrssFrxtsQ7bq6q4ppYcqtHkvz/xqMKSG15MPgW1TSk9U2H95RJwJ3E8WUDovIm5IKU1spt/m7EcWENwtpfS/0h0RcTXwDFmW2q4RsWlKqUVBfEmyBpakIvst8N+S63uQfVM5NiLeiYhbIuIHEbFltXoTFTwLnNj0zSdASul8GjMnlqE+y0df0kzwipTSrJTSvRWCVw1txgLfyq92BQ6uw9ik+a5czZYKl+vae6y52cDXmgSvAEgpvcLcQZ35ngkZEb2Bn+RXZ1HlAzhASundch8OU0rPVAleNbT5E9kXCADfiIim062kBe28psErgHwa/fdKbtqjaZt6PHciYiPgwPzqNSmlsyu8f5idUjqFLFML4PiI6F7lcQH8tErwqlVSSp9UCV41tBlGlhUFWYmC/ep0+IObBq/y440Bfl5y0zy/K0lqjgEsSYWVp93vDFwITG6yezWyaTvnA08B70ZWeLjWD1oXVgsU5f02+EqNfVbz+zr0AUBK6S1gTH5163r1K2kuD6SUXqi0M6V0J1mNGYBBec2Z+WkPsunIAHdU+wBeJw0ffnuRTYmS2stsytSjapBSeh1oCDRvUKZJPZ47h5Zsn1+xVaMb8p99ga2qtJsC/KEV46mX0iBXPd5PvJBSerjK/n+VbJf7XanAYiH6p+JyCqGkQsuDWD+IiPPI6s3sSvYmq+mKQ6uSZWx9IyL2yjOVqnmwmf1PkdVtWBzYLCK6NBPwqmZUSumdWhtHxArAIWTBu/XIpjL0qtB8pVaOSVrQDmi+CZDVbCmC5l4jGtqsnW9vCdT8PG+FbUu221SXL89Y3YMsOL8ZWX2+xan8vnAlshpgUnsYWkPZgBFkf6flpv7V47mzXf5zKrBeRKxXrTGwYsn2esBjFdo9X4dpexVFxJpkWdvbkb1W9SWre1VOPd5PPNnM/tKM1nK/K0mqygCWpA4hL8p6bX4hIhqKmu8IfJPG1f22Ipv6snuV7j5tLsCVUkoR8TZZQdJewBJAa+tuzTMFqZKIOJqsfkelgFVTfVo1ImkBq1MNqAXpzRa2WWF+DSRX+uHy1dZ2EhHLkU3F3qYFd/N1Ru2p2ZX8gIaVQMtN16vHc2dA/rMHjSUGalVtdcGa3x+0VEScBZxG7Z/36vE8r/q7SilNK6n4UG7FZUmqygCWpA4pD2j9C/hXXoj0tzTWctgtIrZJKf2nwt0n1XiY0naL0/oA1pRaGkXEV4ErSm56EngUeJdsJbRpJfuuIisg3bWVY5JUXS2vE01fI+an0g+XrcrYiIhuwH1kxaUhW+3sLrIVysaQvVY11PUpXfXM1xlVU1oLqiWfLUqn/M9TT6pEa7OfG7T5uUP2JVZrLVplX03vD1oqIn5AtgADZOfvYbK6XO+RZZdPL2neEJCrx/O8rb8rSarKAJakDi+lNCMiTiRb/rohrX9XGouoNtW7xq5L201o3eha5Lz85yzggJTSXZUa5qv5SJp/anmdWJCvEaUroS7Wyj6+TmPw6iGy15my446IFcvdLpXxWcl2SwK5pW3H1WcoZdXjuTORPBM7pbRkM23bVUT0AM7Ir04Edk4pPV2hba3vhyRavFySNB9YxF1Sp5CvRPRIyU3LV2neLyKqpfQ31IhpKMo8mfn75rph2e4186u3NxO86kP1KQmS2m7N5pvM1abqyn51UDrVqLn6O5XsVrJ9UqXgVa5pnUGpkjEl27U8b8q1HVOxVdvV47nT0McSEdHaINiC8jkaA3VXVgpe5XyeS+pQDGBJ6kxmlGw3N01g12b2b0njtINn21DAvVbLlWy/1Uzb3fH1W5rfmnuNANilZPupMvtT/rMe31uXFoFu7XL3LXmd+WIrj6GFz4s0TnFfOyKWrfF+25dsl3v+1Es9njuP5j+7UL3G5vxS+h6kudeTljzP92jdcCQ1FRGLR8SXI+KSiPhvRHwUETMiYnxEvB4RN0TEFyNqz2WLiDUj4oKIeCUiPouIiRExNCIujYhN5uPDKSw/AEkqrBa8CSYiFmHuN2IvN3OXk5v5D+SUku1bah1HG5TW0qn4DXZELAr8dP4PR1ro7RoRG1XaGRF7AevkV4eklN4t06whkF6PaTr30lggeb+IaM2S97W+znwdWL8V/WshlFKaRlZbDbI6Ssc1d5+IaFhlF7Lsq8HzZ3RAfZ47N5Rsn5FP01uQSr+Ua+71pNbneT/gpDaMSVIuIk4GPiT7zHAcWSbkUmQlmxYnWwX0ELLXo0cjYpUKXZX2+W3gJbLPJOuTfbHeGxhIVvf32Yg4o3IPnZMBLElF9mxEXBcRn6vWKE/nv5bsBR2yehx3NtP3lsBvImKe18H8P6Gv5Fc/BK5v0ahb53Ua36DuW+4xR0RP4E9AxQ/VkuqmK/C3iJhndcGIWA+4puSm8yv00RDUWid//rZaSmky8POSsd1e7YN4RKwaEYOa3PxMyfbPI2Keos0RsSPZIhFSS/ySxozDH0XEgZUa5oHh0v9XL0wpTa/Uvq3q8dzJp+H9Pb+6EXBHRCxdpY+IiG0i4sK2jX6O0gD5ps20fZbG38WREbFGmfH1B25n/q+eKi0sBtK4suZIste4E4ADgcPIFmlqeJ+/LfBIRCxTqbOIOBi4EuhJloF5E3AEcCjZ/9HTyF7Pzo6IU+v8WArNIu6SimwRshfqQyNiOFkK/wtkQaVpwJLAIOBLZCvyQfam7YSUUrUVA0eRrcRzIrBdRPwZeB9Yhixw1TCtIQHfTimNL9tLHaWUpkfEZcAPyR73oxFxHfA02bep65Gdi5XJii+vzdxLg0uFFhH7t6D5Uyml0fNrLDW6Ffgy8L+IuAYYQvZm8fNkb0Yb3qj+I6X01wp9PEj2Ybc3cFdE3AB8ROOHy5dTSiNbMKbfAduQvU4tC/w3Iv5JtiLraLLVzlYnew3bnuxb2+dL7n8N8GOyb4P3BV7MxzQc6Ec2NWo/sjfLfwIObsHYtBBLKQ2OiLOAs8n+D/tLRJwA3AMMI5vivxzZ3+V+NK54dz/wmwUwxLY+dyD78DiQbCGE3YBhEXErWfbYR2SPe1my5/wuZP9Hv83cGd2t9TLwQd7/wRHxcX7cyQ0NUkr35T9HRcTfga8BfYEXIuIPZFM9Z5K9bzqU7D3UdWSvZ1KzrOFeVQIeAC4EHipTeuT6iPgl2Wve2mT1534J/F/TjvLg+KX51dlkC66UfjF/Q0RcS/Z5oBdwbkTcnlIaWs8HVFQGsCQV2YtkdWgCWBX4Vn6pZAzw3ZRSc1P+ZpC9ib2H7I1c0ywFyAJkx6SU7mjpoNvgdLI3vl8keyN8VH4p9SjZSmLPLcBxSfVwW/NN5jiALDugPV1C9sH7+/mlnDuAb1bp49f5/mWBnfNLqcPJPkDWJKWU8syW88kC8F2BvfJLOXO9gU4pfZhPD7yF7E3v+sCvmtxnMnBM3rcBLNUspXRORIwl+/vsRTaFplIG9WzgauDEBVBjss3PnbyPCRHxBeAysudGL7IpQYdUOfSIKvtqllKaGRGnAX8ge3/wgzLNSuMLx5BNH9yUrKD7SWXa3wJ8BwNYUj2c1syX56SUhuf/B7+Q3/T1iDg+zxItdQqNdXgvbRK8auhrcEScTvY+oxtwJnBQWx5AR+EUQkmFlVLanewbzMPJ3rQNJvsGchrZt4jjgP8BfyF7A7lmDcGrhr5HAluTvakbDIzN+32HLM13w5TSdXV7MLWNaTrZm+kjyIrOfgZMJ0tFvo/sG9OdUkpjF+S4pIVVSukUskyKv5NlaU4ny7S4D/hqSmn/lNLUKvcfRfYB8iKyOhYTaMy+au2YZqWUvk+WlXkBWWbYJ8CsvP9XgD+SZblcVub+95JlkFxFNi1pOtlrzav5ODdJKd3YljFq4ZVSuhRYhSzAci9ZAGcy2d/Zh8B/yYKm66WUjsnrZy2osbXpuZP3MTGl9C1gg7yPp8leE2aSPc7hZFkYZwFbpZR2qOP4ryH7Uu9Wsizyaq89n5JlnJ2cj3EC2Xuc94B/kGV0fLXa65ek2jUXvCpp9yLQkCnVi/J16r5esl0tQ/VqGmve7dvWUgUdRaTUpvdRktRhRMQwskyu4SmlAe07GklFk0+BOjO/umNK6ZH2G40kScXx9odTFprAwRrL9JxvMyYj4mlgi/zq1imlp0r2rUf25TzAayml9Zrev0lf99K4avAeDVOJOzMzsCRJkiRJkuajfDXxgSU3DW/SZMOS7WdoXmmbDSu26kSsgSVJkiRJkiqzins9HES2uALAkJTSmCb71y7ZfpfmlbZZu2KrTsQAliRJkiRJEhAR3YHuTW6e1pa6ffnqgqULp5xbptkSJdsf19BtaV3cJSo16kycQihJkiRJkpT5MdkCJ6WXH7e2s3zq4K3AMvlNt6eUyq3OvFjJdi2LLEwp2V68lcPrUMzAkiRJkiRJyvyCbGXeUq3KvoqILmQrnG6b3/Q28H+tH9rCzQCWpIWGKw9KqialdBZwVjsPQ5KkwomFqAhWPlWw1dMFG0REAFcA38xveg/YJaX0aYW7TCzZ7lHDIXqWbE9o+Qg7HqcQSpIkSZIk1UkevLoMOCq/aQSwU0ppWJW7jSvZXqqGwyxZ4b6dlgEsSZIkSZKkOsiDV5cCx+Q3jQR2TCm93cxdh5Zsr1bDoUrbDK3YqhMxgCVJkiRJktRGJcGr7+Q3jSILXr1Vw91fLtneoob2pW1eqW2EHZsBLEmSJEmSpDYoE7waTRa8erOW+6eUXiWrkwWwbkQMqHKsxWgsDD8ZeLQ1Y+5oDGBJkiRJkqSKIhaeSxtcQmPwagxZ8OqNFvbx15Ltk6u0+zbQO9++M6U0uYXH6ZAMYEmSpHYVEddFRMovA8rs36Fk/1kLfoTFERGHlZyLw9rQzwI7pxExoORY183PY7VURAzLxzWsvcciSeq4IuJi4Nj86hhgh5RSa+pSXUjjioLHRcS+ZY61FfCz/OpM4OxWHKdD6tbeA5AkSfOKiFRl9yTgE+Al4F7gxpTS+AUysE6sJJAzLKV0XTsORZIkdRARcS5wfH41Ab8jmwK4bjN3HZJSeq/0hpTShxHxXeA6soSj2yLiZuBfwCxgG+BQoEd+lzNTSq/X5YF0AAawJEnqeHrnl5WBvYDTI+LQlNL97TusDu/M/OejZG8cJUmSmvOFku0AflHj/Q6nzPuNlNL1EdELuIgsUHVQfik1C/h5Sum8Fo+2AzOAJUlS8R3Q5PriwCbAt4ClgGWBOyJih5TS4AU8tvkupfQI2RtCSZLUDvxPeMFKKV0eEQ8CxwBfJPvSsgvZqoYPAVellJ5vxyG2CwNYkiQVXErp9jI33xgR5wH3AZsD3YHfAJ9bgEOTJElaqKWUdphP/b4JfD+/CIu4S5LUYaWUxpLVQWiwdUSs3F7jkSRJkuYXA1iSJHVgKaVXgbdKbtqoYaPcinURsWlEXBERb0TEhEqr2UVE34j4fkQ8GBGjImJaRHwSEc9FxC8iYsVaxhcRPSPihxHxTER8lh/z1Yg4v9ZgW0tXzIuIbSLisoh4OR/zjPznUxHxm4j4QpP2qUnR/O1Ljld6OazC8bpGxDcj4u/5qnaTImJiRAyNiKsjYvNaHmfe14ERcX9EfBgRUyPi3Yi4IV9xaIGLiEER8ZOIuCcfy+T8b2F0RDwQESdGxGKt6HfF/O/olYgYn1+ej4gzIqJPC/rZJCJ+FxEv5r/jafnf6z0R8X8R4WwDSZI6Cf9TlySp4/sQWDPf7lupUUT8EDgP6Fqts4j4KnAF0L/JrkWBfsCmwEkRcUxK6foq/awO3F8ytgbr5pcj8mPVRUT0B64H9i6zux+wZX45KSI2SSm9WIdjbgD8HVinzO6B+eXIiLgEOCmlNKtCPz3zfvZqsmtAfjkoIn4EfNzWMdcqIs6g8tLcy+WXXYEfRsQBKaWna+x3B+AWYMkmuzbJL0dHxN7VantERHfgMrICuE1LsyyfX/YETo6IfVNK79QyNkmSVFwGsCRJ6viWKdn+rEKbrwF7ABOBG4CngRnAesCYhkYRcRRwJVlQYDpwB/AY8AGwGNlKOweRrYpzXURMTyn9penBImIJ4N/AqvlNI4A/Aq+RFaHfE9ifLJBRj0BSf+BJsoARwGTgb/ltn+bH3ICsEOq6zB30aCiSf1v+83/AT8scZkiTYw4iW7Fw8fymx4F7gOFkWe4bAYeRFdk/niwAeHSFh/AXGoNXU8jO1VP59a3JAjUXlIxxQehFtsrR08B/gDeAcWQB0AFkgcJtgBWAe/Og4PvN9LkKcCtZcPTu/DIOWItsOuyaeX8PRsSmKaXhTTvIs6ruA3bIbxoF3Ay8RPZ7Xwn4Etnf6vrAYxExKKX0UQsfvySpgVXcVQCRUmq+lSRJWqBKp7SllCq+bYyIdciCQg1WTSm9l+87DLi2ZN8bwK4N+8v0tRHwDFmg5U1g35TS62XarQs8SBZomAAMSCl90qTNlcC386uPA3ullCY0afMVssBDaUbYaimlYU3a7QA8nF89O6V0Vpkx3Qnsk18dDHwppTS6wuP8PPBOSmlMk9sbzvmjzRVkjWx565eB1cmCJgemlO4q064vWdBpx/ymXVNKDzZp8w3gpvzqGGDHpuc9P+cPkwXDGhyeUrqu2jirjH8Hmj+nWwAjU0qjqvRzMFnWWxfgmpTSkWXaDADeLblpFnBI08BnRPQgOw8NAcX7U0pfLNPfL4Af5VevBk5IKU0t0+4E4Hf51T+nlA4u02YYWZB1eEppQKXHKUkLu2Fjpy40gYMBS/YwXFdQ1sCSJKmDioh+wHUlNz1VKTgFJLIgS6X9AGeRBa+mAnuWC14BpJReI8ssgiz76Kgm41q6ZP8E4GtNg1d5P7eQrZzYJnl9qIbg1Yh87GWDV/lx/9s0eNUKR5IFrwCOLhe8yo/1GfBVYHx+U7mVhH5Q2m+5856f8yNaP9yWSyk9Uy14lbf5E43Bt29ExCI1dP27cll7eRDqEKAhi2v3PKg6R0QsA5yUX30wpfTtcsGrvL/fl4ztwKixbpskSSomA1iSJBVcROzf5HJwRFwAvA40FPeeDnyvSjdPNFNTaAlgv/zqbSmltyq1BUgp/QtoCBLt3mT3XmSBMICbmgkWXQTMrnasGhxSsn1+SunTNvZXi4bVH0fSGCQpK18t8p786g55/SZgTnbSoPzq0JTSPVSQ73ut0v529ET+sxcliwhUMBv4daWdKaVJZLWtGnylSZOvk01fhWxKZXMaarR1BXauob0kSSooa2BJklR8zdU9+gg4LKX0ZJU2jzfTxzY0frE1LSL2r2FcE8iKZa/X5PYtS7YfqtZBSml0RLxKVp+qtbYt2b6jDf3UJF8lb5P86mhg34hmZxs0BK16AKuRBR+hBeeqpM26NQ20DiJ7YHuQBZI2A1Ymy7qr9B5yJeC5Kl2+2lxWF9n01F/k21s22bddyfayNfydlmZdNf07lSTVKCyCpQIwgCVJUsczBRhLVoPpXuDGlNK4Zu4zopn9A0q2D6NxCmAtmq5WuELJdtVMrpI2bQlgrZT/nNTMFMl6WZnGYN/mtLyweun5as25WiAiYjmyIvvbtOBufZrZ/2YNfZS2WaHJvgEl2zfUMqASTf9OJUlSB2IAS5KkgqtWxL0FpjSzf4k29N207tFiJduTa7j/pDYcGxqDJhPb2E+tlmjj/Rct2V7Q56omJSv9bZzf9ClwF1nQdAzZ39OsfN9OwHfz7dKC/OXUMv7SNos32bdEDfevZNHmm0iSpKIygCVJkmDu4M8JKaWL69RXrxra927DsSArkN6fuYNB81Pp4/tHSunLdeprQZyrWn2dxuDVQ8AB5QrxA7SwOHot4y9t0/SYpeerT6UxSZKkzsci7pIkCeaeYrhyG/saWbK9Zg3ta2lTTcPYe0fEKm3sqxalj6+jnata7VayfVIzgaLVWtBvSx9j03pZ9fw7lSRJHYgBLEmSBFmR95Rvf7GNfT1dsr1TtYYRsTxtL0r+WMn2fhVbNa/h8VedsplS+hj4X35104hYtg3HrPlc5RbUSnrLlWw3V3erJX8v60dE07pWTe1Ssv1Uk32Plmzv0YLjSpLaIGLhuai4DGBJkiRSSh+SFYQH2DAivtGG7v4JTM+3D2omwHMSzddNas6NJds/jIh+reynYXpaLdPcrs9/dgXOaeXxSCkNB4bkV9eJiIpBmXzfglqBsLQOVcWsqYj4OrB+C/rtAnyvSn+9gGNLbrqlSZObgWn59skRsVQLji1JkjowA1iSJKnBaTQGnv7QXBArIvpHxMkRUZoxQ0rpI+C6/Gof4OaImKc+VUQcAJzc1kGnlJ4G7sivrgT8M8/sqjTurfMV9pp6N/+5TkT0bOawlwLD8u1vR8SvIqJpMfvSYy4aEV+LiOPK7L6wZPuaiBhY5v4DgWuaGVM9PVOy/fOImCfIGBE7Ale1ou/vRcTXyvTXnSww2DAN9L6U0sulbVJKI4Df51dXAO6PiNWrHSwiNo6IK1sxTkmSVCAWcZckSQCklF6IiKPJAiW9gJsi4odkq8+9SbbyXF+yjJwtge3I3kscUqa7U8mmlq0C7AC8GhHXAK+TrSy3B/AlstXtXszbtMX/AYOBtYCtgbci4q/Ak/kxFifLXvoisCEwiGw1vVIPAhuRZWDdFRE3AB/ROLXw5ZTSSICU0uSI2Jds+uISwA+BgyPilvzxjCc7hysDm5JNi+tDmSBUSukvEXEgsC+wPPB8RPyRxulzWwOH5/3dBhzQqjPUMtcAPyY7b/sCL+bnYzjQD9idbLrmbOBPwME19vsI2Tn+a0R8E7gHGEf2N3UY2e8P4BPgmAp9/ISswPxuZOf29Yi4k2wa7GiyL2iXAjYAdgQGkq2YeHSNY5QkSQVkAEuSJM2RUrouIkYDfyTLcNkkv1QyDfi4TD/jImIn4D6y4MTKwFlNmn0CfBX4Vh3G/UlEfA74M1lwpRdZ0OfwCneZXea2XwPfBJYlqzXVtN7U4TRmlpFSejkiNs+PuRXZ+Tqh2jCZu2h7qQPJpsvtmY/9+PzSYBZwCjCWBRDASil9mE8PvCUfz/rAr5o0m0wWZOpK7QGs4WR/B7eSBcb2LdNmNLB3Pr2y3NhmRsTewC+AE4FFgC/nl0pGVNknSZI6AKcQSpKkuaSU7gdWJ8tquoVsat1EYCZZNtPzZIGcbwHLpZTuq9DP22TZNqeS1XmaQFZb6XWyaXObpJT+Xcdxj00pfZEs8PRH4I38mDPJAj9PkQWptkopvVTm/qPIMnouAl7K75uatmtyn7dTSluTBc3+ALxKllE0K7//68A/yAIta6SUzqzQz5SU0l7AQWSZYGPJgoPDyTKctkkp/brWc1EPKaV7yTKdriL7G5gOfEb2GC8i+/3dWLmHiv0+mvf7q7yvifnlJbLg1roppSEVO8j6mJFSOoUsOHoOWfbVmHyMU8kChQ8DvyTLwqo6zVCSVF0sRBcVV6RU9X2ZJEmSJElaiL3/ybSFJnCwcv/uxrEKygwsSZIkSZIkFZoBLEmSJEmSJBWaRdwlSZIkSVJF4aQ6FYAZWJIkSZIkSSo0A1iSJEmSJEkqNANYkiRJkiRJKjQDWJIkSZIkSSo0i7hLkiRJkqQqrOKu9mcGliRJkiRJkgrNAJYkSZIkSZIKzQCWJEmSJEmSCs0aWJIkSZIkqaKwBJYKwAwsSZIkSZIkFZoBLEmSJEmSJBWaASxJkiRJkiQVmgEsSZIkSZIkFZpF3CVJkiRJUkXWcFcRmIElSZIkSZKkQjOAJUmSJEmSpEIzgCVJkiRJkqRCswaWJEmSJEmqKCyCpQIwA0uSJEmSJEmFZgBLkiRJkiRJhWYAS5IkSZIkSYVmAEuSJEmSJEmFZhF3SZIkSZJUUWAVd7U/M7AkSZIkSZJUaAawJEmSJEmSVGgGsCRJkiRJklRoBrAkSZIkSZJUaBZxlyRJkiRJlVnDXQVgBpYkSZIkSZIKzQCWJEmSJEmSCs0AliRJkiRJkgrNGliSJEmSJKkiS2CpCMzAkiRJkiRJUqEZwJIkSZIkSVKhGcCSJEmSJElSoRnAkiRJkiRJUqFZxF2SJEmSJFUUVnFXAZiBJUmSJEmSpEIzgCVJkiRJkqRCM4AlSZIkSZKkQrMGliRJkiRJqiiwCJbanxlYkiRJkiRJKjQDWJIkSZIkSSo0A1iSJEmSJEkqNANYkiRJkiRJKjSLuEuSJEmSpMqs4a4CMANLkiRJkiRJhWYAS5IkSZIkSYVmAEuSJEmSJEmFZg0sSZIkSZJUkSWwVARmYEmSJEmSJKnQDGBJkiRJkiSp0AxgSZIkSZIkqdAMYEmSJEmSJKnQLOIuSZIkSZIqCqu4qwDMwJIkSZIkSVKhGcCSJEmSJElSoRnAkiRJkiRJUqEZwJIkSZIkSVKhWcRdkiRJkiRVFFjFXe3PDCxJkiRJkiQVmgEsSZIkSZIkFZoBLEmSJEmSJBWaNbAkSZIkSVJFYQksFYAZWJIkSZIkSSo0A1iSJEmSJEkqNANYkiRJkiRJKjQDWJIkSZIkSSo0A1iSJEmSJEkqNANYkiRJkiRJKjQDWJIkSZIkSSo0A1iSJEmSJEkqtG7tPQBJkiRJklRcEe09AskMLEmSJEmSJBWcASxJkiRJkiQVmgEsSZIkSZIkFZoBLEmSJEmSJBWaRdwlSZIkSVJFgVXc1f7MwJIkSZIkSVKhGcCSJEmSJElSoRnAkiRJkiRJUqFZA0uSJEmSJFUUlsBSAZiBJUmSJEmSpEIzgCVJkiRJkqRCM4AlSZIkSZKkQjOAJUmSJEmSpEKziLskSZIkSarIGu4qAjOwJEmSJEmSVGgGsCRJkiRJklRoBrAkSZIkSZJUaAawJEmSJEmSVGgWcZckSZIkSZVZxV0FYAaWJEmSJEmSCs0AliRJkiRJkgrNAJYkSZIkSZIKzRpYkiRJkiSporAIlgrADCxJkiRJkiQVmgEsSZIkSZIkFZoBLEmSJEmSJBWaASxJkiRJkiQVmkXcJUmSJElSRWENdxWAGViSJEmSJEkqNANYkiRJkiRJKjQDWJIkSZIkSSo0a2BJkiRJkqSKLIGlIjADS5IkSZIkSYVmAEuSJEmSJEmFZgBLkiRJkiRJhWYAS5IkSZIkSYVmEXdJkiRJklSZVdxVAGZgSZIkSZIkqdAMYEmSJEmSJKnQDGBJkiRJkiSp0KyBJUmSJEmSKgqLYKkAzMCSJEmSJElSoRnAkiRJkiRJUqEZwJIkSZIkSVKhGcCSJEmSJElSoVnEXZIkSZIkVRTWcFcBmIElSZIkSZKkQjOAJUmSJEmSpEIzgCVJkiRJkqRCi5RSe49BkiRJkiRJqsgMLEmSJEmSJBWaASxJkiRJkiQVmgEsSZIkSZIkFZoBLEmSJEmSJBWaASxJkiRJkiQVmgEsSZIkSZIkFZoBLEmSJEmSJBWaASxJkiRJkiQVmgEsSZIkSZIkFZoBLEmSJEmSJBWaASxJkiRJkiQVmgEsSZIkSZIkFZoBLEmSJEmSJBWaASxJkiRJkiQV2v8DB7DboqPObcMAAAAASUVORK5CYII=;" vertex="1" parent="1">
                    <mxGeometry x="100" y="160" width="1200" height="1200" as="geometry"/>
                </mxCell>
                <mxCell id="4" value="" style="shape=image;verticalLabelPosition=bottom;labelBackgroundColor=#ffffff;verticalAlign=top;aspect=fixed;imageAspect=0;image=data:image/png,iVBORw0KGgoAAAANSUhEUgAABLAAAASwCAYAAADrIbPPAAAAOXRFWHRTb2Z0d2FyZQBNYXRwbG90bGliIHZlcnNpb24zLjMuNCwgaHR0cHM6Ly9tYXRwbG90bGliLm9yZy8QVMy6AAAACXBIWXMAAA9hAAAPYQGoP6dpAACYQUlEQVR4nOzdd5hdVb0/4M9KgYRepUvvgtIERAVsCCqIouhPFFQs2C96Va69l2vv5aqg2JFeFAHBAtJBCF0h9J6EGiDJ+v1xTpI5w9RkTmZP8r7Pc56z9z5rr7VmHIH5zFrfXWqtAQAAAICmGjfaEwAAAACAgQiwAAAAAGg0ARYAAAAAjSbAAgAAAKDRBFgAAAAANJoACwAAAIBGE2ABAAAA0GgCLAAAAAAaTYAFAAAAQKMJsAAAAABoNAEWAAAAAI0mwAIAAACg0QRYAAAAADSaAAsAAACARpsw2hMAAAAAmmXydu+qoz2HReXRS79TRnsODM4KLAAAAAAaTYAFAAAAQKMJsAAAAABoNAEWAAAAAI2miDsAAADQqVjvQrP4iQQAAACg0QRYAAAAADSaAAsAAACARhNgAQAAANBoirgDAAAAnUoZ7RlAByuwAAAAAGg0ARYAAAAAjSbAAgAAAKDR1MACAAAAOhXrXWgWP5EAAAAANJoACwAAAIBGE2ABAAAA0GgCLAAAAAAaTRF3AAAAoFMpoz0D6GAFFgAAAACNJsACAAAAoNEEWAAAAAA0mhpYAAAAQKdivQvN4icSAAAAgEYTYAEAAADQaAIsAAAAABpNgAUAAABAoyniDgAAAHQqZbRnAB2swAIAAACg0QRYAAAAADSaAAsAAACARlMDCwAAAOhUrHehWfxEAgAAANBoAiwAAAAAGk2ABQAAAECjCbAAAAAAaDRF3AEAAIBOpYz2DKCDFVgAAAAANJoACwAAAIBGE2ABAAAA0GgCLAAAAAAaTRF3AAAAoFOx3oVm8RMJAAAAQKMJsAAAAABoNAEWAAAAAI2mBhYAAADQqZTRngF0sAILAAAAgEYTYAEAAADQaAIsAAAAABpNgAUAAABAoyniDgAAAHQq1rvQLH4iAQAAAGg0ARYAAAAAjSbAAgAAAKDR1MACAAAAOpUy2jOADlZgAQAAANBoAiwAAAAAGk2ABQAAAECjCbAAAAAAaDRF3AEAAIBOxXoXmsVPJAAAAACNJsACAAAAoNEEWAAAAAA0mhpYAAAAQCc1sGgYP5EAAAAANJoACwAAAIBGE2ABAAAA0GgCLAAAAAAaTRF3AAAAoNO4MtozgA5WYAEAAADQaAIsAAAAABpNgAUAAABAowmwAAAAAGg0RdwBAACATsV6F5rFTyQAAAAAjSbAAgAAABiGUsrypZRXllK+U0o5t5RyTynliVLKA6WUa0opPy+lvLiUUobR5yallP8tpVxZSplRSnmolHJtKeW7pZRnDHN+S5dSDiulnFVKuaOU8lgp5dZSyimllINKGXtL7EqtdbTnAAAAADTI5Od9bokJCx496yNDDpmSpJRyeJLPJZk0hOZ/S3JQrfXmQfp8a5JvJJncT5PZST5da/30EOa3RZI/JNlqgGZ/T3JArfWuwfprCjWwAAAAgE5DXzi0JNos88Or25KckeTiJHe3r++S5KAkyyV5TpKzSym71Frv7quzUspBSX7YPp2T5DdJzkwyK8luSQ5OsnSST5VSHqu1fqm/iZVS1krypyRPbV/6V5KjktyeZKMkb26/PzvJKaWU3WutDw/3GzAarMACAAAAOkx+/ueXmLDg0TP/Z7grsL6fVgj0lSRn1lrn9NFm/bSCpM3bl35Wa31TH+1WT3JDkhXSCq/2r7We2KvNLmkFWsukFWo9rdZ6bT9z+3WS17RPf5Pk9bXWWT0+Xy7JyUl2b1/6bK31Y0P5ukfbmNvzCAAAADCKPlJr3avW+ue+wqskqbVOTXJgj0sHllKW6aPpB9IKr5Lku73Dq3Zf/0wyN2SakOQTfY1ZStmqx5h3JHlLz/Cq3ddDSV6XZGb70uGllJX66q9pBFgAAAAAQ1RrvX+I7S5PMnel1DJJNumjWc+Q6+sDdPfjJHO3+u1bSumrVtaBSeauJvtRO6zqa163Jfldj3ntN8C4jSHAAgAAAOiOB3ocd4RO7RVT67dPr6613thfJ7XWB9MqCJ8ky2b+FsCe9u5xfOog8+r5+d79tmoQRdwBAACATsV6l4VVSlkqrYLvc03t1WSbHscXDqHLC5O8uMe9f+wxVkmydft0dpJLh9BXX/NoLD+RAAAAACPv/yVZsX18Sa31zl6fb97juN/VV/202bzXZ+ultR0wSW6ttT4xSF+3pBV0Jcmm7QCs0azAAgAAAJZYpZSlkyzd6/JjtdbHFqLP1ZN8qcelz/bRbKUex/cOodv7+rl32H3VWp8opTyQZOUkE9PalthnzaymsAILAAAAWJIdkWRGr9cRC9pZe+vgH5I8pX3p+FrrcX00Xa7H8cw+Pu/t0R7Hyy9kX4P11zhWYAEAAACdmr+jbCR9IcnXel1boNVXpZRxSX6a5DntS/9O8qYFnxpzCbAAAACAJVZ7q+ACbxecq11H6gdJXte+dHOSF9Rap/VzS88te5OGMETPpxg+uJB9DdZf49hCCAAAALAQ2uHV95K8pX3p1iTPq7XeNMBt03scrzaEYVbt595h91VKmZBkhfbpE0keHsL4o0qABQAAALCA2uHVd5O8vX3ptiR71lr/Pcit1/Y43nAIQ/Vsc22vz25J8kj7eN1SysRB+npqkvHt4+trrXUI448qARYAAADAAugRXh3WvnR7WuHVDUO4/YoexzsNoX3PNlf2/KAdQE1pn45Pst2C9tVUAiwAAACgUxm35LwW9Fv05PDqjrTCq+uHcn+t9aq06mQlyZallA0GGGu5zC8M/0iSc/po9scex3sPMvw+PY5PHaRtIwiwAAAAAIbvO5kfXt2ZVnh13TD7+G2P48MHaPfWJMu2j0+stT7SR5uefb2tlLJsH21SSlknyavbp48mOWGIcx1VAiwAAACAYSilfDvJO9qndybZo9bauy7VUHwl858A+M5Syr59jLVzks+0T2cl+VRfHdVapyT5Xft0rSQ/bhdr79nXckl+mflPKvxarXX6Asx7kZsweBMAAAAAkqSU8tkk72qf1iTfTGsL4JaD3HpJrfXmnhdqrXeXUt6d5Mi0FhkdV0r5TZI/J5mdZLckB2d+4PSJWus1A4xxeJJnJVk3yWuTbF1KOTKt2lwbJTm0/Z4klyX54iBzbowyBgrNAwAAAIvQ5L2+ssSEBY/+6QNlOO1LKWcn2X0BhnpjrfXIfvo8LMnXMj+o6m12ks/VWj8xhPltleQPSbYYoNm5SV5Za71zsP6awgosAAAAgFFUa/1+KeWMJG9P8uIk66W1Iuv2JGcm+VGt9dIh9nVVKWW7JG9O8qq0gqyVk9yb5F9JfpXkl7XWOSP+hXSRFVgAAABAByuwaBpF3AEAAABoNAEWAAAAAI2mBhYAAADQqVjvQrP4iQQAAACg0QRYAAAAADSaAAsAAACARhNgAQAAANBoirgDAAAAnUoZ7RlAByuwAAAAAGg0ARYAAAAAjSbAAgAAAKDR1MACAAAAOhXrXWgWP5EAAAAANJoACwAAAIBGE2ABAAAA0GgCLAAAAAAaTRF3AAAAoFMpoz0D6GAFFgAAAACNJsACAAAAoNEEWAAAAAA0mhpYAAAAQKdivQvN4icSAAAAgEYTYAEAAADQaAIsAAAAABpNgAUAAABAoyniDgAAAHRSxJ2G8RMJAAAAQKMJsAAAAABoNAEWAAAAAI2mBhYAAADQqZTRngF0sAILAAAAgEYTYAEAAADQaAIsAAAAABpNgAUAAABAoyniDgAAAHQq1rvQLH4iAQAAAGg0ARYAAAAAjSbAAgAAAKDRBFgAAAAANJoi7gAAAECnUkZ7BtDBCiwAAAAAGk2ABQAAAECjCbAAAAAAaDQ1sAAAAIBOxXoXmsVPJAAAAACNJsACAAAAoNEEWAAAAAA0mgALAAAAgEZTxB0AAADoVMpozwA6WIEFAAAAQKMJsAAAAABoNAEWAAAAAI2mBhYAAADQoaiBRcNYgQUAAABAowmwAAAAAGg0ARYAAAAAjSbAAgAAAKDRFHEHAAAAOijiTtNYgQUAAABAowmwAAAAAGg0ARYAAAAAjaYGFgAAANBJCSwaxgosAAAAABpNgAUAAABAowmwAAAAAGg0ARYAAAAAjaaIOwAAANChFFXcaRYrsAAAAABoNAEWAAAAAI0mwAIAAACg0QRYAAAAADSaIu4AAABAB0XcaRorsAAAAABoNAEWAAAAAI0mwAIAAACg0dTAAgAAADqogUXTWIEFAAAAQKMJsAAAAABoNAEWAAAAAI0mwAIAAACg0RRxBwAAADoo4k7TWIEFAAAAQKMJsAAAAABoNAEWAAAAAI2mBhYAAADQSQksGsYKLAAAAAAaTYAFAAAAQKPZQsgSZfJ276qjPQcAxo5pF35ntKcAwBg0aYINeDDSrMACAAAAoNGswAIAAAA6lGIRGc1iBRYAAAAAjSbAAgAAAKDRBFgAAAAANJoaWAAAAEAHNbBoGiuwAAAAAGg0ARYAAAAAjSbAAgAAAKDRBFgAAAAANJoi7gAAAEAHRdxpGiuwAAAAAGg0ARYAAAAAjSbAAgAAAKDRBFgAAAAANJoi7gAAAEAHRdxpGiuwAAAAAGg0ARYAAAAAjSbAAgAAAKDR1MACAAAAOimBRcNYgQUAAABAowmwAAAAAGg0ARYAAAAAjSbAAgAAAKDRFHEHAAAAOpSiijvNYgUWAAAAAI0mwAIAAACg0QRYAAAAADSaGlgAAABABzWwaBorsAAAAABoNAEWAAAAAI0mwAIAAACg0QRYAAAAADSaIu4AAABAB0XcB1ZKGZ9kyyQ7Jtmh/f70JJPbTY6qtR4ySB8bJLlxAaewYa31pj76rMPoY2qtdYMFHH+RE2ABAAAADM/vkrxilMZ+KMndozT2qBFgAQAAAAzP+F7n9ye5L8mmw+jj7iT7D7Htu5I8v33821rrI4O0n5Lko4O0GayPRhFgAQAAAAzPBUmuTnJxkotrrTeWUg5J8rOhdtAOoY4frF0pZWKSH/e49JMhdH9vrXXQvscSARYAAADQSQmsAdVaP78Ih9s3yWrt46trrectwrEbw1MIAQAAAJrrzT2Oh7L6arEkwAIAAABooFLKOkle1D59IskvRnE6o0qABQAAANBMB2d+wfiTaq1Dffrg5qWUv5VS7i2lPF5KubuUcn4p5cullM26NNeuEmABAAAANNMbexwPZ/vgmkmenWTVJBOTrJ7kmUn+O8nVpZRvlVKWGrFZLgKKuAMAAAAdSllyqriXUpZOsnSvy4/VWh8bjfnMVUrZPckm7dPbkvxpiLfelOTPSS5Pck+SpZJsnGS/JNultZjp3Uk2KqXsV2udPYLT7hoBFgAAALAkOyLJJ3pd+1SSTy76qXR4U4/jI4cYNO1Zaz27n88+VUo5KMn/pRXYvSTJ+5N8eaFmuYjYQggAAAAsyb6QZMVery+M5oRKKSskOaB9WpP8bCj3DRBezf386CTv6HHpw2NlK6EACwAAAFhi1Vofq7U+0Os1qtsHk7wmyTLt43Nqrf8ewb5/luT69vHKSXYbwb67RoAFAAAA0Cw9tw8Op3j7oGqtNcnZPS5tOZL9d4saWAAAAECHJamIe9OUUrZOsnP7dEaSP3RhmHt6HK/Uhf5HnBVYAAAAAM3Rc/XVr2qtj3ZhjNV6HE/vQv8jToAFAAAA0ACllIlJDupxaUS3D7bHKEn26HHp2pEeoxsEWAAAAADN8LIkT2kfX15rvbgLY7w+yWbt4xlJ/taFMUacGlgAAABABzWwRs0CF28vpXwxyQ9qrTcN0OY1SX7Y49KXaq2PD2uGo0SABQAAADAMpZQNk7y51+VtexxvV0r5bK/Pz6q1njVAn2sneXH79LEkvxzmtN6e5IOllAuS/COtrYHTkkxMsnGSfZPs2KP9qUn+d5hjjBoBFgAAAMDwrJ/kIwN8vm06A60kmZWk3wArycFJxrePj6u13r8A8yppPcFw5wHazEnyzSRH1FpnLcAYo0KABQAAADD63tjj+KcLcP+LkjwryS5JtkjrSYOrtj+bluSaJH9N8rNa69SFmOeoEGABAAAADEOt9ey0VjuNZJ+bDd5qwPsvSHLBCE2ncQRYAAAAQAdF3GmacaM9AQAAAAAYiAALAAAAgEYTYAEAAADQaGpgAQAAAJ2UwKJhrMACAAAAoNEEWAAAAAA0mgALAAAAgEYTYAEAAADQaIq4AwAAAB1KUcWdZrECCwAAAIBGE2ABAAAA0GgCLAAAAAAaTQ0sAAAAoIMaWDSNFVgAAAAANJoACwAAAIBGE2ABAAAA0GgCLAAAAAAaTRF3AAAAoIMi7jSNFVgAAAAANJoACwAAAIBGE2ABAAAA0GgCLAAAAAAaTRF3AAAAoJMa7jSMFVgAAAAANJoACwAAAIBGE2ABAAAA0GhqYAEAAAAdSlEEi2axAgsAAACARhNgAQAAANBoAiwAAAAAGk2ABQAAAECjKeIOAAAAdFDEnaaxAgsAAACARhNgAQAAANBoAiwAAAAAGk0NLAAAAKCDGlg0jRVYAAAAADSaAAsAAACARhNgAQAAANBoAiwAAAAAGk0RdwAAAKCDIu40jRVYAAAAADSaAAsAAACARhNgAQAAANBoamABAAAAnZTAomGswAIAAACg0QRYAAAAADSaAAsAAACARhNgAQAAANBoirgDAAAAHUpRxZ1msQILAAAAgEYTYAEAAADQaAIsAAAAABpNgAUAAABAoyniDgAAAHRQxJ2msQILAAAAgEYTYAEAAADQaAIsAAAAABpNDSwAAACggxJYNI0VWAAAAAA0mgALAAAAgEYTYAEAAADQaAIsAAAAABpNEXcAAACgQ1HFnYaxAgsAAACARhNgAQAAANBoAiwAAAAAGk0NLAAAAKCDElg0jRVYAAAAADSaAAsAAACARhNgAQAAANBoAiwAAAAAGk0RdwAAAKBDUcWdhrECCwAAAIBGE2ABAAAA0GgCLAAAAAAaTQ0sAAAAoIMSWDSNFVgAAAAANJoACwAAAIBGE2ABAAAA0GgCLAAAAAAaTRF3AAAAoMO4caq40yxWYAEAAADQaAIsAAAAABpNgAUAAABAowmwAAAAAGg0RdwBAACADkUNdxrGCiwAAAAAGk2ABQAAAECjCbAAAAAAaDQ1sAAAAIAORREsGsYKLAAAAAAaTYAFAAAAQKMJsAAAAABoNAEWAAAAAI2miDsAAADQQQ13msYKLAAAAAAaTYAFAAAAQKMJsAAAAABoNDWwAAAAgA5FESwaxgosAAAAABpNgAUAAABAowmwAAAAAGg0ARYAAAAAjaaIOwAAANBBEXeaxgosAAAAABpNgAUAAABAowmwAAAAAGg0NbAAAACADkpg0TRWYAEAAADQaAIsAAAAABpNgAUAAABAowmwAAAAAGg0RdwBAACADkUVdxrGCiwAAAAAGk2ABQAAAECjCbAAAAAAaDQBFgAAAACNpog7AAAA0EENd5rGCiwAAACAYSiljC+lPK2Uckgp5dullPNKKY+UUmr7deQQ+zmkxz1DeX1yiP0uXUo5rJRyVinljlLKY6WUW0spp5RSDiqljLk8yAosAAAAgOH5XZJXjPYk+lJK2SLJH5Js1eujddqvfZK8rZRyQK31rkU9vwUlwAIAAAAYnvG9zu9Pcl+STReiz28nOWuQNtcM9GEpZa0kf0ry1PalfyU5KsntSTZK8ub2+7OTnFJK2b3W+vBCzHmREWABAAAAHYoiWIO5IMnVSS5OcnGt9cZSyiFJfrYQfV5Saz1+Ief1tcwPr36T5PW11llzPyylfCvJyUl2T7JDkg8n+dhCjrlICLAAAAAAhqHW+vnRnkNvpZStkhzYPr0jyVt6hldJUmt9qJTyuiQ3JJmU5PBSyldrrdMX6WQXwJgr2gUAAADAkxyYZO7SuR/VWh/qq1Gt9ba0anglyTJJ9lsEc1toAiwAAACAsW/vHsenDtK25+d799uqQQRYAAAAAKPvHaWUq0spD5VSHiml3FxKObGUclgpZZmBbiytomVbt09nJ7l0kLEu7HG8zULMeZFRAwsAAADooIb7qNip1/l67dfLknyqlPKmWuvJ/dy7XlrbAZPk1lrrE4OMdUtaQdf4JJuWUkqttS7gvBcJARaw2FlumaXzgl23zO47bppnbLleNn7q6llpuWXy6GOP5457ZuSiKVPz29Muyp/PvXrQvtZcbYVsv9VTs92WT22/r5e1Vl9x3ueTt3vXkOf16KXfGXLbqbffly1e8okhtx/MUhMn5OCX75JXvGC7bL7hmlllxWVy77SH8q/rbsvv/nhxfnvaRWnCv6/+9OP35rk7Dv/Jw5/9wan53A8HWyXdnDGBsWv27Nn5z3/+nauuvDJXXTUlV025Mtdde01mzpyZJNl3v/3zmc9/cUh93XPP3Zly5ZW5+qopmTLlylw9ZUruvfeeeZ9fPuXaEZv3bbfdmn1e9PwFuvfU08/MOuusO2JzWRgPzJiRk08+Mef85azcdOONuf/++zJp0uSsutqq2WijTbLTM3fO817wwqyxxhoL1P/i8n0CxpzZSc5L8rck1yV5KMlKaT0l8NVJVkmyepITSymvq7X+uo8+VupxfO9gA9ZanyilPJBk5SQTkyzbHrexBFjAYuU9Bz0vn3znSzN50lJP+mzixMlZYbnJ2XzDNfO6l+6cv19yQ970kaNyy53T+uxrn+c+LX/45tu7PeWu22yDNfLrrxyarTZeq+P6OmusnHXWWDl7P+dpOfSVu+X//fdPcvf9D47SLBfOjbcN+u/oxWJMYPT99+Hvy5lnnL7Q/Zz9l7Py3ncdNgIz6q5lllkmq6yy6mhPI0lywnHH5mtf+VKmT5/ecf3xxx/PAw/MyI3/+U/OPOP0zJ49Kwe94ZBFOrcmfZ+A4SulLJ1k6V6XH6u1PrYIhv97kg1qrbf28dn/lVI+mOTHmV+g/aellH/UWm/u1Xa5Hsczhzj2o2kFWEmyfARYjCWllEOS/Kx9+sZa65GjN5snK6V8MsncZSl71lrPHr3Z0ESbrP+UeeHVbXdNy1nnX5tLr74l99z/YJZeemKeuc0Gee0+O2X5ZSfl2dtvkj/9+L3Z/Q1fyT3TnvzP6vHjOssEPv7ErEy54Y5st+V6CzXHKTfcnk99t7+Vvy2PzHx8ocaYa83VVshJ33tnnrrWKkmSf113a3550gW5454Z2WCdVXPIy3fNRuutnt223yTHfvuwvOjN3xixsRfEp757UlZdablB222x0Zr59Lv3TZLMePDRHHfGYFv8mzUmMHbNmTO743zFFVfKiiutlJun3jTMfuZ0nE+YMDGbbLpprrn6qoWdYp9WWWXVfP1b3x1S29/86uic/8/zkiR77b1PJk+e3JU5DccPvvedfP+7307S+l7tvsee2WHHHbPqaqunzpmTO++8I1f8618579y/L9Q4Y/37BCywIzL/98y5PpXkk90euNZ6wyCfP1hKeV2SNZLskWRSkg8leWe359Y0AqxRVkp5RpI3JHlWko2TrJjW8sHpSW5KMiWt4mpn1Fr/PSqThDGk1po/n3t1vvHzM/OXC6590ra4X550fr76s9Nz4nffmc03XDMbrrtaPvOe/fL2T/3ySX3dM+3B/OQP/8ilV9+cS6++JVdcd1uemDV7WFsB+3Lf9Idz0tn/Wqg+hupL73/FvPDqd3+8KG/66M8ze/b8X5q+9+uzc+y3Dstzd9w0O2z11HzgTS/Mp793ygKNddDLds6PP/36JMnm+3w8N99x/7D7OPey/wyp3e47zd/y9/s/XZxHZw62xb9ZYwJj19O22TYbbrRxttpq62y59dZZd931csJxx+bjHz1iWP2sssoqeeUBr86WW2+drbbaOptttnkmLrVUnr715l2Z9+TJk/O8579g0HZPPPFEPv2Jj8473/8VByzwmG8+5PW56MILsuNOz8xPjvzFAvdz2iknzwuvNt98i3zl69/KU9dfv8+2jz/+eB58cMFXE4/G9wmaqixZRbC+kORrva4titVXQ1JrnV1K+Whaq7WS5KV5coDV8y/yk4bYdc/kvfFbMQRYo6SUsmySHyQ5qI+PJyZZs/3aJcmb2/fsU2s9bZFNEsagT37npEx74JEB29x8x7S8/sM/ywW/bf2yccBe2+e/vvS7JwUS/7z8xvzz8hu7Ntdu22KjNXPAi7ZPktxxz4y849O/6givkuThRx/PG//nyFx54icyedJSec9Bz8s3f35WZjz06GhMeUgmThifA/eeX9/yqOPPWyzHBJrp0LeOzNbyZ2y3fZ6x3fYj0tdIOucvZ2XatNbW+o022jhPf8Z2ozqf6dOn5Quf+0yS5ClrrJEf//SorLjSSv22X2qppbLqqt3fyte07xOwcNpbBRsTWPXjvLS2Bk5K8tRSyjK11p6/+EzvcbzaYJ2VUiYkWaF9+kSSh0donl0zbvAmjLT2D8ppmR9ezUpyfJL3J3ltktckeVeSHybpWWV6fLfnVms9stZa2q8juz0ejLTBwqu5rrjutlx7451JkmUnL52N11u9m9MaFQe8aPuMa2+D/Mkf/pGHH+17a+Dt98zIH/7c2g637OSl89I9t11kc1wQ++65bVZbubXl78rrb89FU6YulmMCjIbjjj1m3vHLXzn6q4r+8PvfZ8aM6UmSd777vQOGV4tS075PwOKv1jonSc8tDiv1anJLkrm/DK1bSpk4SJdPzfyM4fqmP4EwsQJrtByW5Dnt45uS7FNr7fdxaKWUTZMcms5EFVhIDz48v7bh5KUH++f72LPXblvNO/7T36cM2PZPf5+Sg16287z7fnnS+V2d28J4w367zjs+6vhzF9sxARa1u+66K+ed+48krTpTL33ZfqM8o+T4dlA0ceLE7PXifUZ5Ni1N/D4Bi79SyrjML7ie9MoHaq21lDIlyU5pBVPbJblggC536nF85QhNs6sEWKPj9T2ODxsovEqSWuv1aRVpA0bIxAnjs8n6T5l3viD1mhbUpus/JWf85H3ZfMM1s8JykzL9wUcz9bb78reLr8/PjjsvN9x894iMs2X7qYOzZs3OZdfeMmDbniuKtt5k7REZvxvWXWOlPH+XLZIkjz3+RH596oWL5ZgAo+GkE47L7NmtIvW777HnItmKN5B77rk7N9/c+vfTJptulsmTJ2fq1Jvyy1/8POf+/W+5++67svTSk7LOuutm12ftlte+7qA85SlrdH1eTfs+AUuMXTK/ZtWtvbYPzvXHzA+m9s7AAVbPvwqcuvDT6z4B1ujYosfxOQvbWSnlpiTrJ5laa92glDIpydvS2oq4SVqP07wtyelJvt4OxPrr65AM8hTCUsrcpYXn1Fr3KKWs1B5v/yQbpbXf9q+11j163LN8kpck2TPJ9mkVrF8+rX22tyf5R5If11oH+j8YjJgD994xKy2/TJLkkqtuzl33LbqahWutvmLWWn3FeedPWWX5PGWV5bPTNhvkva9/fn74u7/mw187Lk/Mmj1ALwNbb82Vs+zk1pOAb7t7embNmjNg+1vvmpZZs2ZnwoTx2eSpfW+nfMYW62a9NVfpt4+eT2d8wa5b5p77+/+eXnvTXbnuprsGnFNfDtp3l4wf39oWefLZV+S+6d3fqj8aYwKMhhOOO3be8f5D2BZ31plnDPj53BpR06ZNG7Ttrs/a7UlP8ZtyxRXzjtdca62cdOLx+eynPpGZM+evoH7sscfywFUzcvVVU/Kro3+ej37iU3nZvi8fdO4LY7jfJxirlqwa7s3WXn316R6X+nuk+W+TfKx9/LZSyldqrU/6j9dSyjpJXt0+fTTJCSM1124SYI2Ont/3NdLaRjgiSinrpvXD/PReH22c1tbFN5ZS3l5rPWqExtsurfpdTx2gzVJJ7k7fT0JYsf3aMsmhpZQfJnlXrXXWSMwP+rLaysvls++dv9z/S//3x0U29k233Zsz/3ltrrjuttw77cFMnDghG627Wl66x7bZbsv1Mn78uLzjtXtkg3VWy6v+64eZM2fBtqKvuPz8XwLuHULgMmvWnDzw8MyssuKyWWrihCw7eakn1cx6x2v3yOv33WVI43/3Y68d8PPP/uDUfO6Hw/9Dz+vb2xyT5MhFVEh9NMYEWNQuuvCCeaudnrLGGnnWbs8e9J7/es/QnuD+7xuuH7TtqaefmXXWWbfj2j333jPv+Ibrrstfz/5LZs+enWdst31e9OK9s9pqq+Xuu+7OaaeenClXXpGZM2fmo0d8KJMnL5MXvPBFQ5rbcC3I9wmgP6WUXZNsk+TntdaZ/bRZNq362M9vX3osyZf6altrnVJK+V1a4dRaSX5cSnlDz9+vSynLJfll5v9+/rVa6/QR+HK6ToA1Om5I64c0Sd7Xfo2EiUl+n1Z4dVlaP5Q3pxWSHZDkuWn9kP60lDK91rqwKeuqaSW16yX5c5KTktyV1tMTn9Kj3bj2uHclOTPJ5Wmtuno0rT28O6b1f7CV01rJ9UCSDy7k3KBPEyeMz6+/cmjWWLX1wI0Tz7o8J/7lX4tk7Bcd+s387eK+F0B+/ken5TX77JTvf/z/ZdLSE7PPc5+W973++fnaUQP/xbo/yy2z9Lzjxx57YoCW883s0W75ZSf1W/R9tDx3x02zUbvY/i133J8z/3nNYjkmwGg4/tg/zDveb7/9M358158dNKgHZjww7/iWW25Okrz9He/KYe98d0e7g95wcL7+1S/nqJ/9NEnymU9+LM/a7dlZZpllRnxOTfw+AaOjlLJhkjf3utzzaUjblVI+2+vzs2qtZ/U4XyOtcOqrpZQ/J7k4rWLsD6e10GP7tHZWzd2rXJMcWmu9aYCpHZ7kWUnWTeshcVuXUo5M63fwjdKqr71Ru+1lSb440NfZJAKs0fGrJF9oH7+3lLJZkp8k+UutdWEK8azdfn0nyftqrT33H327lPLBtJLacUl+VEr5S631gT76GaqnJZmd5KBa6y8HaPdEWvtr/9R+ckJv/1dK+UhaAdiuSQ4vpXy31uoxX4yoUkp++MnX5dnbb5Ik+ffN9+Rtnzx6kY3fX3g1129OvTBLTRyfH36y9YDS97/xhfn2L/+yUFsJR9JbP3F03vqJ/r9fB71s5/z4060Sf5vv8/ERryt2yMvnF1L/xUnnZ1E8KGU0xgRY1B566KH8+c9/StL6d+V++79ySPddPuXaAT9/8yGvz0UXXpAdd3pmfnLkL4Y9r97/2bjDjjs9KbxKWnN+3+H/nQsvOD9XTZmS6dOn55STT8yrXv2aYY85kAX9PgGLrfWTfGSAz7dNZ6CVJLOSnNVH2+XSKsmz/wD93ZlWeHXKQJOqtd5WStkryR/SKl+0bZKv9dH03CSvrLU+NFB/TTJutCewhPpGWj8sc+2d5Jgk95VS/lNKOaaU8t+llGeWMuydxxcleW+v8CpJUmv9cpLj2qdPSXLIsGf+ZN8ZJLxKrXV2rfW0fsKruW3uS/KG9un4JAeNwNygw7c/8pq89iXPTNIq2r7P27+d6Q8+Osqz6vTzE/6Z66e2irivsuKy2fUZGw1yR98eeuSxecdLD/EJi5N6tOv5hMYmWGG5Sdnvec9IksyZMyc/P+Gfi+WYAKPhj6eekpmPtv59uMOOO2W9p/ZbGWKRWmbZZTvOD3jVgf22HTduXF5xwKvnnV9w/sj/M7up3yfollLKEvMaRWck2S/J59vH1ya5N62g64G0dm/9LsnBSTYcLLyaq9Z6VVpPIXxXWnW370ryeFqrsP6Y1u/ez6m13jmSX0y3WYE1CmqtM0spz0/ymSTvSNJzffOG7dfcP+lMLaV8Pcn3aq1D2Qf0lYGCoiRfzvxU94Ak3xrW5J9sYe+fp9Z6QynlzrS2IA6t0M4ASilLJ1m657Wlt317yjhLvZdE3/yfA/PmV+6WJLn1zml58Vu/tUifPDgcf73o+mzafkLiFhuumb9eNPDKrb7M6BHMrbbSsgO0bBk/flxWWLa1Df7xJ2Y1bvvgq1+8Y5aZvFSS5OwLr8vU2+9bLMcEGA3HHzd/W1yTipKvsMIKHedbbb31gO233vpp845vbW85HElN/T4Bo6PWenaShUq/2qufTmy/RlS7ptZ326/FghVYo6TWOrPW+t9p7Ut9U5JfJ7mxj6brp7Vi62+llKE8o3ewgjnnJ5n7aLAd2k8zWFC311r/M9TGpZS1SykfKqWcXkq5tZTycCml9nylFV4lre/LwjoiyYyer1l3XTwC3TLWfOOIV+etr3pOkuS2u6Zlr7d+Mzfeeu8oz6p/906bv4q3ZzH24bjlzml5+NHWKqx1nrJSJkwY+P/q6625ciZMaIW7N9x8z4BtR0PPrXxHLaJC6qMxJsCidsMN1+eKf12eJFl++eXzghfuNcozmm/DDTtXIS+33PIDtu/5+UMPjewTY5v8fQJYUgiwRlmtdVqt9We11v9Xa90oySpJXpRWjayefzraOa3aWQOZ1t6KN9B4Ncm/26fLJFlpgSbecutQG5ZS3pbk+rQKxL0wyTrpXHnW2woDfDZUX8j8pxyumGTFCWvsMALdMpZ844hX522vfm6S5Pa7p2evt34r/7mlueFVkqzaY8XUjIXY4nj1v+9IkkyYMD7P2Hy9AdvuuPX6846vuuH2BR6zG7baeK3s0J7f/TMezglnXb5YjgkwGnoWJd97n5dm0qS+Hho9OjbeZNNMmDB/w8hDDz04QOvOz5dfbrkRnUuTv08ASwoBVsO0A60/11r/J8kmSb7X4+MXlVJ2G+D2of6pqWe7gf+UNbAh/WZdSnlVkh9kfmB1XlpB1tvSeqLC/j1ec5d+LPQ+v1rrY7XWB3q+bB9csvQMr+64Z0b2esu38u8Gri7q7bk7bjrv+Lqpdy1wP6efe/W84xftttWAbfd69vxtGX/8x1ULPGY39FwJ9dvTLspjj88aoPXYHRNgUXviiSdyysnzd600bVvcpEmTsuNOz5x3ftWUKQO2nzLlynnH62+44YjNo+nfJ4AlhRpYDVZrfaKU8t4keySZ+9vnC5P8o59bBi908+R2A/8pa2R8vv0+O8n+tdaT+mtYSvnxIpgPS4Cvf7h3ePXN3HDz3aM8q8H9v5c+M5ttsEaSZPqDj+Qfl/x7kDv6d8yfLs7/vHXvJMmhBzw73/j5mXlk5pNrW629+op55Qu3S5I88ujjOfkv/1qg8Y4+6fwcfdL5CzzfvkycMD6veclO886PPO7cAVqP3TEBRsM5Z/8l99/XWry/+eZbZKseNaRGwoI8ebC3l7x03/zzvNY/h4/5/W+zz0tf1me7OXPm5Nhjfjfv/NnPee5Cjz1Xt79P0FSjW9scnswKrIartc5KcnaPS2sN0HzlUsoqA/XXfqrh3IICjySZvjDzG0wpZcO0VpIlyfGDhFcrpLWFEhbK1z70qrz9wM7wau6T/UbLZ96zb5661sA/3q/aa4d85yPzH/n91SPPyBOznvRA0STJjz51UB699Dt59NLv5CNv26fPNlf/584c86dW3be1Vl8x3/v4/8v48Z3/2F928lL52ecPyeRJrWLl3zr6rMx4qDlPZnzpHttk9ZVbC0Uvuerm/Ou624Z1/1C+TyM9JsBoePrWm8973Xbb0Ko89CxK/vKGrip6ycv2zUYbt/5T8uKLLswPvvedJ7WpteYbX/vfeSu01l5nnbxor7377G9x/T4BLAmswBobej598KF+W7W8MMlvB/j8mZlfX+qiQZ5YOBLW7HF8wyBt94pQlYX0iXe8NIe9Zvckrb/Gfu/XZ2eLDdfMFhuuOeB9l11zS265c9qTrr/39c/LSsv3X67tE+94acf59AcfyTd/cdaT2h16wLNz+MEvyEVXTs15l/8n1910d6Y/8EgmThifDddbLS/dfZt5NZeS5LS/XZmvHzXYMxkG96GvHptdnr5R1l1z5Ry4947ZcuM1c/SJ5+eOe2Zkg3VXyxtfvms2Wm/1JK3vwVd+dnq/fT1ji3Wz3pojkzFfe9Ndue6mwbdHvmG/RV9IfTTGBMaOW2+9Jcf/4ZiOa9ddd+2842uuvirf+ebXOz7faeddsvMuu6a3o478aR6cMaPfsXr3s/yKK+bgQ960INN+krvvvivn/v1vSZKllloqL3lJ3yubBnLWmQv/76m5dn3Wbpk8+ckPLhk/fnw++/kv5tA3viGPPPJIvv/db+e8c/+RvfbeJ6uttlruvuuunHrKyZly5RVJkokTJ+YLX/pKJk6cOCLzGonvEwAjQ4A1Ckopa9Rah1TYppQyMUnPPyFdMcgth5dSftcu1t6XD/Q4PqafNiOpZ72tTfprVEpZKslHuz8dFnfP2m7jecfjxo3LZ96z35Due8vHf9Hn9rfDXrN71l+7/weAfvgtL+44n3r7fX0GWHPn88xtN8wzt+2/Lsfs2XPy3V+fnY9968TMnr3w+fLt98zIy9753fz6fw/NFhutmW03Wzdf/sCTH/J53mX/zms/8H95+NEnbzGc6x2v3SOv33eXhZ5Tknz2B6fmcz88dcA2a6++Yl6465ZJkkdnPp7fnnbRiIzdtDGBseWO22/Pj3/0g34/v+66azsCrSQZP2FCnwHWb355dG6/vf9Vnr3HWXvtdUYswDrphOMze3Zrle/znv/CrLjSSsPu47/e884RmUuSnHr6mVlnnb4fQr3107bJd77/oxzxoQ/krjvvzGWXXpLLLr3kSe1WWXXVfPkrX88zttt+xOY1Et8nAEaGAGt0XFRKOTPJD2ut/f55v5SyXFrFzzdrX5qR5MT+2rc9M8nXSymH915dVUo5PMncdc93JzlqQSY/TNektWpsuST7llJ27f01l1Imt+ey7SKYD4yKlx323ezy9FZ4tdkGa2S1lZbNKiu2ytFNf/DRXHvjnfn7Jf/OL048Lzff8eSVYAvjmv/cmV1e+8Uc8vJn5RUv3C6bbbBGVl5hcu6b/nCuuP62/Pa0i/KbUy9K/7n36Dho313mbXk84azLF8nWxtEYE2A0HH/csfOOX/6KV47iTIZmhx13yrEnnJJjj/l9zjrzz7l56tTMmDEjyy+/XDbaeJPsvufz8qpXHZhllh1qSdihGWvfJ4DFWWnaLyxLglLKnUnWaJ9OTXJOksvSCpUeS7Jqku2SvCLJ6u12Nckhtdaf99HfTUnWT3J7kpuT7JLk0iS/THJLkqekFVzt3qOv/WutJ/TR1yFJftY+fWOt9cg+2sz9oTmn1rrHEL7eLyX5YPv0iSRHJrkgrdVZWyU5OMl6Sc5MsnmSdZNMrbVu0Edfn0zyifbpnrXWswcbv6fJ273LDzwAQzbtwifX2wGAwUyakDFfAn3XL/11ifnd6bwPPXfM/++1JLACa3RcnlatqpJW8PSG9qs/dyZ5d611sC1/T6QVVJ2SVgC2XR9tHkvy9r7Cqy76WFqrq16cZGKSt7RfPZ2T5MAkFy/CeQEAAABjgABrFNRa9yqlrJ3kRUl2S/K0JBsmWSnJ+LS23N2W5F9JTk1yXK314b57e1Lft5VSdknytiSvSbJpWtv3bktyepKv1VqvH9EvaPA5PV5KeUmSQ9JabfX0JJOT3JNWTa9fJzm61jqneFYrAAAA0IsthIuBHlsI+9x2x3y2EAIwHLYQArAgbCEcW2whHBuswAIAAAA62BxD04wb7QkAAAAAwEAEWAAAAAA0mgALAAAAgEYTYAEAAADQaIq4LwY8eRAAAICRVFRxp2GswAIAAACg0QRYAAAAADSaAAsAAACARlMDCwAAAOigBBZNYwUWAAAAAI0mwAIAAACg0QRYAAAAADSaAAsAAACARlPEHQAAAOhQVHGnYazAAgAAAKDRBFgAAAAANJoACwAAAIBGUwMLAAAA6KAGFk1jBRYAAAAAjSbAAgAAAKDRBFgAAAAANJoACwAAAIBGU8QdAAAA6KCGO01jBRYAAAAAjSbAAgAAAKDRBFgAAAAANJoACwAAAIBGU8QdAAAA6FBUcadhrMACAAAAoNEEWAAAAAA0mgALAAAAgEZTAwsAAADooAQWTWMFFgAAAACNJsACAAAAoNEEWAAAAAA0mgALAAAAgEZTxB0AAADoUFRxp2GswAIAAACg0QRYAAAAADSaAAsAAACARlMDCwAAAOigBBZNYwUWAAAAAI0mwAIAAACg0QRYAAAAADSaAAsAAACARlPEHQAAAOgwThV3GsYKLAAAAAAaTYAFAAAAQKMJsAAAAABoNDWwAAAAgA5KYNE0VmABAAAA0GgCLAAAAAAaTYAFAAAAQKMJsAAAAABoNEXcAQAAgA5FFXcaxgosAAAAABpNgAUAAABAowmwAAAAAGg0ARYAAAAAjaaIOwAAANBhnBruNIwVWAAAAAA0mgALAAAAgEYTYAEAAADQaGpgAQAAAB1KUQSLZrECCwAAAIBGE2ABAAAA0GgCLAAAAAAaTYAFAAAAQKMp4g4AAAB0UMOdprECCwAAAIBGE2ABAAAA0GgCLAAAAAAaTQ0sAAAAoEOJIlg0ixVYAAAAADSaAAsAAACARhNgAQAAANBoAiwAAAAAGk0RdwAAAKDDODXcaRgrsAAAAABoNAEWAAAAAI0mwAIAAACg0dTAAgAAADqUoggWzWIFFgAAAACNJsACAAAAoNEEWAAAAAA0mgALAAAAgEZTxB0AAADooIY7TWMFFgAAAACNJsACAAAAoNEEWAAAAAA0mgALAAAAgEZTxB0AAADoME4VdxrGCiwAAAAAGk2ABQAAAECjCbAAAAAAaDQ1sAAAAIAOSmDRNFZgAQAAANBoAiwAAAAAGk2ABQAAAECjCbAAAAAAaDRF3AEAAIAORRV3GsYKLAAAAAAaTYAFAAAAQKMJsAAAAABoNDWwAAAAgA5KYNE0VmABAAAA0GgCLAAAAAAaTYAFAAAAQKOpgQUAAAAwDKWU8Um2TLJjkh3a709PMrnd5Kha6yFD6Kck2TnJC5LsmmTrJGskKUnuT/KvJKe1+5s+hP7qML6MqbXWDYbRflQJsAAAAIAO41RxH8zvkrxiYToopWyW5Mwk6/bTZK32a68kHyulvK3W+oeFGXMsE2ABAAAADM/4Xuf3J7kvyabD6GOVzA+vHkvylyT/SHJz+3yTJK9La6XXqkl+V0p5ba31d0Poe0qSjw7S5pFhzHXUCbAAAAAAhueCJFcnuTjJxbXWG0sphyT52TD7uSXJ/yY5utY6rfeHpZQvJflGknemVcf8+6WU04ewnfDeWuvxw5xLowmwAAAAAIah1vr5EejmiiSb1FofH2CcWaWUd6dVH2v7tFZtvTzJkSMw/pgiwAIAAAA6qIDVfbXWh4fYrpZSfp9WgJUk23ZvVs01brQnAAAAAMCAHuhxPLnfVouxBV6BVUr5+EhOpKda66e71TcAAADAGLNNj+OpQ2i/eSnlb2kVgF8hyfQkNyY5J8n/1VqvG/EZdtnCbCH8ZJI6QvPoTYAFAAAALPFKKSsnObDHpVOGcNua7ddcq7dfz0zy/lLKd5N8YKD6W02zsDWwurEttluhGAAAAMBY89UkK7ePT6y1XjFI+5uS/DnJ5UnuSbJUko2T7Jdku7TKSb07yUallP1qrbO7MemRtjAB1p4jNgsAAACgMUpZcsq4l1KWTrJ0r8uP1VofG4359FRKeXuSN7ZPpyd57yC37FlrPbufzz5VSjkoyf+l9fW+JMn7k3x54WfafQscYNVazxnJiQAAAACMgiOSfKLXtU+lVTpp1JRSXpLk2+3TOUneWGu9aaB7Bgiv5n5+dCllqSQ/aV/6cCnlG2NhK6GnEAIAAABLsi8kWbHX6wujOaFSyguSHJPWwqOa5K211uNHqPufJbm+fbxykt1GqN+uEmABAAAAS6xa62O11gd6vUZt+2Ap5XlJTkwyKa3w6rBa608Gvmvoaq01ydk9Lm05Un1308IWcR+SUsrEJBsmWSXJUrXWvy6KcQEAAADGinZ4dVKSye1L76y1/rALQ93T43ilLvQ/4roaYLW/8e9PskdayWHSSg8n9Gr3jiTPSHJrrfXT3ZwTAAAAMLBxS04N98boEV4t07707lrr97s03Go9jqd3aYwR1ZUAq5QyLsl3k7x17qVBbrknyaFJ5pRSjqq1Tu3GvAAAAACapo/w6r211u90aayS1kKjua7txjgjrVs1sL6R5G1pBVcPJvl1kmMHaH98kgfa7V/WpTkBAAAANEopZY90hlfvq7V+q4tDvj7JZu3jGUn+1sWxRsyIB1illB2SvCutrYJnJdmo1vq6JL/o755a6xNJzkgrwNp9pOcEAAAA0DSllN2TnJLO8OqbC9jXF0spGwzS5jVJetbU+lKt9fEFGW9R68YWwre13+9Ksn+t9cEh3ndJklck2aoLcwIAAACGqLXLjP6UUjZM8uZel7ftcbxdKeWzvT4/q9Z6Vo8+npHO8OpPSaaWUl4+yPD31lr/3sf1tyf5YCnlgiT/SGtr4LQkE5NsnGTfJDv2aH9qkv8dZKzG6EaA9dy0Vl8dOYzwKkluab+vM/JTAgAAABgx6yf5yACfb5vOQCtJZqW1U22uZyRZtsf5Xu3XYM5JZw2rnkqSnduv/sxJ8s0kR9RaZw1hvEboRoA1N4D61zDve6T9vsyArQAAAADo7UVJnpVklyRbpPWkwVXbn01Lck2Svyb52Vh8eF43Aqy56wznDPO+Fdrvw1m1BQAAALBI1VrPzvz8Y0H7ODLJkSMwnbn9XZDkgpHqr2m68RTCe9rv6w/zvqe3328fwbkAAAAAMMZ1I8C6MK0U8iVDvaGUMiHJAWnVzjq3C3MCAAAAhqiUJefF2NCNAOv49vtzSin7DPGezyRZu338+xGfEQAAAABjVjcCrN+k9ajGkuS3pZTX9tewlLJ6KeX7ST6Y1uqr82utZ3RhTgAAAACMUSNexL3WOqeU8qok/0iyfJKjSylfSnLH3DallN8nWS/J9knGpxV2TUvyupGeDwAAAABjWzeeQpha65WllD2SHJNkwyTrJlknrVVWSfKK9vvc3aY3Jdm31npjN+YDAAAADF1RHIqG6cYWwiRJrfXSJE9L8r4kl6QVXpVerylpbR/cutZ6ZbfmAgAAAMDY1ZUVWHPVWh9N8q0k3yqlLJ/WtsGVkjyU5LZa633dHB8AAACAsa+rAVZPtdYHk1y1qMYDAAAAYPHQtS2EAAAAADASFskKrFLKBkmemWTttJ5M+GCS25OcX2uduijmAAAAAAzNODXcaZiuBlillFenVaR9uwHaXJLkS7XWY7o5FwAAAADGpq5sISylTCyl/D7Jr9MKr3o/fbDna/skvy2l/K6UslQ35gMAAADA2NWtFVi/TfLyHufXJjkjyfVJHk6ybJJNkrwgyRbtNq9MMr79DgAAAABJuhBglVJekVZ4VZPcm+TQWutJA7R/SZL/S7JGkpeXUvavtR430vMCAAAAhqYURbBolm5sIXxT+/2xJHsOFF4lSa31lCTPTzKzfenQLswJAAAAgDGqGwHWjmmtvjqq1nrVUG5otzsyrZpYO3RhTgAAAACMUd0IsFZsv/9jmPed2+t+AAAAAOhKgHVX+332MO+b2/6uAVsBAAAAsETpRoB1Qft9+2HeN7f9P0dwLgAAAMAwlSXoxdjQjQDrB2n9DLy5lLLWUG5ot3tzWrWzftiFOQEAAAAwRo14gFVrPSvJ15OslOSsUso2A7UvpTwtyZnt9l+ttf5lpOcEAAAAwNg1YUFvLKU8d4CPT0iyfpJXJLmklHJ6kjOSXJ/k4STLJtkkyQvbr/FJjklycinlubXWvy7ovAAAAABYvCxwgJXk7LS2/A2kphVOvbj96ktpt3tl+1UXcl4AAAAALEYWNigaar2zwdqpmwYAAAANMa74NZ1mWZgA61MjNgsAAAAA6McCB1i1VgEWAAAAAF034k8hBAAAAICRpFg6AAAA0EEJLJrGCiwAAAAAGk2ABQAAAECjdXULYSnlWUkOTrJLknWTrJDBQ7Naa7W1EQAAAIAkXQqwSinLJPlpklfNvdSNcQAAAABY/HVrpdMvk+ybVnD1cJIr0lqFVZNcleTRJBskWa3dvia5uN0WAAAAGEVFFXcaZsRrYJVSXpBkv/bp8UnWrrU+q0eTj9Ran1lrfUqSnZP8Ma2ga+kkh9Ra9xzpOQEAAAAwdnWjiPsb2u93JPl/tdYH+2tYa72w1rpPkm8m2SbJ8aWUpbowJwAAAADGqG4EWHO3Cv621jqzj8/7Wof4/iTXJNk2yZu6MCcAAAAAxqhuBFhrtt//1et6bb8v3fuGWuucJEenFW69ugtzAgAAAIaolCXnxdjQjQBrUvv9gV7X5xZoX7mf+25ov28+4jMCAAAAYMzqRoA1vf2+TK/r97XfN+nnvrnB1qojPSEAAAAAxq5uBFjXt9/X73X9yrS2CL6gn/t2b7/3XrkFAAAAwBKsGwHWRWkFVdv1uv7H9vu2pZS39fyglPKKJAemVSfroi7MCQAAAIAxakIX+jwzybuTPK+UMr7WOrt9/ZdJPplklSTfK6W8Oa26V5sk2SGt0Ksm+VEX5gQAAAAM0TjVzWmYbqzA+lOSm5I8nh7bBWut05McmmR2WmHVDmmtupobXiXJT2utx3dhTgAAAACMUSMeYNVaH6u1blRrXavW+qden52QVq2rMzM/yCpJrkvyjlrrW0Z6PgAAAACMbd3YQjigWut5SV5YSpmQZLUkD9daH1zU8wAAAABgbFjkAdZctdZZSe4crfEBAACAvimBRdN0owYWAAAAAIwYARYAAAAAjbbAWwhLKU8dyYn0VGu9uVt9AwAAADC2LEwNrJuS1BGaR081o1ibCwAAAIBmWdigSFk3AAAAWMwUVdxpmIUJsI4asVkAAAAAQD8WOMCqtb5xJCcCAAAAAH3xFEIAAAAAGk2xdJYo0y78zmhPAYAx5LKbpo/2FAAYg3bZZKXRnsJCs9qFpvEzCQAAAECjCbAAAAAAaDQBFgAAAACNJsACAAAAoNEUcQcAAAA6lFJGewrQwQosAAAAABpNgAUAAABAowmwAAAAAGg0ARYAAAAAjaaIOwAAANBhnBruNMwiC7BKKUslWSXJUrXWmxfVuAAAAACMbV0NsEopmyV5b5K9kmzYvlx7j1tKeU2SjZLcWWv9aTfnBAAAAMDY0rUAq5TyoSSfSTI+yWCLD5dN8tkks0opJ9da7+7WvAAAAAAYW7pSxL2U8uEkn08rIJuT5Lwkfx/gll8nmZlW2LVvN+YEAAAADM24suS8GBtGPMAqpWya1sqrJLkyydNqrbsl+Wp/99RaH0lyVvt0j5GeEwAAAABjVzdWYL0rrZVUM5LsVWu9doj3XZTWVsNtujAnAAAAAMaobgRYz0urUPvPa613DOO+G9vv6438lAAAAAAYq7oRYM0NoC4a5n0Ptt+XG8G5AAAAADDGdeMphEu332cO8765wdXDIzgXAAAAYJhKUd2cZunGCqx72u/rDPO+rdrvd43gXAAAAAAY47oRYF2eVjH2Fwz1htKKdvdPq3bW+V2YEwAAAABjVDcCrJPa7y8upew0xHvenWTT9vEJIz8lAAAAAMaqbgRYRyW5vd33iaWUZ/XXsJQysZTyoSRfTWv11bW11mO7MCcAAABgiMaVJefF2DDiRdxrrY+VUl6X5PQkT0nyt1LKeUmmzW1TSvnftJ5WuGeS1dLacjgzyUEjPR8AAAAAxrZuPIUwtdZzSikvT/KLJKsk2XXuR+33w9vvc7PO6UleXWu9pBvzAQAAAGDs6sYWwiRJrfW0JE9L8o0k96cVVvV+zUjyvSRPq7We0a25AAAAADB2dWUF1ly11jvTWm11eCllqyQbJFkpyUNJbk1yWa11TjfnAAAAAMDY1tUAq6da61VJrlpU4wEAAAALpihuTsN0bQshAAAAAIwEARYAAAAAjTbiWwhLKc9d2D5qrX8dibkAAAAAMPZ1owbW2UnqQtxfswhrcwEAAACdximCRcN0Kyjykw4AAADAiOhGgPWpIbQZn2S1JLsmeXpaq65OSHJ5F+YDAAAAwBg24gFWrXUoAdY8pZTnJzkqyQuSfK/WesZIzwkAAACAsWvUn0JYaz0zyV5Jlkryq1LKWqM8JQAAAAAaZNQDrCSptU5J8uu0thW+e5SnAwAAAEu0cUvQi7GhSf9b/bX9vt+ozgIAAACARmlSgPVg+/2pozoLAAAAABqlSQHW5u33OqqzAAAAAKBRGhFglVJWS/L2tMKrG0Z5OgAAAAA0yITRGriUMiHJOklekOQj7eOa5NjRmhMAAACQlDLaM4BOIx5glVJmL8TtNyT5+kjNBQAAAICxrxtbCMsCvs5K8vxa68NdmBMAAAAAY1Q3thD+NUMrxP5YkmlJpiQ5rdZ6cRfmAgAAAMAYN+IBVq11j5HuEwAAAFh0ximCRcM04imEAAAAANCfbhRx/3j78D+11qNHun8AAAAAlizdqIH1ybRqYH2sC30DAAAAsITpxhbCGe33G7rQNwAAAABLmG6swLotyQpJlu1C3wAAAECXqeFO03RjBdafkpQkz+5C3wAAAAAsYboRYH0/ycwkryulbN2F/gEAAABYgox4gFVrvSHJW9p9n1FKedlIjwEAAADAkmOhamCVUn7aPvxWrfWy9rWPt6/9JckLkxxfSpma5B9Jbk3y6GD91lo/vTDzAgAAABbcODWwaJiFLeJ+SJKa5Pgkl7WvfbJ9Le33kmT99muoBFgAAAAAJOnOUwiTVmg10PlA6uBNAAAAAFhSdCPA2rMLfQIAAACwhBrxAKvWes5I9wkAAADAkqtbWwgBAACAMWpcUcWdZhk32hMAAAAAgIEIsAAAAABotJHaQvjZUsr7RqivWmt9/gj1BQAAAMAYN1IB1tYj1E9JUkeoLwAAAGABKIFF04xUgOVHGwAAAICuGKkA66NJ/jFCfQEAAAA0VillfJItk+yYZIf2+9OTTG43OarWesgw+9wkyduS7J1kvSTjk9yW5IwkP661XjaMvpZO8qYkr2rPc5Uk9yS5PMmvk/yq1jpnOPMbbSMVYF1Zaz1nhPoCAAAAaLLfJXnFSHVWSnlrkm9kfgA212bt19tKKZ+utX56CH1tkeQPSbbq9dE67dc+7f4OqLXetbBzX1RGKsACAAAAWFKM73V+f5L7kmw63I5KKQcl+WH7dE6S3yQ5M8msJLslOTjJ0kk+VUp5rNb6pQH6WivJn5I8tX3pX0mOSnJ7ko2SvLn9/uwkp5RSdq+1PjzcOY8GARYAAADQYZxK14O5IMnVSS5OcnGt9cZSyiFJfjacTkopqyf5bvt0TpL9a60n9mjy81LKz9IKtJZJ8tlSyvG11mv76fJrmR9e/SbJ62uts3qM960kJyfZPa2tjx9O8rHhzHm0jBvtCQAAAACMJbXWz9daj6i1HlNrvXEhuvpAkhXax9/tFV7NHeufmR8yTUjyib46KqVsleTA9ukdSd7SM7xq9/VQktclmdm+dHgpZaWFmP8iI8ACAAAAGB0H9jj++gDtfpxk7la/fUspvWtlze1r7tq5H7XDqieptd6WVg2vpLWqa7+hT3f0CLAAAAAAFrH2iqn126dXD7SSq9b6YJK/tU+XTWsLYG979zg+dZDhe36+d7+tGmQkAiw7YwEAAACGZ5sexxcOoX3PNj3vTSmlJNm6fTo7yaUL2ldTLWwR9w3b73cv7EQAAACAZijWqiwKm/c4HkodrZ5tNu/12XppbQdMkltrrU8M0tctaQVd45NsWkoptdY6hDmMmoUKsGqtU0dqIgAAAACLWill6SRL97r8WK31sS4PvVKP43uH0P6+fu4ddl+11idKKQ8kWTnJxLS2JfZZM6sp1MACAAAAlmRHJJnR63XEIhh3uR7HM/ttNd+jPY6XX8i+BuuvcRZ2CyEAAADAWPaFJF/rda3bq68YJgEWAAAA0GHcElQCq71VcDQCq55b9iYNof3kHscPLmRfg/XXOLYQAgAAACx603scrzaE9qv2c++w+yqlTEiyQvv0iSQPD2H8USXAAgAAAFj0ru1xvOEQ2vdsc22vz25J8kj7eN1SysRB+npqWk8gTJLrm/4EwkSABQAAADAaruhxvNMQ2vdsc2XPD9oB1JT26fgk2y1oX00lwAIAAABYxGqtVyW5uX26ZSllg/7allKWS/Kc9ukjSc7po9kfexzvPcjw+/Q4PnWQto0gwAIAAAA6jCtLzmuU/bbH8eEDtHtrkmXbxyfWWh/po03Pvt5WSlm2jzYppayT5NXt00eTnDDEuY4qARYAAADA6PhK5j8B8J2llH17Nyil7JzkM+3TWUk+1VdHtdYpSX7XPl0ryY/bxdp79rVckl9m/pMKv1Zrnb4wX8CiMmHwJgAAAADMVUrZMMmbe13etsfxdqWUz/b6/Kxa61k9L9Ra7y6lvDvJkWktMjqulPKbJH9OMjvJbkkOzvzA6RO11msGmNrhSZ6VZN0kr02ydSnlyCS3J9koyaHt9yS5LMkXB/xCG0SABQAAADA86yf5yACfb5vOQCtprZ46q3fDWutRpZRlknwtraDq/7VfPc1O8rla6+cHmlSt9bZSyl5J/pBki/YcvtZH03OTvLLW+tBA/TWJAAsAAADoUMroF4daktRav19KOSPJ25O8OMl6aa3Iuj3JmUl+VGu9dIh9XVVK2S6tFWKvSivIWjnJvUn+leRXSX5Za50z4l9IFwmwAAAAAIah1np2khFN+Wqt1yd5f/u1sH3NTPLd9muxoIg7AAAAAI0mwAIAAACg0QRYAAAAADSaGlgAAABAh3FquNMwVmABAAAA0GgCLAAAAAAaTYAFAAAAQKOpgQUAAAB0KGpg0TBWYAEAAADQaAIsAAAAABpNgAUAAABAowmwAAAAAGg0RdwBAACADuNUcadhrMACAAAAoNEEWAAAAAA0mgALAAAAgEYTYAEAAADQaIq4AwAAAB3GqeFOw1iBBQAAAECjCbAAAAAAaDQBFgAAAACNpgYWAAAA0KGogUXDWIEFAAAAQKMJsAAAAABoNAEWAAAAAI0mwAIAAACg0RRxBwAAADqMiyruNIsVWAAAAAA0mgALAAAAgEYTYAEAAADQaGpgAQAAAB2KElg0jBVYAAAAADSaAAsAAACARhNgAQAAANBoAiwAAAAAGk0RdwAAAKDDOEXcaRgrsAAAAABoNAEWAAAAAI0mwAIAAACg0dTAAgAAADqMK4pg0SxWYAEAAADQaAIsAAAAABpNgAUAAABAowmwAAAAAGg0RdwBAACADmq40zRWYAEAAADQaAIsAAAAABpNgAUAAABAowmwAAAAAGg0RdwBAACADuNUcadhrMACAAAAoNEEWAAAAAA0mgALAAAAgEZTAwsAAADooAQWTWMFFgAAAACNJsACAAAAoNEEWAAAAAA0mgALAAAAgEZTxB0AAADoYLULTeNnEgAAAIBGE2ABAAAA0GgCLAAAAAAaTQ0sAAAAoEMpZbSnAB2swAIAAACg0QRYAAAAADSaAAsAAACARhNgAQAAANBoirgDAAAAHZRwp2mswAIAAACg0QRYAAAAADSaAAsAAACARlMDCwAAAOgwrqiCRbNYgQUAAABAowmwAAAAAGg0ARYAAAAAjSbAAgAAAKDRFHEHAAAAOijhTtNYgQUAAABAowmwAAAAAGg0ARYAAAAAjSbAAgAAAKDRFHEHAAAAOhRV3GkYK7AAAAAAaDQBFgAAAACNJsACAAAAoNHUwAIAAAA6FEWwaBgrsAAAAABoNAEWAAAAAI0mwAIAAACg0QRYAAAAADSaIu4AAABAB6tdaBo/kwAAAAA0mgALAAAAgEYTYAEAAADQaGpgAQAAAB1KKaM9BehgBRYAAAAAjSbAAgAAAKDRbCEEllizZ8/Of/7z71x15ZW56qopuWrKlbnu2msyc+bMJMm+++2fz3z+i0Pq65577s6UK6/M1VdNyZQpV+bqKVNy7733zPv88inXduVrmOuBGTNy8skn5py/nJWbbrwx999/XyZNmpxVV1s1G220SXZ65s553gtemDXWWKOr8xiKRx5+OMcde0z+es7Zuf666/LAAzOy3HLLZe111s0eez4vrzzg1Vl1tdXG/JjA2Db139fmvLP/lCmXXZhp996dRx95OMutuFJWWnnVbLzF07LlNttnh133yLjx45907/T7782N11+dm264Zt77jGn3zfv8qFPOH7F53nPX7fnAm/ZfoHu/8tPjsvoaa4/YXIZrJL9Pj82cmVtuvH5+fzdcnTtumZo5c2YnSQ5938fynBe+dMS/hr48/vhj+fi7X587bp0679qHv/C9bLntDotkfIDFlQALWGL99+Hvy5lnnL7Q/Zz9l7Py3ncdNgIzWjAnHHdsvvaVL2X69Okd1x9//PE88MCM3Pif/+TMM07P7NmzctAbDhmVOc51wfn/zIf/+/257757O65PmzYt06ZNy5Qrr8jRPz8qH//UZ/KCF75ozI4JjF2PPvJQjv7h1/KPM09NrbXjs+n33ZPp992Tm264JmeefEy+99szsuxyy3e0ufT8v+Ubn/7AopzyApk0eZmssOIqozb+SH+f/uuQl+XhBx8Ysf4WxnFH/7gjvAJgZAiwBlBKuSnJ+kmm1lo36OPzQ5L8rH36xlrrkcPtY7SVUub+l9k5tdY9RnMuQzHW5kuzzf2r7FwrrrhSVlxppdw89aZh9jOn43zChInZZNNNc83VVy3sFAf1g+99J9//7rfnjbv7Hntmhx13zKqrrZ46Z07uvPOOXPGvf+W8c//e9bkM5pKLL8o73nZonnjiiSTJFltulb33eUnWWnvtPPTgQ/nnef/IGX8+PTNmTM+HPvBf+eZ3vpdnP2f3MTcmMHY99OCMfOVj782N11+dJFl51dWz47P2zHobbpplll02jz76SO66/ZZMufSC3HTDNX320fvfCeMnTMi662+cqf/uzkrcFVZcJe/56JeH1PaMk36fqy6/MEnyzOe8IEtPmtSVOQ3FSH+faq/+Vl19zcya9UTHiq5F4cbrr84fj/tVkmTpSZPz2MxHF+n4MJKUcKdpFrsAq0fAMVwr11qnj+RcRkMp5ZPtw5v6CtSA+Z62zbbZcKONs9VWW2fLrbfOuuuulxOOOzYf/+gRw+pnlVVWySsPeHW23HrrbLXV1tlss80zcaml8vStN+/SzFtOO+XkeeHV5ptvka98/Vt56vrr99n28ccfz4MPPrjAY735kNfnogsvyI47PTM/OfIXw77/iccfz0eO+OC8IOmg1x+cD3zoiI6n27zyVa/OP887N+9+x9vy+OOP5+Mf+Z+cdNqfsuyyyy3QnEdjTGBs+8GXPz4vvHrx/v8vr3zD27PUUks/qd2rDn5Hpt13TyZNnvykz1ZYceXsvtd+2XDTLbLBJltmvQ02yYSJE3PwS3buypyXnjQpO+w6ePA+a9as/Oxbn593vvuL9l3gMb/w4cNyzRWXZIttts8RX/z+AvUx0t+n7XZ5btZaZ/1ssMkW2WCTLbL8iivlx1/7dP5+5ikL1N+CmDVrVv7vG5/NnDmzs/0uz80jDz+Ua664ZJGND7C4W+wCLPKJ9vs5SY4cxXlA4x361rePSD/P2G77PGO77Uekr6GaPn1avvC5zyRJnrLGGvnxT4/Kiiut1G/7pZZaKquuuuoimt2TnXXWGbn9ttuStFZBvf+DH+7z0cy77PqsHPrWt+d73/lW7rvv3hz986PytsPeOWbGBMauv/355FxxyT+TJM/b55V57aHvHbD9yquu3uf1TbfaNptute2Iz29hXXr+X/PgA9OTJGuvt0E22XKbUZ3PSH+f3nr4JwZv1GUn/uanufWmGzJ5mWXzhnd8MD/434+P9pQAFiuL+1MI9x/G6+FuTKDWukGttTRx+2CStOdWbMeDseUPv/99ZsyYniR557vfO2B41QTn//Of845ftu9+GTeu/3/9vHz/V847PvWUk8bUmMDYdcoxrdWlkyYvk1e/8R2jPJuR99fTT5x3/NyFWH1F326+8fqc/PujkiSvfuO7+g04AVhwi/UKrFrr8aM9B4BuOP7YY5IkEydOzF4v3meUZzO4u++6c97xBhtuOGDbNdZcM5MmT87MRx/NTTfemKlTb8r6628wJsYExqbrrro8d9x6U5Jku52fm8nLLF7biO+/9+5ceckFSVq1pnZ73t6jPKPFy+zZs/KTb3w2s2fNymZbPz177r1gT4WEpulr5TqMpsU6wAJYHN1zz925+ebW04022XSzTJ48OVOn3pRf/uLnOffvf8vdd9+VpZeelHXWXTe7Pmu3vPZ1B+UpT1ljVOfc+0lew3H9tdcuUJg0GmMCY9O1V1w673jjzbdOklz0j7/knNNPyNQbrs3DDz2Y5VZYMetvtFl2fPbzstvz9s748WPnP6P/ceap8x5cst0zn50VVhq9pw8ujk79w9G56YZrMnHiUnnju//HL/0AXTJ2/s07Rg3hSYafzPy6VXvWWs8upTwvyduT7JxkjSQzklyU5Ke11j/0M07v39R276egfcfTEofzVL9SygZJDk3yvCQbJ1k5yWNJprbnd3KSE2utj/dx73ZJ9k6yW5Kt2l/X+CT3J7kiySlJflJrfWigOQDJlCuumHe85lpr5aQTj89nP/WJzJw5c971xx57LA9cNSNXXzUlvzr65/noJz6Vl+378n77POvMMwYcc9q0afPeB2u767N2y+RehY1XXW21ecdTb7ppwCf93XXXXZn56PynNt14438GHK8/ozEmMDbNLdyeJCusvEq+/bkP5aJzz+5oM/3+ezP9/ntz+UXn5k/H/ybv+9j/ZvU1117EM10wfztj/tbooWwfvPi8cwb8fG4trQcfmD5o26dtt/OoPu2w226/+cac8KufJEleduAhWXu9DUZ3QgCLMQFWw5RSvprk8F6Xn5JknyT7lFKOT/KaWutji3BO45N8Nsn7k0zs9fHEJFu3XwcneV+Sb/a6/+NJPtVP92u2Xy9M8sFSyv611gtGbPKwGLrn3nvmHd9w3XX569l/yezZs/OM7bbPi168d1ZbbbXcfdfdOe3UkzPlyisyc+bMfPSID2Xy5GXyghe+qM8+/+s9Qyta/u8brh+07amnn5l11lm349r2O+yYE447Nkly0okn5P8d9IZ+/0J94vHHdpw/+OADQ5pbb6MxJjA2TZ9277zj447+Ue64dWomTJiY3Z6/Tzbb6ukZP2FCbv7P9Tnn9BPy8IMP5NabbsgXj3hHPvWto7Lc8iuO4swHd80Vl+Su229N0io8v832uwx6z7c++8Eh9X3b1P8M2vYrPz0uq08aG0HfcM2ZMyf/983P5oknHs+662+cl7zq4NGeEsBibXEv4j7WvDut8GpGkq8nOSitUOhHaa10SpKXJ/lVH/fOLUY/15T0Xaz+rOFMqLR+2/t1kg+nFVbVJKcm+a8kByZ5Q5JPJ/lrkjlJ+vrtcJkks5Ocl+QrSd6a5NVJXpvkiCT/aLdbO8lppZT1hjNHWNI8MGN+uHLLLTdn9uzZefs73pWjjv51XnfQG7LXi/fJ6w8+JL/8ze9z8BvfNK/tZz75sTzyyCOjMeW88EV7ZcUVV0qSXH3VlHz9q1/uc4vfBef/Mz/+Yecj2R96aMGesTEaYwJj0yMPPTjv+I5bp2bZ5VbIx7/2k7zpPf+TZ7/gJdl1j71y4Jvelc9/7zdZ+6mtmnr33n1Hjjnq+/112Rh//fP81VfPfsFLM278+FGczeLl9BN+k39fc2XKuHF503v+JxMmWBsA0E3+Kdssr0hyfZLn1Vpv7XH956WUb6cVPq2e5BWllNfUWn8zt8HcgvU9VhfcO0JF7P8ryavax3cleXmt9Z99NSylbJjWtsLe/pDkW7XW2/sZ44ullIOSHJVklbS2VB66ULOGxVitczrOd9hxpxz2znc/qV0pJe87/L9z4QXn56opUzJ9+vSccvKJedWrX/OktpdPuXbAMd98yOtz0YUXZMednpmfHPmLYc952WWXy4f+5yP5nw/9d5LkqJ/9NBdecH5evM9Ls9Zaa+WhBx/KP/95bs44/U+ZPXt21lvvqbnllpuTJOPGLVgtkdEYExib5szp/Ofqa9787qy/8eZParfSKqvmsP/+dD727tcnSf5+xik58E3vamzR90cfeSgX/r31t8tSSp7zwpcO6b6jTjl/wM+/8OHDcs0Vl2SLbbbPEV9sfojXDXfdcWv+8IsfJkle8NIDsvEWTxvlGcHIs9qFplmsA6x+akD15aha6yHdnMsQzUny6l7hVZKk1nplKeXQJCe0L30wyW96txtJpZRlk/xP+3R2Bgiv2nO8McmNfVy/cLCxaq1Hl1L2SmvV2WtLKYfVWp9YsJm3lFKWTrJ0z2vTH5qZpZdeup87YGxYZtllO84PeNWB/bYdN25cXnHAq3PVlFapvQvO/2efAdai8JKX7pvHZj6WL3zu03n88cdz1ZQpuWrKlI4248aNy2HvfHcefOCBHP2L1uPIV1hhwbfnjMaYwNgzafIy846XnjQ5z9qz/6f0PXWjzbLxFk/Lv6+5Mk888Xiuu+pfefqOz1oU0xy2f57z5zz+WKs+4uZP2y5rrLXuIHcwFLXW/PSbn8vjj83MqquvmQPecNhoTwlgiSBUbZbTa62X9fdhrfXEJHOXSWxXStmoy/PZO8mq7eMTBgqvRsjf2+/LJNl2BPo7Iq3tmPNe//ulL4xAtzC6VlhhhY7zrbbeesD2W289/6/Ct7ZXGI2WVxzwqpx82p/z5re8LVttvXWWX2GFTJgwMWuuuVb2eenLctQvf5O3v+NdmT5j+rx7ehZjHytjAmPLssvN/+fquhtsnAkTe5f87LThJlvOO777jtu6Nq+F9bc/D694O0Nz1il/yDVXXJIkOfidH+wIQAHonsV6BVY6a0INZHR/o5tv4Ed7zW8zd037M5N081FZz+lxfEK/rYagXUtr7yQHJNkhyXpJlk//P4PrJrl4YcZM8oUkX+t54b8/dMSMhewTRt2GG3Zm18stt/yA7Xt+3oTaTmusuWbe877D85739X5exXz/vuGGecfbbLPwefZojAmMHWutt36uury1YHyZIWwHnLzs/DYzHxn9f6725dap/8m/r22tOF1m2eWy0257jvKMFh9n/6n1n8UrrbJabvr3tbnp331vw7/37jvmHZ971mm57qrLk7SezLjx5gP/8QmAJ1usA6wRqgG1KF0/zDbdfqRLz3XmVy1oJ6WUNZMck2S3Ydy2wuBNBtZ+UmPH0xpnzlrYXmH0bbzJppkwYUJmzWr9QD/00INZbfXV+23/UI/ixMsv18w6LT1Nnz4t1193XZJkmWWWyRZbbrVYjgk0x1M33HTe8SOPPDRo+0cfnt9mcq9t3U3Rc/XVLrvvlaWWnjSKs1nMtB8IMv3+e3Nsuw7WYHoW0580abIAC2ABLNYB1hg0lD/h9Wwz8LKLhdczRBr8v+b6UEqZkOSPSZ7evjQtyUlJrkhyZ5JH06qvlSTPS+tJjEniETnQj0mTJmXHnZ6Zf553bpLkqilTssGG/e8onjLlynnH62+4Ydfnt7BOPvGEzJrVKoH30pftl6WWWmqxHBNojm133DWllNRac+tN/86sJ54YcBvhjTdcPe94rXXWXxRTHJZZs2bl3L+cNu/8uS962SjOBhirejwgDBpBgNUsQ/kTXs82D/bbamQ80ON4QZdtHJj54dWZSfavtfY571LKOgs4BixxXvLSfecFWMf8/rfZ56V9/3IyZ86cHHvM7+adP/s5z12g8RbkyYML4u6778oPv/+9JMnEiRPzute/YbEcE2iWVVZbI5s/bbtcc8UleWzmozn3L6f1WzPq5v9cl39f0/rDwKTJy2TTrZq35fiy8/+WB6ZPS9JaXbbhplsOcsfwLKlPHpzrM985ekjt5j6tMUk+/IXvZcttd+jmtAAWe4q4N8smw2xze7cm0tbzaYgLup/mRT2O39dfeNXW/KUhsAg8fevN571uu+1JDyVNkrzkZftmo41b/zi4+KIL84PvfedJbWqt+cbX/nfeU/fWXmedvGiv/p+s1W233npLbr+9/2LHN9xwfd7ypoPzwAOtUnWHvfM9A64sG8r3aaTHBBZfrzr4HfOOf/OTb2dqH3WNZky7Lz/4yifmnb9w3wO7vjXv4JfsPO91z11D+0+/vyrevlB+/LVPz/ueH/fLH4/2dABoswKrWV6YXkXH+/CCHsfn9/F5TVLar4X11yTvaR/vl+TnC9DHmj2Ob+i3VcuLF6B/WGC33npLjv/DMR3Xrrtu/i8s11x9Vb7zza93fL7Tzrtk5112fVJfRx350zw4o/9nBPTuZ/kVV8zBh7xpQaadJBk/fnw++/kv5tA3viGPPPJIvv/db+e8c/+RvfbeJ6uttlruvuuunHrKyZly5RVJWiuLvvClr2RiP1tizjpzKM+QGJpdn7VbJk+e/KTrV0+Zkg9+4L/yjO22z447PTNPXX/9LL300rn33ntz4QXn569n/2VeXa/9X3lA3vjmQxd6LqMxJjA2bbLlNnnJAW/IKcf8PA8/9EA+ffibs9vz98lmWz8j48ePz83/uT7nnH5CHn6wtUB9w023zL6veWOffZ127C/z8EP9/83umJ//oON82eWWz96veN2IfB3T7rsnV1zcenD0xIlLZdc99xp2Hxefd86IzCVpFSxfelLfId9Ifp+uuvyiXHX5RR3Xpv5n/r/TLzr37Nx1R+cfO3Z/0b5Zfc1ul5QFYKQIsJrlhaWUbWut/+rrw1LKS5Js0T69pNZ6Yx/NHkqrNtZIVBQ9Lcm9SVZLsl8pZZda6z+H2UfPml2bJLmyr0allAOTqGbJInXH7bfnxz/6Qb+fX3fdtR2BVpKMnzChzwDrN788esCVPr3HWXvtdRYqwEqSrZ+2Tb7z/R/liA99IHfdeWcuu/SSXHbpJU9qt8qqq+bLX/l6nrHd9v329V/veedCzaWnU08/M+uss26fn82ZMyeXXHxRLrn4oj4/nzR5ct76tnfkTYe+ZcTqLozGmMDY9Oo3vjPjxo3LKcf8IrNmPZFz/nRCzvnTkx/EvM32u+SwD34mSy21dJ/9nHHS7zueQNfbSb/9Wcf5ak9Za8QCrL+feUrmzGmVF91+192z3PIrDruPb332gyMylyT5yk+Py+qT+g6JRvL7dO2Vlz6pfU+XXfC3XHbB3zqubf2MnQRYMAD/VUTTCLCaZXyS35VSnldr7VgjXkrZKslPelz6cj993Jhk2yRblFIm11ofXdDJ1FofKaV8LsnX23M7vpTy8v5CrFLK+klWqbVe2uPyhUn2bx9/rpTyilrr7F737ZnkRws6T1iS7bDjTjn2hFNy7DG/z1ln/jk3T52aGTNmZPnll8tGG2+S3fd8Xl71qgOzTAOekrXTzjvnY5/4dC684Pxcd921uf++e/PQQw9n5ZVXyjrrrpfn7r5HXrrvy7PGGmuM6TGBse2Agw/LM5/z/Pz19JNy5aUXZNp9d2f27NlZYcWVs8mW22S35++Tp+/4rNGeZr/+9ueT5x0r3g7A4qTU9mNgFxellJ5f0P79Nnyy82utHX8CKqXclGT9JFNrrRv0MdYhSeb+qeeNtdYj+2gzWB+fTDK3mMIfkrwyyfS0wqpL0gqOnpXkkCRz118fW2t9ZV9fRCnlq0kOb5+emda2v3vS2lqYJFfUWm/r0X7u9XNqrXv00V9J8rskB7Qv1SSnJvlzkjuSLJVkoyS7t18fqLV+o8f9T0lr6+DcJyZOac9papKVk+yV1vbEOUl+neSgdrv+vp8DzncwM2dl8fqBB6CrLrtp+mhPAYAxaJdNVhrzC5iO/9edS8zvTi/fds0x/7/XkmBxX4F13DDa7p/k+C7NY6i+k+SmJO9vv/pyQpKB1ph/tf35Gkme33719MYkRw51QrXWWkp5TVorvt6bVqD2kvarL3N63X93e3vgMUmWSWub4Jd63fNIkre3+z4oAAAAAD14CmHD1Fo/kFah9t8nuSXJ42mtoPpjklfVWl9ea505wP23J9k+rWLw/0ryYLJwq45qrbNrre9P60mE/5vWyrD7k8xu939lkp+mtZLqe33cf1qSp6e1TfDG9tc0I8lV7Xk+o9b6i4WZIwAAACwKpZRPllLqArzO7qOvQ4bZxycX/VfcDIvdCqxa64gt/etry1+vz4/MIKuZBuujn3vOTGv73wJph1j9reDq3XbI369a63VJFqiqZ631hiRvG6TNkRn8+2lpJwAAQJd5tk1X/Ge0JzCWLXYBFgAAAEAX/SbJZUNoNzHJ0WnVjk7+f3t3Hq9rWdeL//MFlVnACUVRNELRNDBDjEzUY4oYiqaSooKZ0yklNTxWJ7WfSpraMYeTGYaYQ2UJKKGBU1o4Ys7gxCCTIMgsG9lcvz/ue5/9rIc1PGu+117vN6/7te7heq77ep69Xqy9P+u6vne3cmk2b03yyTnanDXBfbdIAiwAAACACbXWzsoEQVJVHZbN4dXZrbXPzfGSM1trJy5yeFssNbAAAAAAlt6zR/bnmn3FHMzAAgAAAKbYKopgLUZV3SXJwf3hTUlOWMXhbBHMwAIAAABYWs9KsnW/f0pr7ZLVHMyWQIC1ylprr2qtVb99erXHAwAAACzaUSP7x034mhdW1Xeq6tqqur6qzq+qk6vqBVW1/XIMci0RYAEAAAAskap6aJK9+8OLk/zbhC/91ST3SbJDku2S7JHkt5K8I8m5VfW4JR7qmqIGFgAAALBuVdU2SbYZO72htbZhgV2OFm9/T2tt4xztNyY5I8lnk3w3ybVJdknyK0mekuR2Se6Y5OSqenpr7QMLHNeaJsACAAAApqj1VcP9FUleOXbu1UleNd+OqmqnJE8eOTXX0wc/l2TP1toF01z7u6o6Jsm7kjw1SSV5d1X9Z2vt/PmOba2zhBAAAABYz45NsvPYduwC+3pquiWASfLZ1tr3ZmvcWvv+DOHVpuvXJHl6kk/3p7ZN8vIFjm1NE2ABAAAA61ZrbUNr7eqxbSmWD05avH2u8W1M8qcjp9ZlLSwBFgAAAMAiVdV9kjykP7w6yT8vYfdnJLmh37/7enwqoRpYAAAAwBSV9VUEa4n87sj+B1tr1y9Vx621m6vqiiS796d2SbJk/a8FZmABAAAALEJV3SrJM0ZOLcnywZH+t0qy68ipK5ey/7VAgAUAAACwOIck2a3f/2Zr7YtL3P8BSbbr9y9Yytlda4UACwAAAGBxRpcPLsfsqz8fOfXRpex/rRBgAQAAACxQVd05ycH94Y1J/mHC1z2kqp5bVdvO0maHJCckeWR/akOS1y9iuGuWIu4AAADAFKWG+3w8M5vzlZNaaz+Z8HW7JXlnkjdV1WlJvpLkR0muS7JzkgcmOTzJ7fv2LclzWmvnLtG41xQBFgAAAMDCPXtkfyHLB3dMcli/zeSSdOHVKQvof4sgwAIAAABYgKo6MMm9+8MfJTltHi8/Pcnjkzw4yf5J9kg322qXJNcnuTTJmUlOSfJPrbUblmbUa5MACwAAAGABWmv/mWRBCy5ba9cmObnfmIMi7gAAAAAMmhlYAAAAwBRbLWxSESwbM7AAAAAAGDQBFgAAAACDJsACAAAAYNDUwAIAAACmKCWwGBgzsAAAAAAYNAEWAAAAAIMmwAIAAABg0ARYAAAAAAyaIu4AAADAFIq4MzRmYAEAAAAwaAIsAAAAAAZNgAUAAADAoKmBBQAAAExRUQSLYTEDCwAAAIBBE2ABAAAAMGgCLAAAAAAGTYAFAAAAwKAp4g4AAABMsZUa7gyMGVgAAAAADJoACwAAAIBBE2ABAAAAMGhqYAEAAABTVBTBYljMwAIAAABg0ARYAAAAAAyaAAsAAACAQRNgAQAAADBoirgDAAAAU5Qa7gyMGVgAAAAADJoACwAAAIBBE2ABAAAAMGgCLAAAAAAGTRF3AAAAYIqKKu4MixlYAAAAAAyaAAsAAACAQRNgAQAAADBoamABAAAAU2ylBBYDYwYWAAAAAIMmwAIAAABg0ARYAAAAAAyaAAsAAACAQVPEHQAAAJiiooo7w2IGFgAAAACDJsACAAAAYNAEWAAAAAAMmhpYAAAAwBSlBBYDYwYWAAAAAIMmwAIAAABg0ARYAAAAAAyaAAsAAACAQVPEHQAAAJhCDXeGxgwsAAAAAAZNgAUAAADAoAmwAAAAABg0NbAAAACAKbYqVbAYFjOwAAAAABg0ARYAAAAAgybAAgAAAGDQBFgAAAAADJoi7gAAAMAUSrgzNGZgAQAAADBoAiwAAAAABk2ABQAAAMCgCbAAAAAAGDRF3AEAAICpVHFnYMzAAgAAAGDQBFgAAAAADJoACwAAAIBBUwMLAAAAmKIUwWJgzMACAAAAYNAEWAAAAAAMmgALAAAAgEETYAEAAAAwaIq4AwAAAFOUGu4MjBlYAAAAAAyaAAsAAACAQRNgAQAAADBoamABAAAAUyiBxdCYgQUAAADAoAmwAAAAABg0ARYAAAAAgybAAgAAAGDQFHEHAAAAplLFnYExAwsAAACAQRNgAQAAADBoAiwAAAAABk0NLAAAAGCKUgSLgTEDCwAAAIBBE2ABAAAAMGgCLAAAAAAGTYAFAAAAwKAp4g4AAABMUWq4MzBmYAEAAAAwaAIsAAAAAAZNgAUAAADAoAmwAAAAABg0RdwBAACAKdRwZ2jMwAIAAABg0ARYAAAAAAyaAAsAAACAQVMDCwAAAJhKESwGxgwsAAAAAAZNgAUAAADAoAmwAAAAABg0ARYAAAAAg6aIOwAAADBFqeLOwJiBBQAAAMCgCbAAAAAAGDQBFgAAAACDpgYWAAAAMEUpgcXAmIEFAAAAwKAJsAAAAAAYNAEWAAAAAIMmwAIAAABg0BRxBwAAAKZQw52hMQMLAAAAgEETYAEAAAAwaAIsAAAAAAZNDSwAAABgKkWwGBgzsAAAAADmoao+XVVtHtueE/S5V1X9ZVV9s6quqqprq+rsqnp7Ve27/O9q2ARYAAAAAKuoqp6b5OtJXpbkfklum2SHJHsneWGSL1fVn63eCFefJYQAAAAAC3fYBG0unelCVR2R5J394c1JPpjkE0luSnJgkmcl2SbJq6tqQ2vt9Ysb7tokwAIAAABYoNbaiQt9bVXdMcnb+8ObkxzWWjt5pMkJVfX36QKt7ZO8pqpObK2dvdB7rlWWEAIAAABT1Dr6b5W9LN1ywSR5+1h4lSRprX0+yf/uD2+V5JUrNLZBEWABAAAArI6njuz/1Szt3pXkun7/0KrabvmGNEwCLAAAAIAVVlX3TXKP/vA7rbVzZmrbWrsmyWf7wx2SPGyZhzc4AiwAAACABaqqj1bVhVV1Y1X9tKq+VVXvqqqHz/HS+4/sf2mCW422uf+MrbZQAiwAAACAhTskye5Jbp1klyT3TfKcJJ+sqk9U1V1meN29R/ZnnH01Q5t7z9hqC+UphAAAAMAUteq1zdeEnyY5LcmXk1yYZGOSuyZ5ZJKDk1SSRyQ5o6oOaK1dMvb6XUb2fzLB/S6f4bXrggALAAAAWLeqapsk24yd3tBa2zDLy16R5CuttRunufbmqnpQkn9Jcvd0da7eneSxY+12HNm/YYKh/mxkf6cJ2m9RLCEEAAAA1rNXJLlqbHvFbC9orZ0xQ3i16fqXkzwmyaYQ7OCq+tWlGe76JMACAAAA1rNjk+w8th272E5ba99J8t6RU48ba3LtyP62E3S53cj+NQsd11plCSEAAAAwxXoqgdUvFZxtueBifCpdQfck2Wfs2pUj+3eYoK/bz/DadcEMLAAAAIDlcdnI/i5j184e2b/nBH2Ntjl7xlZbKAEWAAAAwPIYnVl15di1b4zsT1Ifa7TNNxc6oLVKgAUAAACwPB4+sj9l1lRr7dtJzu8P96mqPWfqpKp2TPLQ/vD6JJ9ZwjGuCQIsAAAAgCVWVXsnecbIqY9O0+wfR/ZfMkt3z02yQ79/cmvt+kUOb80RYAEAAABT1Tra5vvRVL2oqn5tjjb7Jfl4Nj9d8N9ba1+Ypukbs/mJgv+zqg6dpq8HJ/n/+sObkrx6/qNe+zyFEAAAAGByj0jylqr6QZLT09WjujzJxiS7J3lkksdm86Sh85IcNV1HrbVLq+oPkhzft/9wVX0wyWl9fwcmeVY2B2GvbK2dtQzvafAEWAAAAADz9wv9NpuPJ3l2a+2imRq01t5TVdsneXO6oOpp/TZqY5LXttZet4jxrmkCLAAAAIDJvTTJR5I8OMkvJ7lTuqcNbpPkqiTnJjkjyftmWDZ4C621/1tVpyd5fpLHJNkj3Yysi5J8Isnftta+urRvY22p1tpqjwFWzA03xTc8ABP773OvXO0hALAGHbDXLguorDQs37rwunXzb6f73XWHNf/ntR4o4g4AAADAoAmwAAAAABg0ARYAAAAAgybAAgAAAGDQPIUQAAAAmKKUNWdgzMACAAAAYNAEWAAAAAAMmgALAAAAgEFTAwsAAACYQgkshsYMLAAAAAAGTYAFAAAAwKAJsAAAAAAYNAEWAAAAAIOmiDsAAAAwlSruDIwZWAAAAAAMmgALAAAAgEETYAEAAAAwaAIsAAAAAAZNEXcAAABgilLFnYExAwsAAACAQRNgAQAAADBoAiwAAAAABk0NLAAAAGCKUgKLgRFgsa5seyuVCGFcVW2T5BVJjm2tbVjt8cCQHLDXLqs9BBgkPzsAWGnVWlvtMQCwiqrqtkmuSrJza+3q1R4PAMPnZwds+c6+5Pp1Exbc+87bm+iwBqiBBQAAAMCgCbAAAAAAGDQ1sAAAAIAprKljaMzAAmBDklf3XwFgEn52ALCiFHEHAAAApvjuOirivrci7muCGVgAAAAADJoaWAAAAMBU5iQxMGZgAQAAADBoAiyAdayqjqyq1m9HrvZ4xlXVq0bGd9BqjwdgJVTVuf3/986d4fqc/++eq4/VNjL+T6/2WCax1sYLsCWyhBBgBVXVvkmemeTXkvxCkp2TbExyZZJzk3wryZeSnN5a+8GqDBKAeauqhRY73rW1duVSjmU1VNWr+t1zW2vHr+JQANhCCbAAVkBV7ZDkb5IcMc3lWye5c78dkOR3+9c8trV26ooNEgAW7pX9188kOX4VxwHAFkqABbDMqupWSU5N8tD+1E1JPprks0kuStKS3CHJ/ZP8RpJ9+nZbL/fY+t+SH7/c9wFYZw6bR9vrlmMArbU9l6PfpdJaUx4aBq5UcWdgBFgAy+8F2RxenZvksa2178zUuKp+Mclz0i0rBGCNaa2duNpjAIAtjQALYPk9Y2T/BbOFV0nSWvtekpcv75AAAADWDk8hBFh+9xnZ/8xiOxt/slRVbVtVL66qM6rqsqr6WVV9v6re0c/mmq2vSZ5kNeXJS1W1S1W9vKo+X1WXVtXN409lqqqdqurwqnpnVX2pqq6oqp9X1ZVV9e2qeldV7b/YzwKA6U3wJMNbPOW1qh5RVf9UVedV1Q1V9eOqOqWqnjTLfdpYAfuHjfQ7uh053esmeapfVe1ZVa+pqv/qx3RjVV1TVd+squOr6rer6jYzvHa/qvrj/n2cU1XXV9WGqrq4qv69//m541xjAGD1mYEFsPxG/1+7W7plhEuiqu6Wrp7WL49d+oV0SxePqqrnt9bes0T32y/JiUnuPkub2yS5NMm201zeud/2SfKcqnpnkt9vrd20FOMDYGGq6k1JXjJ2+k5JHpvksVV1YpLDW2sbVnBMWyd5TZKXpnvgyahbJ7lfvz0rydFJ3jL2+j9L8uoZut/08JRHJTmmqg5rrX1xyQYPW4BSAouBEWABLL/vpyvQnnR/wT56ifq9dZJ/Thde/XeS9yU5P11I9tvpCsJvm+TdVXVla+2kRd7v9klOSrJHktOSfCTJj9P9A+BOI+226u/74ySfSPK1dMXqf5Zk1yQPSvKUfv95Sa5OcswixwbAwv1BkicmuSrJu5N8Jd2DRA5MFw5tk+QJSd6fZHw21qaC9R/uv34ryZ9Oc48z5zOgqqokH0jy5P5US/dAlNPS/UzZJsleSQ5K8uvJtNWmt0+yMckXk/xnku+mqy+5dZI9kzwu3XvcPcmpVbVva+1H8xknACtHgAWw/N6f5Nh+/8VVtXeS45J8qrV2xSL63b3f3pbk6NbaxpFrb62qY5K8Pl2g9LdV9anW2tWLuN8vpfuHwBGttffN0u7n6X5j//HW2s3TXP+7qvqTdAHYQ5K8pKre3lo7bxFjA2Dhnpjke0ke0Vq7YOT8CVX11iSfTHLHJE+sqsNbax/c1GBTwfraPFXjJ0tUxP4Pszm8+nGSJ7TWPj9dw6q6Z7pfioz7lyR/3Vq7aIZ7/EVVHZHkPUlul+SV6R6iAsAAqYEFsPz+T5L/Gjk+OMmHklxeVT+sqg9V1R9V1f5V856s/eUkLx4Lr5IkrbU3ZPNvxO+U5Mh5j/yW3jZHeJXW2sbW2qkzhFeb2lye5Jn94dZJjliCsQEMwgw1oKbbjl/tsfZuTvKUsfAqSdJa+2amhjrLPmO2qnZI8sf94cbMEl4lSWvtnNbaLWZ4tda+NEt4tanNP6T7RVOS/E5VjS9VBGAgBFgAy6y1dkOSRyZ5Y5Lrxy7fM91yjDck+UKSc/qCspP+BfqNswVFfb+b/PaEfc7mr5egjyRJa+37SS7pDw9Yqn4BmLd/b63990wXW2snJzm7P9yvqu61zOM5ON2y9SQ5abbwaol8rv+6fZIHLPO9AFggSwgBVkAfYv1RVb0uXR2RR6ULbe451vQe6WZs/U5VHdLPVJrN6XNc/0KSa5LslORXqmqrOQKv2VzUWvvhpI2ravckz0gX3t033fKO7WdofrcFjglgiA6bu0mSrm7hEMz1s2RTm3v3+/snmfjnwQI8dGR/UfUb+5nNB6f7Jc6vpKvjuFNm/nfQ3dLVAIN1Tw13hkaABbCCWms/TfL3/Zaq2lTU/OFJnp7NT/d7cLolDY+epbufzhVwtdZaVf0gyb7pwqNdkiy07tYtlpbMpKqel+TNmTmwGnfbBY0IYICWqAbUSvrePNvsvlwD6Y3+UuPbC+2kqu6cbsn+gfN4mZ9HAAMlwAJYRX2gdVqS06rqlelmX72wv/ybVXVga+0/Z3j5dRPeZrTdTll4gPWzSRpV1ZOT/M3IqTOSfCbJOemecDX6CPa/TVcYeOsFjgmAxZvk58n4z5LlNBoiXbuQDqrqVkk+lu5JvUny03QPD/lGuuXrP0tXXytJHpHuSYyJn0cAgyXAAhiI1trPq+rF6R4Jft/+9KPSPfp7OjtM2PVou2sWNrp5eV3/dWOSw1prH5mpYVW9awXGA8DsJvl5spI/S0afmLvjAvt4ajaHV59I9/No2nFX1V0XeA8AVpAi7gAD0lq7KcmnR07dZZbmu1bV7Wbrr6/9sanY7vVJrlzM+ObSP8p8r/7wxDnCq9ume2w5AKtrr7mbTGkz65P9lsDokvX7zthqdr85sn/0TOFVb7weJQADJMACGJ6fj+zPtXTiUXNc3z+bl2J8eREF3Cd155H978/R9tHxcwhgCOb6WZIk/2Nk/wvTXG/916Wo+/wfI/uPX2Af8/l59JgF3gO2bLWONtYE/3AAWGZVtds82t463dOSNvnGHC95ST/LaiYvG9n/0KTjWITRGikz/ka/qm6T5E+XfzgATOBRVfWAmS5W1SFJ7tMfntlaO2eaZpt+4TLp8vbZnJrkJ/3+46vqgAX0MenPo6cmud8C+gdghQmwAJbfl6vq+Kp6yGyNqmrHdE8n3Ls/dVWSk+foe/8kf1VVt/j/eVW9JN1jw5Pk0iTvmdeoF+asbP5HzKHTveeq2i7JPySZ8R9LAKyorZP8U1Xd4umCVXXfJMeNnHrDDH1sCrXu0/9/fsFaa9cnee3I2E6cLcSqqntU1X5jp780sv/aqrpFcfaqeni6h4kAsAYo4g6w/G6d5FlJnlVV56V7It9/pwuVNiS5fZL9kjwx3RP5km4pxotaa7M9MfCiJOcneXGS36iq9yX5UZI7pQuuHjbS13Nba1dP28sSaq3dWFXvSHJMuvf9mao6PskX0/02/L7pPos90hXVvXemPi4dYM2rqifMo/kXWmsXL9dYJvQvSZ6U5FtVdVySM9MFR7+W5Mgk2/bt/rW19o8z9HF6ul9M7JDkI1V1QpLLsnlp4TdaaxfOY0xvSXJgup9nuyX5r6r6t3RP7r04yW3S1Xh8WL+9LMlXR15/XJJXpHti4qFJvtaP6bwku6Zbxv74JDen+6XKEfMYGwCrQIAFsPy+lq6+SCW5R5Jn9ttMLknyB621uZb8/TzdX+xPSReAjf/2OekCsue31k6a76AX4X+n+0fMY9KFWL/Xb6M+k+4JUV9ZwXEBrJQPz6PtYUlOXKZxTOptSc5N8tJ+m85JSZ4+Sx9v6q/vluSR/TbqqCTHTzqg1lqrqsPTzfh6cbpA7ZB+m86UGo+ttUv75YEfSrJ9umWCrx97zfVJnt/3LcCCMaU4FANjCSHAMmutPTrdLKOjkvxdks8n+XG6cOmmdE8G/FaSDyR5RpK9JgivNvV9YZIDkhzd93t53+8Pk/xNkvu31o5fsjcz2ZhuTPcPjN9NV4j3qiQ3JrkwycfSzcB6RGvt8pUcFwAza629LF2h9n9ON5v3xnQzqD6W5MmttSe01m6Y5fUXJXlgkjcn+XqSa7J59tVCx7SxtfbSdLN3/zLdzLArkmzs+/9mknenm0n1jmlef2qSX063TPCc/j1dleTb/Tj3ba29dzFjBGDlVGuL+rkCwAqrqnPTzeQ6r7W25+qOBoC1qKpeleSV/eHDW2ufXr3RAEP0w8tuWDdhwb3uuK3pZmuAGVgAAAAADJoACwAAAIBBU8QdAAAAmKIsqmNgzMACAAAAYNAEWAAAAAAMmqcQAgAAAFOc85P18xTCe97BUwjXAjWwAAAAgCkkOgyNJYQAAAAADJoACwAAAIBBE2ABAAAAMGgCLABgSVXV8VXV+m3Paa4fNHL9VSs/wuGoqiNHPosjF9HPin2mVbXnyL2OX857zVdVnduP69zVHgsAsLQUcQeAFVBVsz3J57okVyT5epJTk7y3tXb1igxsCzYS5JzbWjt+FYcCAGuPKu4MjBlYALD6dkiyR5JDkrwtyXer6tGrO6Qtwiv77chVHgcAAItkBhYArLzDxo53SrJvkmcmuUOS3ZKcVFUHtdY+v8JjW3attU/H73UBAJgHARYArLDW2onTnH5vVb0uyceSPCjJNkn+KslDVnBoAAAwSAIsABiI1trlVfWsJN/qTx1QVXu01n60muMCANafMlmagVEDCwAGpLX27STfHzn1gE070z2xrqoeWFV/U1XfraprZnqaXVXtXFUvrarTq+qiqtpQVVdU1Veq6tiquusk46uq7arqmKr6UlVd1d/z21X1hqraY8I+5vXEvKo6sKreUVXf6Mf88/7rF6rqr6rq18fat7Gi+Q8bud/oduQM99u6qp5eVf/cP9Xuuqq6tqrOrqp3VdWDJnmffV+HV9XHq+rSqrqhqs6pqhOq6sGT9rGUqmq/qvrjqjqlH8v1/ffCxVX171X14qracQH93rX/PvpmVV3db1+tqj+rqtvOo599q+otVfW1/s94Q//9ekpVPbuq/PIVANYpfwkAgOG5NMle/f7OMzWqqmOSvC7J1rN1VlVPTvI3SW43duk2SXZN8sAkR1fV81tr75mln3sl+fjI2DbZp99+t7/Xkqiq2yV5T5LHTXN51yT799vRVbVva+1rS3DPX0ryz0nuM83lvfvtOVX1tiRHt9Y2ztDPdn0/h4xd2rPfnlZV/yvJTxY75klV1Z8lefUMl+/cb49KckxVHdZa++KE/R6U5ENJbj92ad9+e15VPa619tVZ+tgmyTuSHJVb1ke7S789NslLqurQ1toPJxkbALDlEGABwPDcaWT/qhnaPCXJwUmuTXJCki8m+XmS+ya5ZFOjqvq9JO9MFwrcmOSkJP+R5MdJdkzy60melmTbJMdX1Y2ttQ+M36yqdknyyST36E9dkOTdSb6Trgj9Y5M8IV2QsRRB0u2SnJEuMEqS65P8U3/up/09fynJY9KFZ6Ohx6Yi+R/uv34ryZ9Oc5szx+65X5LP9H0nyWeTnJLkvHSz1h+Q7omGuyX5/XQB4PNmeAsfyObw6mfpPqsv9McHpAtq/nJkjCth+yQb032v/GeS7ya5Ml0Aume6oPDAJLsnObUPBedavnr3JP+SLhz9aL9dmeQXkzwrXdi5e5LTq+qBrbXzxjvoZ1V9LMlB/amLknwwydfT/bnfLckT032v3i/Jf1TVfq21y+b5/gGANaxaa3O3AgAWZXRJW2ttxqISVXWfdKHQJvdorZ3fXzsyyd+PXPtukkdtuj5NXw9I8qV0Qcv3khzaWjtrmnb7JDk9XdBwTZI9W2tXjLV5Z5Ln9oefTXJIa+2asTa/nS54GJ0Rds/W2rlj7Q5K8qn+8NWttVdNM6aTk/xWf/j5JE9srV08w/v8tSQ/bK1dMnZ+02f+mdbaQdO9dqTt9km+keRe6UKTw1trH5mm3c7pQqeH96ce1Vo7fazN7yR5f394SZKHj3/u/Wf+qXRh2CZHtdaOn22cs4z/oMz9mf5qkgtbaxfN0s8R6Wa9bZXkuNbac6Zps2eSc0ZObUzyjPHgs6q2Tfc5bAoUP95ae8w0/R2b5H/1h+9K8qLW2g3TtHtRkrf0h+9rrR0xTZtz04Ws57XW9pzpfQIwt/Mu37BuwoJ73H4bBb/WADWwAGAgqmrXJMePnPrCTOFUkpYuZJnpepK8Kl14dUOSx04XXiVJa+076WYWJd3so98bG9cdR65fk+Qp4+FV38+H0j05cVH6+lCbwqsL+rFPG1719/2v8fBqAZ6TLrxKkudNF17197oqyZOTXN2feuk0zf5otN/pPvf+M//dhQ93/lprX5otvOrb/EM2h2+/U1W3nqDrt0w3a68PoZ6RZNMsrkf3oer/U1V3SnJ0f3h6a+2504VXfX9/PTK2w2vCum0ALEzV+tlYGwRYALDCquoJY9sRVfWXSc5Ksqm4941J/nCWbj43R02hXZI8vj/8cGvt+zO1TZLW2mlJNoVEjx67fEi6ICxJ3j9HWPTmJDfPdq8JPGNk/w2ttZ8usr9JPKv/emE2hyTTaq1dnm5pYZIc1NdvSvL/Zift1x+e3Vo7JTPor31npuur6HP91+0z8hCBGdyc5E0zXWytXZeuttUmvz3W5Knplq8m3ZLKuWyq0bZ1kkdO0B4A2EKogQUAK2+uukeXJTmytXbGLG0+O0cfB2bzL6o2VNUTJhjXNemKZd937Pz+I/ufmK2D1trFVfXtdPWpFuqhI/snLaKfifRPydu3P7w4yaE1969jN4VW2ya5Z7rwMZnHZzXSZp+JBroEqntjB6cLkn4lyR7pZt3N9HfCuyX5yixdfnuuWV3plqce2+/vP3btN0b2d5vg+3R01tX49ykAsAUTYAHA6vtZksvT1WA6Ncl7W2tXzvGaC+a4vufI/pHZvARwEuNPK9x9ZH/WmVwjbRYTYN2t/3rdHEskl8oe2Rz2PSjzL6w++nkt5LNaEVV153RF9g+cx8tuO8f1703Qx2ib3ceu7Tmyf8IkAxox/n0KAGzBBFgAsMJmK+I+Dz+b4/oui+h7vO7RjiP710/w+usWce9kc2hy7SL7mdQui3z9bUb2V/qzmsjIk/5+uT/10yQfSReaXpLu+2ljf+0RSf6g3x8tyD+dScY/2mansWu7TPD6mdxm7iYAwJZCgAUAW6bR8OdFrbW3LlFf20/QfodF3CvpCqTfLlPDoOU0+v7+tbX2pCXqayU+q0k9NZvDq08kOWy6QvxJMs/i6JOMf7TN+D1HP6/bzjQmAFae2uYMjSLuALBlGl1iuMci+7pwZH+vCdpP0mY2m8a+Q1XdfZF9TWL0/a21z2pSvzmyf/QcQdE959HvfN/jeL2spfw+BQC2YAIsANgyfTZJ6/cfs8i+vjiy/4jZGlbVXbL4ouT/MbL/+BlbzW3T+5/1l8ittZ8k+VZ/+MCq2m0R95z4s+qt1JP07jyyP1fdrfl8v9yvqsbrWo37HyP7Xxi79pmR/YPncV8AYJ0RYAHAFqi1dmm6gvBJcv+q+p1FdPdvSW7s9582R8BzdOaumzSX947sH1NVuy6wn03L0yZZ5vae/uvWSf58gfdLa+28JGf2h/epqhlDmf7aSj2BcLQO1YyzpqrqqUnuN49+t0ryh7P0t32SF46c+tBYkw8m2dDvv6Sq7jCPewMA64gACwC2XH+SzcHT380VYlXV7arqJVU1OmMmrbXLkhzfH942yQer6hb1qarqsCQvWeygW2tfTHJSf3i3JP/Wz+yaadwH9E/YG3dO//U+VbXdHLd9e5Jz+/3nVtXrq2q8mP3oPW9TVU+pqv85zeU3juwfV1V7T/P6vZMcN8eYltKXRvZfW1W3CBmr6uFJ/nYBff9hVT1lmv62SRcMbloG+rHW2jdG27TWLkjy1/3h7kk+XlX3mu1mVfXLVfXOBYwTgHmoWj8ba4Mi7gCwhWqt/XdVPS9dULJ9kvdX1THpnj73vXRPnts53Yyc/ZP8Rrq/Gzxjmu5enm5p2d2THJTk21V1XJKz0j1Z7uAkT0z3dLuv9W0W49lJPp/kF5MckOT7VfWPSc7o77FTutlLj0ly/yT7pXua3qjTkzwg3Qysj1TVCUkuy+alhd9orV2YJK2166vq0HTLF3dJckySI6rqQ/37uTrdZ7hHkgemWxZ320wTQrXWPlBVhyc5NMldkny1qt6dzcvnDkhyVN/fh5MctqBPaH6OS/KKdJ/boUm+1n8e5yXZNcmj0y3XvDnJPyQ5YsJ+P53uM/7Hqnp6klOSXJnue+rIdH9+SXJFkufP0Mcfpysw/5vpPtuzqurkdMtgL073C9c7JPmlJA9Psne6JyY+b8IxAgBbAAEWAGzBWmvHV9XFSd6dbobLvv02kw1JfjJNP1dW1SOSfCxdOLFHkleNNbsiyZOTPHMJxn1FVT0kyfvShSvbpwt9jprhJTdPc+5NSZ6eZLd0tabG600dlc0zy9Ja+0ZVPai/54PTfV4vmm2YmVq0fdTh6ZbLPbYf++/32yYbk7wsyeVZgQCrtXZpvzzwQ/147pfk9WPNrk8XMm2dyQOs89J9H/xLumDs0GnaXJzkcf3yyunGdlNVPS7JsUlenOTWSZ7UbzO5YJZrAMAWyBJCANjCtdY+nuRe6WY1fSjd0rprk9yUbjbTV9MFOc9McufW2sdm6OcH6WbbvDxdnadr0tVWOivdsrl9W2ufXMJxX95ae0y64OndSb7b3/OmdMHPF9KFVA9urX19mtdflG5Gz5uTfL1/bRtvN/aaH7TWDkgXmv1dkm+nm1G0sX/9WUn+NV3Q8guttVfO0M/PWmuHJHlauplgl6cLB89LN8PpwNbamyb9LJZCa+3UdDOd/jbd98CNSa5K9x7fnO7P770z9zBjv5/p+31939e1/fb1dOHWPq21M2fsoOvj5621l6ULR/883eyrS/ox3pAuKPxUkr9INwtr1mWGAMCWp1qb9e9xAAAAwDpzwU83rJuw4G67bqMS1hpgCSEAAAAwRqbDsFhCCAAAAMCgCbAAAAAAGDQBFgAAAACDpgYWAAAAMEUpgcXAmIEFAAAAwKAJsAAAAAAYNAEWAAAAAIMmwAIAAABg0BRxBwAAAKZQw52hMQMLAAAAgEETYAEAAAAwaAIsAAAAAAZNDSwAAABgilIEi4ExAwsAAACAQRNgAQAAADBoAiwAAAAABk2ABQAAAMCgKeIOAAAATFFRxZ1hMQMLAAAAgEETYAEAAAAwaAIsAAAAAAZNgAUAAADAoCniDgAAAEylhjsDYwYWAAAAAIMmwAIAAABg0ARYAAAAAAyaGlgAAADAFEpgMTRmYAEAAAAwaAIsAAAAAAZNgAUAAAAwD1W1U1U9qareVlX/VVWXVdXPq+rqqjqrqk6oqsdU1ayrMavqyKpq89hetUJvcXDUwAIAAACYUFW9JMlrk2w7zeWdkty7356R5LNVdURr7fwVHOIWSYAFAAAATDH7vKF1b+9sDq8uTHJ6kq8kubQ/f0CSI5LsmOShST5dVQe01i6do9+3JvnkHG3OWuig1zoBFgAAAMDkWpJ/T/LGJJ9ord08dv09VfUXST6ebibWPZP8RZJnz9Hvma21E5d4rFsMNbAAAAAAJvcnrbVHt9ZOmya8SpK01s5L8tSRU0+tqu1XZnhbJgEWAAAAwIRaa1dM2O5rSc7uD7dPsteyDWodsIQQAAAAmKKiCNYSuXpkf7tVG8UWwAwsAAAAgCVWVbdJV/B9k/PmeMkLq+o7VXVtVV1fVedX1clV9QLLDwVYAAAAAMvhaUl27vfPbK1dMkf7X01ynyQ7pJuttUeS30ryjiTnVtXjlmuga4ElhAAAAABLqKrumOT1I6deM0vzjUnOSPLZJN9Ncm2SXZL8SpKnJLldkjsmObmqnt5a+8ByjHnoqrW22mMAAAAABuSya25aN2HBnW57622TbDN2ekNrbcNC+uuXDp6e5KH9qRNba4fN0HavJDe01i6Y4fpOSd6VzU80vCHJvVtr5y9kbGuZJYQAAADAVLWOtuQVSa4a216xoI+taqsk787m8OoHSZ49U/vW2vdnCq/669ckeXqST/entk3y8oWMba0zAwsAAACY4rJr19EMrJ2WZgZWVVWSdyb5vf7U+Uke1lo7d7FjrKoDk3xuU7+ttXssts+1RoAFAAAATLGeAqw77nirWmwffXj1jiTP709dkOSg1toPFtt33/9WSa5LNwMrSXZorV2/FH2vFZYQAgAAACxQH169PZvDqwuTPHypwqskaa3dnOSKkVO7LFXfa4WnEAIAAABTLHpK0joxEl69oD91Ubrw6vtLfJ+tkuw6curKpex/LTADCwAAAGCepgmvLk4XXn1vGW53QJLt+v0L1tvywUSABQAAALAQb8vm8OqSdOHVd5f6Jv3sqz8fOfXRpb7HWiDAAgAAAJiHqnprkhf2h5ekK9h+9jz7eEhVPbeqtp2lzQ5JTkjyyP7UhiSvX8CQ1zw1sAAAAAAmVFWvSfL7/WFL8pYk+1TVPnO89MzW2vkjx7sleWeSN1XVaUm+kuRH6Z42uHOSByY5PMntR+71nNbauUvxPtYaARYAAAAwRaniPptfH9mvJMdO+Lqjkhw/zfkdkxzWbzO5JF14dcqE99riCLAAAAAAVt7pSR6f5MFJ9k+yR7rZVrskuT7JpUnOTHJKkn9qrd2wOsMchmqtrfYYAAAAgAG5/Lqb1k1YcPsdbmW+2RqgiDsAAAAAgybAAgAAAGDQ1MACAAAApqhYVcewmIEFAAAAwKAJsAAAAAAYNAEWAAAAAIOmBhYAAAAwRSmBxcCYgQUAAADAoAmwAAAAABg0ARYAAAAAgybAAgAAAGDQBFgAAAAADJoACwAAAIBBE2ABAAAAMGgCLAAAAAAG7VarPQAAAABgWKpWewQwlRlYAAAAAAyaAAsAAACAQRNgAQAAADBoAiwAAAAABk0RdwAAAGCKiiruDIsZWAAAAAAMmgALAAAAgEETYAEAAAAwaGpgAQAAAFOUElgMjBlYAAAAAAyaAAsAAACAQRNgAQAAADBoAiwAAAAABk0RdwAAAGAKNdwZGjOwAAAAABg0ARYAAAAAgybAAgAAAGDQBFgAAAAADJoi7gAAAMBUqrgzMGZgAQAAADBoAiwAAAAABk2ABQAAAMCgqYEFAAAATFGKYDEwZmABAAAAMGgCLAAAAAAGTYAFAAAAwKAJsAAAAAAYNEXcAQAAgClKDXcGxgwsAAAAAAZNgAUAAADAoAmwAAAAABg0NbAAAACAKZTAYmjMwAIAAABg0ARYAAAAAAyaAAsAAACAQRNgAQAAADBoirgDAAAAU6nizsCYgQUAAADAoAmwAAAAABg0ARYAAAAAg6YGFgAAADBFKYLFwJiBBQAAAMCgCbAAAAAAGDQBFgAAAACDJsACAAAAYNAUcQcAAACmKDXcGRgzsAAAAAAYNAEWAAAAAIMmwAIAAABg0Kq1ttpjAAAAAIAZmYEFAAAAwKAJsAAAAAAYNAEWAAAAAIMmwAIAAABg0ARYAAAAAAyaAAsAAACAQRNgAQAAADBoAiwAAAAABk2ABQAAAMCgCbAAAAAAGDQBFgAAAACDJsACAAAAYNAEWAAAAAAMmgALAAAAgEH7/wEqUSshX0igdgAAAABJRU5ErkJggg==;" vertex="1" parent="1">
                    <mxGeometry x="1350" y="160" width="1200" height="1200" as="geometry"/>
                </mxCell>
            </root>
        </mxGraphModel>
    </diagram>
</mxfile>